<svg width="44" height="44" viewBox="0 0 44 44" fill="none" xmlns="http://www.w3.org/2000/svg">
<mask id="path-1-inside-1_1232_34267" fill="white">
<path d="M0 22C0 9.84974 9.84974 0 22 0V0C34.1503 0 44 9.84974 44 22V22C44 34.1503 34.1503 44 22 44V44C9.84974 44 0 34.1503 0 22V22Z"/>
</mask>
<path d="M0 21C0 8.84974 9.84974 -1 22 -1C34.1503 -1 44 8.84974 44 21V22C44 10.402 34.1503 1 22 1C9.84974 1 0 10.402 0 22V21ZM44 44H0H44ZM0 44V0V44ZM44 0V44V0Z" fill="white" fill-opacity="0.12" mask="url(#path-1-inside-1_1232_34267)"/>
</svg>
