<svg width="93" height="25" viewBox="0 0 93 25" fill="none" xmlns="http://www.w3.org/2000/svg">
<path d="M14.6055 11.437C14.5827 8.71825 16.8306 7.39685 16.9293 7.33609C15.6535 5.4831 13.679 5.22489 12.9879 5.20211C11.3323 5.02744 9.72237 6.19696 8.87941 6.19696C8.02126 6.19696 6.71505 5.22489 5.31771 5.24768C3.51787 5.27805 1.82436 6.31846 0.905454 7.94363C-1.0007 11.2471 0.419422 16.1074 2.24963 18.7806C3.16854 20.0868 4.23173 21.5525 5.63667 21.4994C7.00363 21.4462 7.52004 20.626 9.16799 20.626C10.8083 20.626 11.2868 21.4994 12.7145 21.469C14.1878 21.4462 15.1067 20.1552 15.9952 18.8338C17.0508 17.3377 17.4761 15.8568 17.4913 15.7809C17.4533 15.7657 14.6358 14.6873 14.6055 11.437Z" fill="white"/>
<path d="M11.9084 3.44779C12.6451 2.52888 13.1463 1.27583 13.0096 0C11.9464 0.0455655 10.6098 0.736642 9.84281 1.64036C9.16693 2.43775 8.55939 3.73637 8.71127 4.95904C9.91116 5.05017 11.1414 4.3515 11.9084 3.44779Z" fill="white"/>
<path d="M34.4407 21.3096H32.527L31.4789 18.0137H27.8337L26.8389 21.3096H24.9783L28.5855 10.0929H30.8182L34.4407 21.3096ZM31.1676 16.6315L30.2183 13.7078C30.1196 13.404 29.9297 12.7053 29.6563 11.5966H29.6184C29.5044 12.075 29.3298 12.7813 29.0868 13.7078L28.1527 16.6315H31.1676Z" fill="white"/>
<path d="M43.7136 17.1708C43.7136 18.5453 43.3415 19.6313 42.5896 20.4287C41.9213 21.1426 41.086 21.4919 40.0987 21.4919C39.0279 21.4919 38.2609 21.1122 37.7901 20.3452V24.5903H35.9902V15.8797C35.9902 15.014 35.9674 14.1331 35.9219 13.2218H37.5015L37.6002 14.5052H37.6306C38.2305 13.5407 39.1418 13.0547 40.3569 13.0547C41.3138 13.0547 42.1036 13.4344 42.7415 14.1862C43.3946 14.9457 43.7136 15.9329 43.7136 17.1708ZM41.8834 17.2315C41.8834 16.4417 41.7087 15.7962 41.3518 15.2874C40.9645 14.7558 40.4404 14.49 39.7873 14.49C39.3469 14.49 38.9444 14.6419 38.5799 14.9305C38.2229 15.2266 37.9799 15.6064 37.8736 16.0848C37.8204 16.305 37.7901 16.4873 37.7901 16.6316V17.9834C37.7901 18.5681 37.9723 19.0693 38.3293 19.4718C38.6862 19.8743 39.157 20.0794 39.7342 20.0794C40.4101 20.0794 40.9341 19.8136 41.3138 19.2972C41.6935 18.7732 41.8834 18.0897 41.8834 17.2315Z" fill="white"/>
<path d="M53.0082 17.1708C53.0082 18.5453 52.6361 19.6313 51.8843 20.4287C51.216 21.1426 50.3806 21.4919 49.3934 21.4919C48.3226 21.4919 47.5556 21.1122 47.0847 20.3452V24.5903H45.2849V15.8797C45.2849 15.014 45.2621 14.1331 45.2166 13.2218H46.7962L46.8949 14.5052H46.9253C47.5252 13.5407 48.4365 13.0547 49.6516 13.0547C50.6085 13.0547 51.3983 13.4344 52.0362 14.1862C52.6893 14.9457 53.0082 15.9329 53.0082 17.1708ZM51.178 17.2315C51.178 16.4417 51.0034 15.7962 50.6464 15.2874C50.2591 14.7558 49.7351 14.49 49.082 14.49C48.6416 14.49 48.2391 14.6419 47.8745 14.9305C47.5176 15.2266 47.2822 15.6064 47.1683 16.0848C47.1151 16.305 47.0847 16.4873 47.0847 16.6316V17.9834C47.0847 18.5681 47.267 19.0693 47.6239 19.4718C47.9809 19.8743 48.4517 20.0794 49.0289 20.0794C49.7048 20.0794 50.2363 19.8136 50.6085 19.2972C50.9958 18.7732 51.178 18.0897 51.178 17.2315Z" fill="white"/>
<path d="M63.4124 18.1655C63.4124 19.1224 63.0782 19.897 62.4175 20.4969C61.6885 21.15 60.6708 21.4766 59.3646 21.4766C58.1571 21.4766 57.1927 21.2412 56.4636 20.7779L56.8813 19.2819C57.6711 19.7451 58.5369 19.9805 59.4785 19.9805C60.1544 19.9805 60.686 19.8286 61.0581 19.5249C61.4379 19.2211 61.6277 18.811 61.6277 18.3022C61.6277 17.8466 61.4682 17.4668 61.1645 17.1555C60.8531 16.8441 60.3367 16.5555 59.6152 16.2897C57.6331 15.5531 56.6535 14.4823 56.6535 13.0774C56.6535 12.1585 57.0028 11.4066 57.6939 10.8143C58.385 10.2295 59.3039 9.93335 60.4506 9.93335C61.4682 9.93335 62.3188 10.108 62.9947 10.4649L62.539 11.923C61.9011 11.5813 61.1872 11.4066 60.3823 11.4066C59.7519 11.4066 59.2507 11.5661 58.8938 11.8699C58.5976 12.1509 58.4457 12.485 58.4457 12.8875C58.4457 13.328 58.6204 13.7001 58.9621 13.9811C59.2583 14.2469 59.8051 14.5355 60.5949 14.8468C61.5594 15.2341 62.2656 15.6898 62.7213 16.2138C63.1845 16.7378 63.4124 17.3909 63.4124 18.1655Z" fill="white"/>
<path d="M69.3661 14.5735H67.384V18.4997C67.384 19.4945 67.7334 19.9958 68.432 19.9958C68.751 19.9958 69.0168 19.9654 69.2294 19.9122L69.2826 21.2792C68.9257 21.4083 68.4624 21.4766 67.8853 21.4766C67.1714 21.4766 66.6246 21.2564 66.2221 20.8235C65.8196 20.3907 65.6222 19.6616 65.6222 18.644V14.5659H64.4451V13.2217H65.6222V11.7408L67.384 11.2092V13.2217H69.3661V14.5735Z" fill="white"/>
<path d="M78.2821 17.2011C78.2821 18.4466 77.9252 19.4642 77.2189 20.2616C76.4747 21.0818 75.4874 21.4919 74.2572 21.4919C73.0725 21.4919 72.1232 21.097 71.4169 20.3148C70.7107 19.5326 70.3613 18.5377 70.3613 17.3378C70.3613 16.0848 70.7259 15.0595 71.4473 14.2621C72.1764 13.4648 73.156 13.0623 74.3863 13.0623C75.571 13.0623 76.5279 13.4572 77.2493 14.247C77.9404 15.0064 78.2821 15.9936 78.2821 17.2011ZM76.4215 17.2391C76.4215 16.4949 76.2621 15.8645 75.9431 15.3329C75.5634 14.6874 75.0242 14.3685 74.3255 14.3685C73.6041 14.3685 73.0497 14.6874 72.6776 15.3329C72.351 15.8645 72.1991 16.51 72.1991 17.2771C72.1991 18.0213 72.3586 18.6592 72.6776 19.1832C73.0649 19.8287 73.6117 20.1477 74.3103 20.1477C74.9938 20.1477 75.533 19.8211 75.9279 19.168C76.2545 18.6212 76.4215 17.9833 76.4215 17.2391Z" fill="white"/>
<path d="M84.1293 14.8014C83.9546 14.771 83.7648 14.7558 83.5597 14.7558C82.9294 14.7558 82.4358 14.9912 82.094 15.4697C81.7978 15.8873 81.646 16.4265 81.646 17.0644V21.3096H79.8461V15.7658C79.8461 14.8317 79.8309 13.9812 79.793 13.2218H81.3574L81.4257 14.771H81.4789C81.6687 14.2394 81.9649 13.8065 82.375 13.4876C82.7775 13.199 83.2104 13.0547 83.6736 13.0547C83.8407 13.0547 83.9926 13.0699 84.1217 13.0851L84.1293 14.8014Z" fill="white"/>
<path d="M92.1651 16.8821C92.1651 17.2011 92.1424 17.4745 92.0968 17.6947H86.7049C86.7277 18.4921 86.9859 19.1073 87.4871 19.5249C87.9427 19.8971 88.5275 20.0869 89.2489 20.0869C90.0463 20.0869 90.7754 19.9578 91.4285 19.7072L91.7095 20.9527C90.9425 21.2868 90.0387 21.4539 88.9983 21.4539C87.7453 21.4539 86.758 21.0818 86.0442 20.3451C85.3303 19.6085 84.9734 18.6136 84.9734 17.3758C84.9734 16.1607 85.3075 15.1431 85.9758 14.3305C86.6745 13.4647 87.6162 13.0319 88.8009 13.0319C89.9628 13.0319 90.8513 13.4647 91.4437 14.3305C91.9221 15.0291 92.1651 15.8721 92.1651 16.8821ZM90.4488 16.4189C90.464 15.8873 90.3425 15.424 90.0995 15.0367C89.7881 14.5355 89.3097 14.2849 88.6718 14.2849C88.087 14.2849 87.6086 14.5279 87.2441 15.014C86.9479 15.4013 86.7656 15.8721 86.7125 16.4113L90.4488 16.4189Z" fill="white"/>
<path d="M30.3022 6.08312H29.3606L28.8441 4.46555H27.0519L26.5583 6.08312H25.647L27.4164 0.569702H28.51L30.3022 6.08312ZM28.6847 3.78207L28.2214 2.33916C28.1759 2.19487 28.0847 1.84554 27.9404 1.29875H27.9252C27.8645 1.53417 27.7885 1.87591 27.6594 2.33916L27.2038 3.78207H28.6847Z" fill="white"/>
<path d="M34.7386 2.10388L33.2349 6.08327H32.3768L30.9187 2.10388H31.868L32.5439 4.20749C32.6578 4.55682 32.7565 4.89097 32.8325 5.20993H32.8552C32.9236 4.92135 33.0223 4.5872 33.1438 4.20749L33.8121 2.10388H34.7386Z" fill="white"/>
<path d="M37.9415 6.08313L37.8732 5.62748H37.8504C37.577 5.992 37.1897 6.17426 36.6885 6.17426C35.9746 6.17426 35.4734 5.67304 35.4734 5.00475C35.4734 4.02509 36.3239 3.51628 37.7972 3.51628V3.44034C37.7972 2.91633 37.5162 2.65813 36.9695 2.65813C36.5746 2.65813 36.2328 2.75685 35.929 2.9543L35.7468 2.37714C36.1113 2.14931 36.5746 2.0354 37.1137 2.0354C38.1542 2.0354 38.6782 2.58219 38.6782 3.68335V5.14904C38.6782 5.55154 38.6933 5.8629 38.7389 6.09832L37.9415 6.08313ZM37.82 4.10103C36.8404 4.10103 36.3467 4.33646 36.3467 4.90602C36.3467 5.32371 36.5973 5.52875 36.9543 5.52875C37.4023 5.52875 37.82 5.18701 37.82 4.71617V4.10103Z" fill="white"/>
<path d="M40.6461 1.45062C40.3499 1.45062 40.1221 1.22279 40.1221 0.919022C40.1221 0.615253 40.3575 0.39502 40.6613 0.39502C40.965 0.39502 41.208 0.615253 41.2005 0.919022C41.2005 1.23798 40.9726 1.45062 40.6461 1.45062ZM40.2208 2.10372H41.1017V6.07551H40.2208V2.10372Z" fill="white"/>
<path d="M42.6733 0.281006H43.5543V6.07541H42.6733V0.281006Z" fill="white"/>
<path d="M47.306 6.08316L47.2377 5.6275H47.2149C46.9415 5.99203 46.5542 6.17429 46.053 6.17429C45.3391 6.17429 44.8379 5.67307 44.8379 5.00478C44.8379 4.02512 45.6884 3.5163 47.1617 3.5163V3.44036C47.1617 2.91636 46.8807 2.65815 46.334 2.65815C45.9391 2.65815 45.5973 2.75688 45.2935 2.95433L45.1113 2.36957C45.4758 2.14175 45.9391 2.02783 46.4782 2.02783C47.5187 2.02783 48.0427 2.57462 48.0427 3.67578V5.14147C48.0427 5.54397 48.0578 5.85533 48.0958 6.09075H47.306V6.08316ZM47.1845 4.10106C46.2049 4.10106 45.7112 4.33648 45.7112 4.90605C45.7112 5.32373 45.9618 5.52878 46.3188 5.52878C46.7668 5.52878 47.1845 5.18704 47.1845 4.71619V4.10106Z" fill="white"/>
<path d="M51.6269 6.17414C51.065 6.17414 50.6473 5.93872 50.3739 5.46788H50.3587L50.3055 6.08301H49.5537C49.5765 5.76405 49.5841 5.40712 49.5841 5.01222V0.281006H50.4726V2.68838H50.4878C50.7536 2.24792 51.1713 2.02768 51.756 2.02768C52.7129 2.02768 53.3812 2.84786 53.3812 4.04016C53.3812 5.27042 52.637 6.17414 51.6269 6.17414ZM51.4447 2.71876C50.9359 2.71876 50.4726 3.15922 50.4726 3.77436V4.47303C50.4726 5.01981 50.8903 5.46788 51.4295 5.46788C52.0902 5.46788 52.4851 4.92868 52.4851 4.07053C52.4851 3.26554 52.075 2.71876 51.4447 2.71876Z" fill="white"/>
<path d="M54.6858 0.281006H55.5667V6.07541H54.6858V0.281006Z" fill="white"/>
<path d="M60.3755 4.30604H57.7251C57.7403 5.05787 58.2415 5.48314 58.9781 5.48314C59.373 5.48314 59.7299 5.41479 60.0489 5.29329L60.1856 5.90842C59.8135 6.07549 59.373 6.15144 58.8566 6.15144C57.6112 6.15144 56.8745 5.36923 56.8745 4.14656C56.8745 2.93148 57.6263 2.01257 58.7579 2.01257C59.7679 2.01257 60.4134 2.7644 60.4134 3.90354C60.4134 4.06302 60.4058 4.19972 60.3755 4.30604ZM59.5705 3.67571C59.5705 3.06058 59.2591 2.62771 58.6971 2.62771C58.1883 2.62771 57.7934 3.06817 57.7327 3.67571H59.5705Z" fill="white"/>
<path d="M65.7277 6.17429C64.5658 6.17429 63.814 5.30855 63.814 4.13144C63.814 2.90117 64.581 2.02783 65.7961 2.02783C66.9428 2.02783 67.7098 2.8556 67.7098 4.06309C67.7098 5.30095 66.92 6.17429 65.7277 6.17429ZM65.7657 2.67334C65.1278 2.67334 64.7177 3.27329 64.7177 4.10106C64.7177 4.92124 65.1354 5.51359 65.7581 5.51359C66.3808 5.51359 66.7985 4.87567 66.7985 4.07828C66.7909 3.27329 66.3884 2.67334 65.7657 2.67334Z" fill="white"/>
<path d="M72.4591 6.08318H71.5782V3.79732C71.5782 3.09105 71.3048 2.74172 70.7732 2.74172C70.2492 2.74172 69.8923 3.18978 69.8923 3.71378V6.07559H69.0113V3.24294C69.0113 2.8936 69.0037 2.51389 68.981 2.1038H69.7556L69.7935 2.71893H69.8163C70.0517 2.29366 70.5378 2.02026 71.077 2.02026C71.9123 2.02026 72.4591 2.65818 72.4591 3.69859V6.08318Z" fill="white"/>
<path d="M78.2365 2.772H77.2644V4.70094C77.2644 5.19456 77.4391 5.43758 77.7808 5.43758C77.9327 5.43758 78.0694 5.42239 78.1757 5.39961L78.1985 6.0679C78.0238 6.13625 77.796 6.16663 77.515 6.16663C76.8164 6.16663 76.4063 5.77932 76.4063 4.77688V2.772H75.8291V2.1113H76.4063V1.38225L77.272 1.11646V2.10371H78.2441V2.772" fill="white"/>
<path d="M82.9158 6.08301H82.0349V3.81233C82.0349 3.09847 81.7615 2.74154 81.2299 2.74154C80.7742 2.74154 80.3489 3.0529 80.3489 3.68323V6.07541H79.468V0.281006H80.3489V2.6656H80.3641C80.6451 2.23273 81.04 2.02009 81.5564 2.02009C82.3994 2.02009 82.9158 2.67319 82.9158 3.7136V6.08301Z" fill="white"/>
<path d="M87.427 4.30604H84.7766C84.7918 5.05787 85.293 5.48314 86.0296 5.48314C86.4245 5.48314 86.7815 5.41479 87.1004 5.29329L87.2371 5.90842C86.865 6.07549 86.4245 6.15144 85.9081 6.15144C84.6627 6.15144 83.926 5.36923 83.926 4.14656C83.926 2.93148 84.6779 2.01257 85.8094 2.01257C86.8194 2.01257 87.4649 2.7644 87.4649 3.90354C87.4649 4.06302 87.4574 4.19972 87.427 4.30604ZM86.622 3.67571C86.622 3.06058 86.3106 2.62771 85.7486 2.62771C85.2398 2.62771 84.8373 3.06817 84.7842 3.67571H86.622Z" fill="white"/>
</svg>
