<svg width="189" height="221" viewBox="0 0 189 221" fill="none" xmlns="http://www.w3.org/2000/svg">
<path d="M0.393572 179.876C-0.711613 182.587 0.590725 185.682 3.30242 186.787L47.4921 204.797C50.2038 205.902 53.298 204.6 54.4032 201.888C55.5084 199.176 54.2061 196.082 51.4944 194.977L12.2146 178.968L28.2235 139.688C29.3287 136.977 28.0264 133.882 25.3147 132.777C22.603 131.672 19.5088 132.974 18.4036 135.686L0.393572 179.876ZM12.8193 184.124C15.5182 182.988 16.7852 179.879 15.6492 177.18C14.5132 174.481 11.4044 173.214 8.70544 174.35L10.7624 179.237L12.8193 184.124ZM5.30354 181.877L7.36041 186.764C8.70221 186.199 9.64753 185.796 10.288 185.516C10.606 185.378 10.8707 185.26 11.0806 185.163C11.1935 185.111 11.5589 184.945 11.8945 184.743C11.9633 184.702 12.2785 184.514 12.628 184.216C12.7613 184.102 13.2437 183.689 13.6725 183.011C13.895 182.659 14.2715 181.975 14.4255 181.023C14.5978 179.958 14.4688 178.629 13.7016 177.388C12.9909 176.237 12.0302 175.646 11.4166 175.362C10.8057 175.079 10.2731 174.974 9.97492 174.93C9.38907 174.842 8.92359 174.874 8.76044 174.887C8.37784 174.918 8.0801 174.984 7.99875 175.002C7.64937 175.08 7.312 175.195 7.24378 175.217C6.95229 175.314 6.55992 175.453 6.25751 175.561C5.90659 175.686 5.64564 175.778 5.49163 175.829C5.33704 175.88 5.50373 175.818 5.7604 175.761C5.81856 175.748 6.09813 175.685 6.46789 175.655C6.62461 175.643 7.08517 175.61 7.66749 175.698C7.96396 175.742 8.49522 175.847 9.105 176.129C9.71766 176.413 10.6769 177.005 11.3865 178.154C12.1522 179.395 12.2806 180.721 12.1085 181.785C11.9547 182.735 11.579 183.417 11.3575 183.768C10.9306 184.444 10.4517 184.853 10.3232 184.963C9.98319 185.253 9.68371 185.43 9.6371 185.458C9.39029 185.606 9.21766 185.676 9.42744 185.58C9.54017 185.528 9.72811 185.443 10.0185 185.317C10.5948 185.065 11.4897 184.683 12.8193 184.124L10.7624 179.237L8.70544 174.35C7.36363 174.915 6.41829 175.318 5.77781 175.597C5.45974 175.736 5.19512 175.854 4.98515 175.951C4.87224 176.003 4.50679 176.169 4.17106 176.371C4.10222 176.412 3.787 176.6 3.43739 176.898C3.30405 177.012 2.82178 177.425 2.39307 178.103C2.17067 178.455 1.79445 179.139 1.64047 180.091C1.4682 181.155 1.59667 182.483 2.36296 183.724C3.07304 184.874 4.03321 185.467 4.64711 185.751C5.25811 186.034 5.79096 186.139 6.08935 186.184C6.67553 186.272 7.14131 186.239 7.30456 186.226C7.6874 186.196 7.98533 186.13 8.06672 186.111C8.41629 186.033 8.75381 185.919 8.82199 185.897C9.11354 185.8 9.50594 185.66 9.80836 185.553C10.1593 185.428 10.4203 185.336 10.5744 185.285C10.7289 185.234 10.5624 185.295 10.3059 185.353C10.2478 185.366 9.96838 185.429 9.59886 185.458C9.44226 185.471 8.98199 185.504 8.4 185.416C8.10373 185.372 7.57268 185.267 6.96304 184.985C6.35066 184.702 5.39091 184.111 4.68068 182.962C3.91399 181.721 3.78522 180.394 3.95735 179.329C4.11117 178.379 4.48713 177.696 4.70866 177.345C5.13566 176.67 5.61475 176.26 5.7432 176.151C6.08312 175.861 6.38256 175.684 6.42913 175.656C6.67583 175.507 6.84837 175.437 6.63859 175.534C6.52584 175.586 6.33788 175.67 6.04753 175.797C5.47117 176.048 4.57627 176.43 3.24667 176.99L5.30354 181.877Z" fill="white" fill-opacity="0.32"/>
<path d="M12.5586 172.48C13.4495 175.901 14.3405 179.321 15.2314 182.742C19.2024 181.616 23.0847 180.472 26.8799 179.311C91.4701 157.928 179.117 125.697 182.274 47.2881C181.888 43.2989 181.041 39.3592 179.611 35.6264C180.874 39.4186 181.538 43.3664 181.745 47.3273C175.21 124.016 88.6208 151.318 24.1477 169.615C20.3701 170.587 16.5076 171.543 12.5586 172.48Z" fill="white" fill-opacity="0.32"/>
</svg>
