<svg width="200" height="142" viewBox="0 0 200 142" fill="none" xmlns="http://www.w3.org/2000/svg">
<path d="M10.8101 141.103C7.89768 141.407 5.29011 139.293 4.98593 136.38L0.0291038 88.9197C-0.275072 86.0073 1.83933 83.3997 4.75176 83.0956C7.66419 82.7914 10.2718 84.9058 10.5759 87.8182L14.982 130.006L57.1693 125.599C60.0817 125.295 62.6893 127.41 62.9935 130.322C63.2977 133.235 61.1833 135.842 58.2708 136.146L10.8101 141.103ZM10.2003 127.986C12.0446 125.711 15.3836 125.362 17.6581 127.207C19.9325 129.051 20.2812 132.39 18.4369 134.664L14.3186 131.325L10.2003 127.986ZM10.2593 135.83L6.14104 132.49C7.05795 131.359 7.70906 130.564 8.15618 130.027C8.37823 129.761 8.5651 129.539 8.71671 129.365C8.79826 129.271 9.05967 128.967 9.3472 128.701C9.40614 128.646 9.67408 128.396 10.0582 128.143C10.2047 128.047 10.7358 127.699 11.507 127.477C11.9071 127.362 12.669 127.191 13.6262 127.309C14.6973 127.441 15.9368 127.936 16.9149 129.019C17.8209 130.023 18.1208 131.11 18.2222 131.779C18.3231 132.444 18.2749 132.985 18.2346 133.284C18.1555 133.871 17.9941 134.309 17.9361 134.462C17.8002 134.821 17.653 135.088 17.6129 135.161C17.4406 135.475 17.2366 135.767 17.1959 135.826C17.022 136.079 16.7782 136.417 16.5906 136.677C16.3729 136.979 16.2113 137.204 16.1194 137.338C16.0271 137.472 16.133 137.329 16.2596 137.098C16.2883 137.046 16.4273 136.795 16.5586 136.449C16.6143 136.302 16.7743 135.868 16.8527 135.285C16.8927 134.988 16.9407 134.448 16.8396 133.784C16.7381 133.116 16.438 132.03 15.5324 131.028C14.5549 129.946 13.3169 129.453 12.2478 129.321C11.2922 129.203 10.532 129.374 10.1336 129.488C9.36578 129.71 8.83896 130.055 8.69771 130.148C8.32406 130.394 8.07074 130.632 8.0308 130.669C7.81934 130.864 7.70375 131.01 7.85525 130.836C7.93666 130.742 8.06995 130.585 8.27266 130.342C8.67503 129.859 9.29171 129.106 10.2003 127.986L14.3186 131.325L18.4369 134.664C17.5199 135.795 16.8688 136.59 16.4216 137.127C16.1996 137.394 16.0127 137.615 15.861 137.79C15.7795 137.884 15.518 138.188 15.2303 138.454C15.1714 138.509 14.9033 138.759 14.5191 139.012C14.3725 139.108 13.8414 139.456 13.0703 139.678C12.6702 139.793 11.9086 139.964 10.952 139.846C9.88169 139.714 8.64272 139.22 7.66461 138.138C6.75824 137.135 6.45773 136.047 6.356 135.378C6.25475 134.713 6.30281 134.172 6.34299 133.873C6.42193 133.285 6.58341 132.847 6.6414 132.694C6.77737 132.335 6.92456 132.067 6.96469 131.994C7.13708 131.68 7.34111 131.388 7.38181 131.329C7.55581 131.076 7.79958 130.738 7.98721 130.478C8.20494 130.176 8.36655 129.951 8.4585 129.817C8.55075 129.683 8.44492 129.826 8.31841 130.056C8.28974 130.108 8.15082 130.359 8.01951 130.705C7.96387 130.852 7.80385 131.285 7.7253 131.868C7.68531 132.165 7.63711 132.704 7.73782 133.368C7.83897 134.035 8.1384 135.122 9.04382 136.125C10.0212 137.208 11.2598 137.702 12.3297 137.834C13.2857 137.951 14.0463 137.781 14.4447 137.666C15.2126 137.445 15.7395 137.099 15.8806 137.006C16.2542 136.761 16.5074 136.523 16.5473 136.486C16.7587 136.29 16.8742 136.144 16.7227 136.319C16.6413 136.412 16.508 136.569 16.3053 136.813C15.9029 137.296 15.2862 138.049 14.3777 139.169L10.2593 135.83Z" fill="white" fill-opacity="0.32"/>
<path d="M21.2215 131.216C18.1856 129.405 15.1498 127.595 12.1139 125.784C14.3034 122.286 16.4857 118.877 18.6604 115.558C57.2021 59.5041 112.773 -15.6079 188.909 3.46489C192.629 4.9542 196.174 6.86942 199.358 9.28405C196.07 7.01298 192.467 5.27101 188.723 3.96142C113.281 -11.3821 62.7538 64.0903 27.2081 120.889C25.2195 124.244 23.2238 127.686 21.2215 131.216Z" fill="#525252"/>
</svg>
