<svg width="40" height="40" viewBox="0 0 40 40" fill="none" xmlns="http://www.w3.org/2000/svg">
<path d="M20 3.3335C10.8 3.3335 3.33337 10.8002 3.33337 20.0002C3.33337 29.2002 10.8 36.6668 20 36.6668C29.2 36.6668 36.6667 29.2002 36.6667 20.0002C36.6667 10.8002 29.2 3.3335 20 3.3335ZM26.7167 17.0002L18.9333 24.7668C18.7 25.0168 18.3834 25.1335 18.05 25.1335C17.7334 25.1335 17.4167 25.0168 17.1667 24.7668L13.2834 20.8835C12.8 20.4002 12.8 19.6001 13.2834 19.1168C13.7667 18.6334 14.5667 18.6334 15.05 19.1168L18.05 22.1169L24.95 15.2335C25.4334 14.7335 26.2334 14.7335 26.7167 15.2335C27.2 15.7169 27.2 16.5002 26.7167 17.0002Z" fill="#61A146"/>
</svg>
