<svg width="56" height="56" viewBox="0 0 56 56" fill="none" xmlns="http://www.w3.org/2000/svg">
<g clip-path="url(#clip0_1646_10870)">
<path fill-rule="evenodd" clip-rule="evenodd" d="M36.5351 40.4724L39.034 42.9712L38.8718 43.1331C38.6342 43.371 38.6342 43.7564 38.8718 43.994C38.8718 43.994 45.1343 50.2565 49.3056 54.4278C49.9225 55.0448 50.7591 55.3912 51.6315 55.3912C52.5041 55.3912 53.3407 55.0448 53.9577 54.4278L54.4279 53.9576C55.0448 53.3407 55.3913 52.5041 55.3913 51.6315C55.3913 50.7591 55.0448 49.9225 54.4279 49.3055C50.2566 45.1342 43.9941 38.8717 43.9941 38.8717C43.7565 38.6341 43.371 38.6341 43.1332 38.8717L42.9712 39.0339L40.4724 36.5351C43.4058 32.7621 45.1528 28.0238 45.1528 22.8808C45.1528 10.5883 35.1731 0.608643 22.8809 0.608643C10.5884 0.608643 0.608704 10.5883 0.608704 22.8808C0.608704 35.1731 10.5884 45.1527 22.8809 45.1527C28.0239 45.1527 32.7622 43.4058 36.5351 40.4724ZM43.5636 40.1629L53.5669 50.1664C53.9555 50.555 54.1739 51.0819 54.1739 51.6315C54.1739 52.1812 53.9555 52.7081 53.5669 53.0967C53.4109 53.253 53.2531 53.4108 53.0968 53.5669C52.7082 53.9555 52.1813 54.1739 51.6315 54.1739C51.082 54.1739 50.5551 53.9555 50.1665 53.5669L40.163 43.5636L43.5636 40.1629ZM48.6504 46.6119L47.9616 45.9231C47.7239 45.6857 47.3383 45.6857 47.1006 45.9231C46.8632 46.1607 46.8632 46.5464 47.1006 46.784L47.7894 47.4728C48.0271 47.7102 48.4127 47.7102 48.6504 47.4728C48.888 47.2352 48.888 46.8495 48.6504 46.6119ZM46.3027 44.2643L43.9639 41.9257C43.7265 41.688 43.3406 41.688 43.1032 41.9257C42.8656 42.1631 42.8656 42.5487 43.1032 42.7864L45.4421 45.1252C45.6794 45.3629 46.0651 45.3629 46.3027 45.1252C46.5404 44.8876 46.5404 44.5019 46.3027 44.2643ZM22.8809 1.82603C34.5011 1.82603 43.9354 11.2603 43.9354 22.8808C43.9354 34.5011 34.5011 43.9354 22.8809 43.9354C11.2604 43.9354 1.82609 34.5011 1.82609 22.8808C1.82609 11.2603 11.2604 1.82603 22.8809 1.82603ZM22.8809 3.26499C12.0546 3.26499 3.26505 12.0546 3.26505 22.8808C3.26505 33.7071 12.0546 42.4964 22.8809 42.4964C33.7071 42.4964 42.4965 33.7071 42.4965 22.8808C42.4965 12.0546 33.7071 3.26499 22.8809 3.26499ZM39.6955 37.4798C39.0096 38.2691 38.2692 39.0095 37.4798 39.6954L39.8946 42.1102L42.1103 39.8946L39.6955 37.4798ZM22.8809 4.48238C33.0351 4.48238 41.2791 12.7263 41.2791 22.8808C41.2791 33.0351 33.0351 41.279 22.8809 41.279C12.7264 41.279 4.48244 33.0351 4.48244 22.8808C4.48244 12.7263 12.7264 4.48238 22.8809 4.48238ZM25.8632 38.4946C24.8971 38.6782 23.9001 38.7743 22.8809 38.7743C22.5449 38.7743 22.2722 39.047 22.2722 39.383C22.2722 39.719 22.5449 39.9917 22.8809 39.9917C23.9777 39.9917 25.0508 39.8883 26.0906 39.6906C26.4208 39.6277 26.6377 39.3088 26.5749 38.9789C26.5121 38.6487 26.1934 38.4318 25.8632 38.4946ZM36.2203 31.5202C34.2586 34.5407 31.2996 36.855 27.8111 37.9938C27.4919 38.098 27.317 38.4418 27.4213 38.7612C27.5257 39.0806 27.8695 39.2552 28.1889 39.151C31.9441 37.9251 35.1298 35.4346 37.2412 32.1831C37.4243 31.9014 37.344 31.5243 37.0623 31.3412C36.7806 31.1583 36.4032 31.2384 36.2203 31.5202ZM14.9457 19.1593L20.1464 24.7622V30.2468C20.1464 30.4128 20.2143 30.5716 20.3341 30.6865L24.5979 34.7699C24.7739 34.9386 25.0335 34.9858 25.2577 34.8901C25.482 34.7944 25.6276 34.5741 25.6276 34.3304V24.7622L30.8282 19.1593C30.9293 19.0504 30.9909 18.9051 30.9909 18.7451V14.8521C30.9909 14.5159 30.7184 14.2434 30.3822 14.2434H15.3917C15.0555 14.2434 14.783 14.5159 14.783 14.8521V18.7451C14.783 18.9051 14.8446 19.0504 14.9457 19.1593ZM28.9868 19.3538H16.7871L21.2014 24.1092C21.3058 24.2216 21.3638 24.3697 21.3638 24.5233V29.987L24.4102 32.9046V24.5233C24.4102 24.3697 24.4681 24.2216 24.5726 24.1092L28.9868 19.3538ZM38.7744 22.8808C38.7744 24.6015 38.5005 26.2586 37.9938 27.811C37.8896 28.1304 38.0642 28.4742 38.3834 28.5787C38.7028 28.6829 39.0469 28.5081 39.1511 28.1889C39.6967 26.5174 39.9918 24.7332 39.9918 22.8808C39.9918 22.5448 39.7191 22.2721 39.3831 22.2721C39.0471 22.2721 38.7744 22.5448 38.7744 22.8808ZM6.9871 22.8808C6.9871 22.426 7.00634 21.9756 7.04383 21.5305C7.07208 21.1957 6.82324 20.9011 6.48846 20.8728C6.15368 20.8446 5.85882 21.0934 5.83082 21.4282C5.79041 21.9071 5.76971 22.3914 5.76971 22.8808C5.76971 23.2166 6.04265 23.4895 6.37841 23.4895C6.71441 23.4895 6.9871 23.2166 6.9871 22.8808ZM7.41368 19.2101C7.64182 18.2472 7.95736 17.3181 8.35204 16.4316C8.48863 16.1248 8.35034 15.7647 8.04331 15.6281C7.73653 15.4915 7.37642 15.6298 7.23983 15.9368C6.81472 16.8915 6.47482 17.8924 6.22916 18.9296C6.15173 19.2566 6.3543 19.5848 6.68129 19.6623C7.00804 19.7397 7.33649 19.5371 7.41368 19.2101ZM29.7735 15.4608V18.1364H16.0004V15.4608H29.7735ZM9.35858 14.5293C12.1615 10.0042 17.1716 6.98704 22.8809 6.98704C23.2166 6.98704 23.4896 6.71435 23.4896 6.37835C23.4896 6.04259 23.2166 5.76965 22.8809 5.76965C16.7348 5.76965 11.341 9.01692 8.3238 13.8882C8.14679 14.1738 8.23517 14.5492 8.52077 14.7262C8.80637 14.903 9.18182 14.8149 9.35858 14.5293Z" fill="#DD5454"/>
</g>
<defs>
<clipPath id="clip0_1646_10870">
<rect width="56" height="56" fill="white"/>
</clipPath>
</defs>
</svg>
