<svg width="54" height="54" viewBox="0 0 54 54" fill="none" xmlns="http://www.w3.org/2000/svg">
<path d="M50.8333 45.8335H49.1667V19.1668C49.1667 18.2828 48.8155 17.4349 48.1904 16.8098C47.5652 16.1847 46.7174 15.8335 45.8333 15.8335H40C39.779 15.8335 39.567 15.9213 39.4107 16.0776C39.2545 16.2339 39.1667 16.4458 39.1667 16.6668C39.1667 16.8878 39.2545 17.0998 39.4107 17.2561C39.567 17.4124 39.779 17.5002 40 17.5002H45.8333C46.2754 17.5002 46.6993 17.6758 47.0118 17.9883C47.3244 18.3009 47.5 18.7248 47.5 19.1668V45.8335H45.8333V20.0002C45.8333 19.7791 45.7455 19.5672 45.5893 19.4109C45.433 19.2546 45.221 19.1668 45 19.1668H40C39.779 19.1668 39.567 19.2546 39.4107 19.4109C39.2545 19.5672 39.1667 19.7791 39.1667 20.0002C39.1667 20.2212 39.2545 20.4331 39.4107 20.5894C39.567 20.7457 39.779 20.8335 40 20.8335H44.1667V45.8335H9.16667V20.8335H13.3333C13.5544 20.8335 13.7663 20.7457 13.9226 20.5894C14.0789 20.4331 14.1667 20.2212 14.1667 20.0002C14.1667 19.7791 14.0789 19.5672 13.9226 19.4109C13.7663 19.2546 13.5544 19.1668 13.3333 19.1668H8.33334C8.11232 19.1668 7.90036 19.2546 7.74408 19.4109C7.5878 19.5672 7.5 19.7791 7.5 20.0002V45.8335H5.83334V19.1668C5.83334 18.7248 6.00893 18.3009 6.32149 17.9883C6.63405 17.6758 7.05798 17.5002 7.5 17.5002H13.3333C13.5544 17.5002 13.7663 17.4124 13.9226 17.2561C14.0789 17.0998 14.1667 16.8878 14.1667 16.6668C14.1667 16.4458 14.0789 16.2339 13.9226 16.0776C13.7663 15.9213 13.5544 15.8335 13.3333 15.8335H7.5C6.61595 15.8335 5.7681 16.1847 5.14298 16.8098C4.51786 17.4349 4.16667 18.2828 4.16667 19.1668V45.8335H2.50001C2.27899 45.8335 2.06703 45.9213 1.91075 46.0776C1.75447 46.2339 1.66667 46.4458 1.66667 46.6668C1.668 47.9925 2.1952 49.2635 3.1326 50.2009C4.06999 51.1383 5.341 51.6655 6.66667 51.6668H46.6667C47.9923 51.6655 49.2633 51.1383 50.2007 50.2009C51.1381 49.2635 51.6653 47.9925 51.6667 46.6668C51.6667 46.4458 51.5789 46.2339 51.4226 46.0776C51.2663 45.9213 51.0544 45.8335 50.8333 45.8335ZM46.6667 50.0002H6.66667C5.92787 49.9991 5.21027 49.7531 4.62613 49.3008C4.042 48.8484 3.62428 48.2152 3.43834 47.5002H49.895C49.7091 48.2152 49.2913 48.8484 48.7072 49.3008C48.1231 49.7531 47.4055 49.9991 46.6667 50.0002Z" fill="#DD5454"/>
<path d="M38.2075 22.2417C38.3952 22.0769 38.5476 21.8757 38.6555 21.6505C38.7635 21.4252 38.8247 21.1804 38.8356 20.9308C38.8465 20.6812 38.8069 20.432 38.719 20.1982C38.6311 19.9643 38.4968 19.7507 38.3242 19.5701L36.2625 17.5084C35.9234 17.1705 35.4642 16.9807 34.9854 16.9807C34.5067 16.9807 34.0474 17.1705 33.7083 17.5084L32.675 18.5417C32.6478 18.5621 32.615 18.5736 32.581 18.5748C32.5471 18.576 32.5136 18.5668 32.485 18.5484C31.7368 18.1403 30.9474 17.8129 30.13 17.5717C30.07 17.5542 30 17.5084 30 17.4351V16.1376C30.016 15.8884 29.9815 15.6386 29.8985 15.4031C29.8156 15.1676 29.6858 14.9513 29.5172 14.7673C29.3485 14.5832 29.1443 14.4351 28.917 14.3319C28.6896 14.2287 28.4438 14.1725 28.1942 14.1667H25.1392C24.6604 14.1672 24.2013 14.3576 23.8627 14.6962C23.5242 15.0347 23.3338 15.4938 23.3333 15.9726V17.4334C23.3292 17.4674 23.3144 17.4992 23.291 17.5242C23.2676 17.5492 23.2369 17.5661 23.2033 17.5726C22.3857 17.8139 21.596 18.1413 20.8475 18.5492C20.8194 18.5673 20.7864 18.5765 20.753 18.5756C20.7195 18.5747 20.6871 18.5638 20.66 18.5442L19.7433 17.6276C19.5784 17.44 19.3772 17.2877 19.152 17.1798C18.9267 17.0719 18.6819 17.0107 18.4324 16.9998C18.1828 16.9889 17.9337 17.0286 17.6998 17.1164C17.466 17.2042 17.2523 17.3384 17.0717 17.5109L15.0083 19.5709C14.6704 19.91 14.4806 20.3692 14.4806 20.848C14.4806 21.3267 14.6704 21.786 15.0083 22.1251L16.0417 23.1584C16.062 23.1856 16.0736 23.2184 16.0748 23.2524C16.0759 23.2863 16.0667 23.3198 16.0483 23.3484C15.6402 24.0966 15.3128 24.886 15.0717 25.7034C15.0542 25.7634 15.0083 25.8334 14.935 25.8334H13.6375C13.3883 25.8174 13.1385 25.8519 12.903 25.9349C12.6675 26.0179 12.4513 26.1476 12.2672 26.3163C12.0831 26.4849 11.935 26.6891 11.8318 26.9164C11.7286 27.1438 11.6724 27.3896 11.6667 27.6392V30.6942C11.6671 31.173 11.8575 31.6321 12.1961 31.9707C12.5346 32.3092 12.9937 32.4996 13.4725 32.5001H14.9333C14.9673 32.5042 14.9991 32.5191 15.0241 32.5424C15.0491 32.5658 15.0661 32.5965 15.0725 32.6301C15.3138 33.4477 15.6412 34.2374 16.0492 34.9859C16.0683 35.0137 16.0781 35.0468 16.0772 35.0805C16.0763 35.1142 16.0648 35.1467 16.0442 35.1734L15.1275 36.0901C14.7583 36.4402 14.5335 36.9159 14.4975 37.4234C14.4831 37.6694 14.5215 37.9156 14.61 38.1456C14.6986 38.3755 14.8352 38.5839 15.0108 38.7567L17.0725 40.8192C17.4117 41.157 17.8709 41.3466 18.3496 41.3466C18.8283 41.3466 19.2875 41.157 19.6267 40.8192L20.66 39.7859C20.6868 39.7646 20.7197 39.7525 20.7539 39.7513C20.7881 39.7501 20.8218 39.7599 20.85 39.7792C21.5982 40.1873 22.3876 40.5147 23.205 40.7559C23.2391 40.763 23.2699 40.7808 23.293 40.8067C23.3162 40.8327 23.3303 40.8654 23.3333 40.9001V42.3609C23.3338 42.8397 23.5242 43.2988 23.8627 43.6373C24.2013 43.9759 24.6604 44.1663 25.1392 44.1667H28.1942C28.673 44.1663 29.132 43.9759 29.4706 43.6373C29.8092 43.2988 29.9996 42.8397 30 42.3609V40.9001C30.0042 40.8661 30.019 40.8343 30.0423 40.8093C30.0657 40.7843 30.0964 40.7674 30.13 40.7609C30.9476 40.5196 31.7373 40.1922 32.4858 39.7842C32.5136 39.7651 32.5467 39.7553 32.5804 39.7562C32.6141 39.7571 32.6466 39.7687 32.6733 39.7892L33.59 40.7059C33.7548 40.8937 33.9559 41.0462 34.1812 41.1542C34.4065 41.2622 34.6513 41.3235 34.9009 41.3344C35.1506 41.3453 35.3998 41.3056 35.6336 41.2176C35.8675 41.1297 36.0811 40.9953 36.2617 40.8226L38.3225 38.7609C38.6607 38.4219 38.8506 37.9626 38.8506 37.4838C38.8506 37.005 38.6607 36.5457 38.3225 36.2067L37.2892 35.1734C37.2688 35.1462 37.2573 35.1134 37.2561 35.0795C37.2549 35.0455 37.2641 35.012 37.2825 34.9834C37.6906 34.2352 38.018 33.4458 38.2592 32.6284C38.2767 32.5684 38.3225 32.4984 38.3958 32.4984H39.6942C39.9433 32.5147 40.1932 32.4804 40.4288 32.3976C40.6643 32.3148 40.8807 32.1853 41.065 32.0168C41.2492 31.8483 41.3975 31.6442 41.5009 31.417C41.6043 31.1897 41.6607 30.9439 41.6667 30.6942V27.6392C41.6662 27.1604 41.4758 26.7014 41.1373 26.3628C40.7987 26.0243 40.3396 25.8339 39.8608 25.8334H38.4C38.366 25.8293 38.3343 25.8144 38.3092 25.7911C38.2842 25.7677 38.2673 25.737 38.2608 25.7034C38.0195 24.8858 37.6921 24.0961 37.2842 23.3476C37.265 23.3198 37.2552 23.2867 37.2561 23.253C37.257 23.2193 37.2686 23.1868 37.2892 23.1601L38.2075 22.2417ZM38.4 27.5001H39.8608C39.8791 27.5001 39.8972 27.5037 39.9141 27.5107C39.931 27.5177 39.9463 27.5279 39.9592 27.5408C39.9722 27.5538 39.9824 27.5691 39.9894 27.586C39.9964 27.6029 40 27.621 40 27.6392V30.6942C40 30.8292 39.7267 30.8334 39.6958 30.8334H38.3975C38.0033 30.8353 37.6205 30.9659 37.3072 31.2052C36.9939 31.4444 36.7673 31.7794 36.6617 32.1592C36.4547 32.8628 36.1731 33.5422 35.8217 34.1859C35.6276 34.5295 35.551 34.927 35.6035 35.3181C35.656 35.7091 35.8347 36.0724 36.1125 36.3526L37.1458 37.3851C37.1719 37.4113 37.1866 37.4468 37.1866 37.4838C37.1866 37.5208 37.1719 37.5563 37.1458 37.5826L35.0833 39.6459C34.9867 39.7409 34.7917 39.5517 34.7692 39.5292L33.8525 38.6126C33.5723 38.3348 33.209 38.1561 32.8179 38.1038C32.4268 38.0514 32.0293 38.1283 31.6858 38.3226C31.042 38.6744 30.3623 38.9563 29.6583 39.1634C29.2787 39.2694 28.9439 39.4963 28.7048 39.8097C28.4657 40.1231 28.3353 40.5059 28.3333 40.9001V42.3609C28.3333 42.3978 28.3187 42.4332 28.2926 42.4593C28.2665 42.4854 28.2311 42.5001 28.1942 42.5001H25.1392C25.1023 42.5001 25.0669 42.4854 25.0408 42.4593C25.0147 42.4332 25 42.3978 25 42.3609V40.9001C24.9983 40.5055 24.868 40.1223 24.6287 39.8085C24.3894 39.4948 24.0543 39.2677 23.6742 39.1617C22.9706 38.9547 22.2912 38.6731 21.6475 38.3217C21.3714 38.1692 21.0613 38.0889 20.7458 38.0884C20.5106 38.088 20.2775 38.134 20.0602 38.224C19.8428 38.3139 19.6453 38.446 19.4792 38.6126L18.4467 39.6459C18.4202 39.6719 18.3846 39.6864 18.3475 39.6864C18.3104 39.6864 18.2748 39.6719 18.2483 39.6459L16.16 37.5176C16.1758 37.4194 16.2271 37.3304 16.3042 37.2676L17.2208 36.3509C17.4988 36.0708 17.6775 35.7074 17.7299 35.3163C17.7822 34.9252 17.7053 34.5276 17.5108 34.1842C17.159 33.5404 16.8771 32.8607 16.67 32.1567C16.5637 31.7774 16.3367 31.443 16.0233 31.2042C15.7099 30.9655 15.3273 30.8353 14.9333 30.8334H13.4725C13.4356 30.8334 13.4002 30.8188 13.3741 30.7927C13.348 30.7666 13.3333 30.7312 13.3333 30.6942V27.6392C13.3333 27.5042 13.6067 27.5001 13.6375 27.5001H14.9358C15.3301 27.4982 15.7129 27.3676 16.0262 27.1283C16.3394 26.8891 16.5661 26.5541 16.6717 26.1742C16.8787 25.4707 17.1603 24.7913 17.5117 24.1476C17.7058 23.804 17.7824 23.4065 17.7299 23.0154C17.6774 22.6244 17.4987 22.2611 17.2208 21.9809L16.1875 20.9484C16.1615 20.9219 16.147 20.8863 16.147 20.8492C16.147 20.8122 16.1615 20.7766 16.1875 20.7501L18.25 18.6876C18.3483 18.5934 18.5425 18.7826 18.5642 18.8042L19.4808 19.7209C19.7609 19.9991 20.1242 20.178 20.5154 20.2304C20.9066 20.2827 21.3042 20.2057 21.6475 20.0109C22.2914 19.6591 22.9711 19.3772 23.675 19.1701C24.0547 19.0641 24.3894 18.8372 24.6285 18.5238C24.8676 18.2104 24.998 17.8276 25 17.4334V15.9726C25 15.9543 25.0036 15.9362 25.0106 15.9193C25.0176 15.9024 25.0278 15.8871 25.0408 15.8742C25.0537 15.8613 25.069 15.851 25.0859 15.844C25.1028 15.837 25.1209 15.8334 25.1392 15.8334H28.1942C28.3292 15.8334 28.3333 16.1067 28.3333 16.1376V17.4359C28.3353 17.8301 28.4658 18.2129 28.7051 18.5262C28.9444 18.8395 29.2794 19.0662 29.6592 19.1717C30.3627 19.3788 31.0421 19.6604 31.6858 20.0117C32.0293 20.206 32.4269 20.2827 32.818 20.2302C33.2091 20.1777 33.5724 19.9989 33.8525 19.7209L34.885 18.6876C34.9115 18.6616 34.9471 18.6471 34.9842 18.6471C35.0213 18.6471 35.0569 18.6616 35.0833 18.6876L37.1458 20.7501C37.2417 20.8467 37.0517 21.0426 37.0292 21.0642L36.1125 21.9809C35.8346 22.2611 35.6558 22.6244 35.6035 23.0155C35.5511 23.4067 35.628 23.8042 35.8225 24.1476C36.1744 24.7915 36.4562 25.4712 36.6633 26.1751C36.7694 26.5547 36.9963 26.8895 37.3096 27.1286C37.623 27.3677 38.0058 27.4981 38.4 27.5001Z" fill="#DD5454"/>
<path d="M26.6667 20.8335C25.0185 20.8335 23.4073 21.3222 22.0369 22.2379C20.6665 23.1536 19.5984 24.4551 18.9677 25.9778C18.337 27.5005 18.1719 29.1761 18.4935 30.7926C18.815 32.4091 19.6087 33.8939 20.7741 35.0594C21.9396 36.2248 23.4244 37.0185 25.0409 37.34C26.6574 37.6616 28.333 37.4966 29.8557 36.8658C31.3784 36.2351 32.6799 35.167 33.5956 33.7966C34.5113 32.4262 35 30.815 35 29.1668C34.9976 26.9574 34.1188 24.8392 32.5566 23.277C30.9943 21.7147 28.8761 20.8359 26.6667 20.8335ZM26.6667 35.8335C25.3481 35.8335 24.0592 35.4425 22.9629 34.71C21.8666 33.9774 21.0121 32.9362 20.5075 31.7181C20.0029 30.4999 19.8709 29.1594 20.1281 27.8662C20.3853 26.573 21.0203 25.3851 21.9526 24.4528C22.885 23.5204 24.0729 22.8855 25.3661 22.6283C26.6593 22.371 27.9997 22.503 29.2179 23.0076C30.4361 23.5122 31.4773 24.3667 32.2098 25.463C32.9424 26.5594 33.3333 27.8483 33.3333 29.1668C33.3314 30.9343 32.6283 32.6289 31.3785 33.8787C30.1287 35.1285 28.4342 35.8315 26.6667 35.8335Z" fill="#DD5454"/>
<path d="M5.00002 8.33346C5.73687 8.3307 6.45203 8.08387 7.03371 7.63155C7.6154 7.17923 8.03081 6.54692 8.21502 5.83346H12.5V13.3335C12.5 13.5545 12.5878 13.7664 12.7441 13.9227C12.9004 14.079 13.1123 14.1668 13.3334 14.1668C13.5544 14.1668 13.7663 14.079 13.9226 13.9227C14.0789 13.7664 14.1667 13.5545 14.1667 13.3335V5.00013C14.1667 4.77912 14.0789 4.56716 13.9226 4.41088C13.7663 4.25459 13.5544 4.1668 13.3334 4.1668H8.21502C8.05809 3.56467 7.73548 3.0186 7.2838 2.59061C6.83213 2.16261 6.2695 1.86984 5.65979 1.74554C5.05009 1.62123 4.41775 1.67038 3.83457 1.88739C3.2514 2.10441 2.74076 2.48059 2.36064 2.97324C1.98051 3.46588 1.74614 4.05523 1.68414 4.67438C1.62213 5.29353 1.73497 5.91766 2.00985 6.4759C2.28473 7.03413 2.71062 7.50411 3.23918 7.83247C3.76774 8.16082 4.37778 8.33439 5.00002 8.33346ZM5.00002 3.33346C5.32965 3.33346 5.65189 3.43121 5.92597 3.61435C6.20005 3.79748 6.41367 4.05778 6.53982 4.36232C6.66597 4.66687 6.69897 5.00198 6.63466 5.32528C6.57035 5.64858 6.41162 5.94555 6.17853 6.17864C5.94544 6.41173 5.64847 6.57046 5.32517 6.63477C5.00187 6.69908 4.66676 6.66608 4.36221 6.53993C4.05767 6.41378 3.79737 6.20016 3.61424 5.92608C3.4311 5.652 3.33335 5.32977 3.33335 5.00013C3.33335 4.5581 3.50895 4.13418 3.82151 3.82162C4.13407 3.50906 4.55799 3.33346 5.00002 3.33346Z" fill="#DD5454"/>
<path d="M26.6667 12.5001C26.8877 12.5001 27.0997 12.4123 27.2559 12.256C27.4122 12.0998 27.5 11.8878 27.5 11.6668V8.21512C28.2856 8.01229 28.9702 7.52992 29.4255 6.85844C29.8809 6.18696 30.0757 5.37246 29.9735 4.56762C29.8712 3.76277 29.479 3.02284 28.8702 2.48651C28.2615 1.95019 27.478 1.6543 26.6667 1.6543C25.8554 1.6543 25.0719 1.95019 24.4632 2.48651C23.8544 3.02284 23.4621 3.76277 23.3599 4.56762C23.2577 5.37246 23.4525 6.18696 23.9078 6.85844C24.3632 7.52992 25.0478 8.01229 25.8334 8.21512V11.6668C25.8334 11.8878 25.9211 12.0998 26.0774 12.256C26.2337 12.4123 26.4457 12.5001 26.6667 12.5001ZM25 5.00012C25 4.67048 25.0978 4.34825 25.2809 4.07417C25.464 3.80008 25.7243 3.58646 26.0289 3.46032C26.3334 3.33417 26.6685 3.30117 26.9918 3.36547C27.3151 3.42978 27.6121 3.58852 27.8452 3.8216C28.0783 4.05469 28.237 4.35166 28.3013 4.67497C28.3656 4.99827 28.3326 5.33338 28.2065 5.63792C28.0803 5.94247 27.8667 6.20276 27.5926 6.3859C27.3186 6.56903 26.9963 6.66678 26.6667 6.66678C26.2247 6.66678 25.8007 6.49119 25.4882 6.17863C25.1756 5.86607 25 5.44214 25 5.00012Z" fill="#DD5454"/>
<path d="M48.3333 1.66675C47.5965 1.66951 46.8813 1.91635 46.2996 2.36867C45.718 2.82099 45.3025 3.4533 45.1183 4.16675H40C39.779 4.16675 39.567 4.25455 39.4107 4.41083C39.2545 4.56711 39.1667 4.77907 39.1667 5.00008V13.3334C39.1667 13.5544 39.2545 13.7664 39.4107 13.9227C39.567 14.079 39.779 14.1668 40 14.1668C40.221 14.1668 40.433 14.079 40.5893 13.9227C40.7455 13.7664 40.8333 13.5544 40.8333 13.3334V5.83342H45.1183C45.2753 6.43555 45.5979 6.98162 46.0496 7.40961C46.5012 7.8376 47.0639 8.13037 47.6736 8.25468C48.2833 8.37898 48.9156 8.32984 49.4988 8.11282C50.082 7.89581 50.5926 7.51962 50.9727 7.02698C51.3528 6.53434 51.5872 5.94498 51.6492 5.32583C51.7112 4.70669 51.5984 4.08256 51.3235 3.52432C51.0486 2.96608 50.6227 2.4961 50.0942 2.16775C49.5656 1.8394 48.9556 1.66583 48.3333 1.66675ZM48.3333 6.66675C48.0037 6.66675 47.6815 6.569 47.4074 6.38587C47.1333 6.20273 46.9197 5.94243 46.7935 5.63789C46.6674 5.33335 46.6344 4.99824 46.6987 4.67493C46.763 4.35163 46.9217 4.05466 47.1548 3.82157C47.3879 3.58849 47.6849 3.42975 48.0082 3.36544C48.3315 3.30113 48.6666 3.33414 48.9711 3.46029C49.2757 3.58643 49.536 3.80005 49.7191 4.07413C49.9023 4.34822 50 4.67045 50 5.00008C50 5.44211 49.8244 5.86604 49.5119 6.1786C49.1993 6.49116 48.7754 6.66675 48.3333 6.66675Z" fill="#DD5454"/>
</svg>
