<svg width="56" height="56" viewBox="0 0 56 56" fill="none" xmlns="http://www.w3.org/2000/svg">
<path d="M49.6007 46.1319H6.8813C4.74146 46.1319 3 44.3904 3 42.2506V12.8813C3 10.7415 4.74146 9 6.8813 9H49.5995C51.7394 9 53.4808 10.7415 53.4808 12.8813V42.2506C53.482 44.3904 51.7405 46.1319 49.6007 46.1319ZM6.8813 10.3101C5.46423 10.3101 4.31122 11.4631 4.31122 12.8802V42.2494C4.31122 43.6665 5.46423 44.8195 6.8813 44.8195H49.5995C51.0166 44.8195 52.1696 43.6665 52.1696 42.2494V12.8813C52.1696 11.4642 51.0166 10.3112 49.5995 10.3112H6.8813V10.3101Z" fill="#DD5454"/>
<path d="M9.56863 14.8163H7.43448C7.07253 14.8163 6.77887 14.5227 6.77887 14.1607C6.77887 13.7988 7.07253 13.5051 7.43448 13.5051H9.56863C9.93058 13.5051 10.2242 13.7988 10.2242 14.1607C10.2242 14.5227 9.93058 14.8163 9.56863 14.8163Z" fill="#DD5454"/>
<path d="M15.0741 14.8163H12.94C12.578 14.8163 12.2844 14.5227 12.2844 14.1607C12.2844 13.7988 12.578 13.5051 12.94 13.5051H15.0741C15.4361 13.5051 15.7297 13.7988 15.7297 14.1607C15.7297 14.5227 15.4361 14.8163 15.0741 14.8163Z" fill="#DD5454"/>
<path d="M20.5808 14.8163H18.4467C18.0847 14.8163 17.7911 14.5227 17.7911 14.1607C17.7911 13.7988 18.0847 13.5051 18.4467 13.5051H20.5808C20.9428 13.5051 21.2364 13.7988 21.2364 14.1607C21.2364 14.5227 20.9428 14.8163 20.5808 14.8163Z" fill="#DD5454"/>
<path d="M46.4467 12.8688H32.9156C32.5537 12.8688 32.26 12.5752 32.26 12.2132C32.26 11.8513 32.5537 11.5576 32.9156 11.5576H46.4467C46.8086 11.5576 47.1023 11.8513 47.1023 12.2132C47.1023 12.5752 46.8086 12.8688 46.4467 12.8688Z" fill="#DD5454"/>
<path d="M28.241 19.3213H3.65561C3.29366 19.3213 3 19.0276 3 18.6656C3 18.3037 3.29366 18.01 3.65561 18.01H27.5854V14.7718C27.5854 14.4099 27.879 14.1162 28.241 14.1162H52.8263C53.1883 14.1162 53.4819 14.4099 53.4819 14.7718C53.4819 15.1338 53.1883 15.4274 52.8263 15.4274H28.8966V18.6656C28.8966 19.0276 28.6029 19.3213 28.241 19.3213Z" fill="#DD5454"/>
<path d="M31.6214 42.9779H28.6268C28.2648 42.9779 27.9712 42.6842 27.9712 42.3223V33.9883C27.9712 33.1597 28.645 32.4858 29.4736 32.4858H30.7757C31.6044 32.4858 32.2782 33.1597 32.2782 33.9883V42.3223C32.277 42.6842 31.9834 42.9779 31.6214 42.9779ZM29.2813 41.6667H30.9647V33.9883C30.9647 33.8847 30.877 33.7971 30.7735 33.7971H29.4714C29.3678 33.7971 29.2801 33.8847 29.2801 33.9883V41.6667H29.2813Z" fill="#DD5454"/>
<path d="M37.8065 42.9779H34.8119C34.4499 42.9779 34.1562 42.6842 34.1562 42.3222V31.384C34.1562 30.5554 34.8301 29.8816 35.6587 29.8816H36.9608C37.7894 29.8816 38.4632 30.5554 38.4632 31.384V42.3222C38.4621 42.6842 38.1684 42.9779 37.8065 42.9779ZM35.4675 41.6666H37.1509V31.384C37.1509 31.2805 37.0632 31.1928 36.9597 31.1928H35.6576C35.554 31.1928 35.4663 31.2805 35.4663 31.384V41.6666H35.4675Z" fill="#DD5454"/>
<path d="M43.9916 42.9778H40.9969C40.635 42.9778 40.3413 42.6841 40.3413 42.3222V29.8201C40.3413 28.9914 41.0151 28.3176 41.8437 28.3176H43.1459C43.9745 28.3176 44.6483 28.9914 44.6483 29.8201V42.321C44.6472 42.6841 44.3546 42.9778 43.9916 42.9778ZM41.6525 41.6666H43.3359V29.8201C43.3359 29.7165 43.2483 29.6288 43.1447 29.6288H41.8426C41.739 29.6288 41.6514 29.7165 41.6514 29.8201V41.6666H41.6525Z" fill="#DD5454"/>
<path d="M45.8024 42.9777H26.8159C26.4539 42.9777 26.1603 42.6841 26.1603 42.3221C26.1603 41.9602 26.4539 41.6665 26.8159 41.6665H45.8024C46.1643 41.6665 46.458 41.9602 46.458 42.3221C46.458 42.6841 46.1643 42.9777 45.8024 42.9777Z" fill="#DD5454"/>
<path d="M15.6034 44.0647C14.8044 44.0647 14.1397 43.4774 14.019 42.7114C13.3452 42.5475 12.6953 42.2789 12.1011 41.9169C11.474 42.3734 10.5884 42.3187 10.0239 41.7542C9.72112 41.4514 9.55494 41.0485 9.55494 40.6194C9.55494 40.2756 9.66193 39.9478 9.85998 39.6758C9.49803 39.0817 9.22828 38.4329 9.06551 37.7579C8.2995 37.6373 7.71332 36.9726 7.71332 36.1735C7.71332 35.3745 8.30063 34.7098 9.06665 34.5891C9.23055 33.9142 9.49917 33.2654 9.86112 32.6713C9.4047 32.0441 9.45933 31.1586 10.025 30.594C10.3278 30.2913 10.7296 30.1251 11.1598 30.1251C11.5036 30.1251 11.8314 30.2321 12.1034 30.4301C12.6975 30.0682 13.3463 29.7984 14.0213 29.6356C14.1419 28.8696 14.8067 28.2834 15.6057 28.2834C16.4047 28.2834 17.0694 28.8708 17.1901 29.6356C17.8639 29.7995 18.5138 30.0682 19.108 30.4301C19.7351 29.9737 20.6206 30.0283 21.1852 30.594C21.7509 31.1597 21.8044 32.0441 21.3491 32.6713C21.711 33.2654 21.9808 33.9142 22.1436 34.5891C22.9096 34.7098 23.4958 35.3745 23.4958 36.1735C23.4958 36.9726 22.9084 37.6373 22.1424 37.7579C21.9785 38.4317 21.7099 39.0817 21.348 39.6758C21.546 39.9478 21.653 40.2745 21.653 40.6194C21.653 41.0485 21.4868 41.4514 21.184 41.7542C20.6184 42.3187 19.734 42.3734 19.1068 41.9181C18.5127 42.28 17.8639 42.5498 17.1889 42.7126C17.0671 43.4774 16.4024 44.0647 15.6034 44.0647ZM12.034 40.4282C12.1683 40.4282 12.3037 40.4691 12.4198 40.5534C13.1096 41.0553 13.9166 41.3899 14.7566 41.522C15.0753 41.5721 15.3109 41.8464 15.3109 42.1696V42.4599C15.3109 42.6192 15.4452 42.7524 15.6034 42.7524C15.7627 42.7524 15.8959 42.6181 15.8959 42.4599V42.1708C15.8959 41.8475 16.1304 41.5732 16.4502 41.5231C17.2891 41.3911 18.0972 41.0565 18.787 40.5545C19.0476 40.3644 19.4084 40.3929 19.6372 40.6205L19.8421 40.8254C19.9536 40.9369 20.1437 40.9369 20.2564 40.8254C20.3304 40.7514 20.3406 40.6638 20.3406 40.6182C20.3406 40.5727 20.3293 40.4851 20.2564 40.4111L20.0504 40.2051C19.8227 39.9774 19.7943 39.6166 19.9844 39.356C20.4863 38.6662 20.821 37.8592 20.953 37.0192C21.0031 36.7005 21.2774 36.4649 21.6006 36.4649H21.8909C22.0502 36.4649 22.1834 36.3306 22.1834 36.1724C22.1834 36.0142 22.0491 35.8799 21.8909 35.8799H21.6018C21.2785 35.8799 21.0042 35.6454 20.9541 35.3256C20.8221 34.4856 20.4875 33.6786 19.9855 32.9888C19.7954 32.7282 19.8239 32.3673 20.0515 32.1397L20.2564 31.9348C20.3691 31.8221 20.3691 31.6332 20.2564 31.5205C20.1437 31.4078 19.9548 31.4078 19.8421 31.5205L19.6372 31.7254C19.4096 31.953 19.0488 31.9815 18.7881 31.7914C18.0984 31.2895 17.2902 30.9548 16.4514 30.8228C16.1327 30.7727 15.8971 30.4984 15.8971 30.1752V29.8849C15.8971 29.7267 15.7627 29.5924 15.6045 29.5924C15.4463 29.5924 15.312 29.7267 15.312 29.8849V30.1752C15.312 30.4984 15.0775 30.7727 14.7577 30.8228C13.9188 30.9548 13.1107 31.2895 12.421 31.7914C12.1603 31.9815 11.7995 31.953 11.5719 31.7254L11.367 31.5205C11.293 31.4465 11.2054 31.4363 11.1598 31.4363C11.1143 31.4363 11.0267 31.4477 10.9527 31.5205C10.84 31.6332 10.84 31.8221 10.9527 31.9348L11.1575 32.1397C11.3863 32.3673 11.4136 32.7282 11.2236 32.9888C10.7216 33.6774 10.387 34.4856 10.2549 35.3256C10.2049 35.6443 9.93055 35.8799 9.6073 35.8799H9.31706C9.15771 35.8799 9.02454 36.0142 9.02454 36.1724C9.02454 36.3306 9.15885 36.4649 9.31706 36.4649H9.60616C9.92941 36.4649 10.2037 36.6994 10.2538 37.0192C10.3858 37.8592 10.7205 38.6662 11.2224 39.356C11.4125 39.6166 11.384 39.9774 11.1564 40.2051L10.9515 40.41C10.8775 40.4839 10.8673 40.5716 10.8673 40.6171C10.8673 40.6626 10.8787 40.7503 10.9515 40.8243C11.0642 40.9369 11.2532 40.9369 11.3658 40.8243L11.5707 40.6194C11.6971 40.493 11.8655 40.4282 12.034 40.4282Z" fill="#DD5454"/>
<path d="M15.6034 40.138C13.4181 40.138 11.639 38.3601 11.639 36.1736C11.639 33.9871 13.4169 32.2092 15.6034 32.2092C17.7899 32.2092 19.5678 33.9871 19.5678 36.1736C19.5678 38.3601 17.7888 40.138 15.6034 40.138ZM15.6034 33.5204C14.1408 33.5204 12.9503 34.711 12.9503 36.1736C12.9503 37.6362 14.1408 38.8268 15.6034 38.8268C17.066 38.8268 18.2566 37.6362 18.2566 36.1736C18.2566 34.711 17.066 33.5204 15.6034 33.5204Z" fill="#DD5454"/>
<path d="M32.3317 27.7736C31.9697 27.7736 31.6761 27.4799 31.6761 27.118V26.0151C31.6761 25.6531 31.9697 25.3594 32.3317 25.3594C32.6936 25.3594 32.9873 25.6531 32.9873 26.0151V27.118C32.9873 27.4799 32.6936 27.7736 32.3317 27.7736ZM32.3317 23.6578C31.9697 23.6578 31.6761 23.3642 31.6761 23.0022V18.1671C31.6761 17.8051 31.9697 17.5115 32.3317 17.5115C32.6936 17.5115 32.9873 17.8051 32.9873 18.1671V23.0022C32.9873 23.3642 32.6936 23.6578 32.3317 23.6578Z" fill="#DD5454"/>
<path d="M33.3459 26.6706H31.3164C30.8646 26.6706 30.498 26.3029 30.498 25.8522V23.166C30.498 22.7142 30.8657 22.3477 31.3164 22.3477H33.3459C33.7977 22.3477 34.1642 22.7153 34.1642 23.166V25.8522C34.1654 26.3029 33.7977 26.6706 33.3459 26.6706ZM31.8093 25.3594H32.8541V23.6577H31.8093V25.3594Z" fill="#DD5454"/>
<path d="M21.7281 22.2043H8.66715C8.30519 22.2043 8.01154 21.9106 8.01154 21.5487C8.01154 21.1867 8.30519 20.8931 8.66715 20.8931H21.7281C22.0901 20.8931 22.3837 21.1867 22.3837 21.5487C22.3837 21.9106 22.0912 22.2043 21.7281 22.2043Z" fill="#DD5454"/>
<path d="M21.7281 25.0873H8.66715C8.30519 25.0873 8.01154 24.7937 8.01154 24.4317C8.01154 24.0698 8.30519 23.7761 8.66715 23.7761H21.7281C22.0901 23.7761 22.3837 24.0698 22.3837 24.4317C22.3837 24.7937 22.0912 25.0873 21.7281 25.0873Z" fill="#DD5454"/>
<path d="M14.0031 27.9704H8.66715C8.30519 27.9704 8.01154 27.6767 8.01154 27.3148C8.01154 26.9528 8.30519 26.6592 8.66715 26.6592H14.0031C14.365 26.6592 14.6587 26.9528 14.6587 27.3148C14.6587 27.6767 14.365 27.9704 14.0031 27.9704Z" fill="#DD5454"/>
<path d="M37.1998 27.7736C36.8378 27.7736 36.5442 27.4799 36.5442 27.118V23.4233C36.5442 23.0614 36.8378 22.7677 37.1998 22.7677C37.5618 22.7677 37.8554 23.0614 37.8554 23.4233V27.118C37.8554 27.4799 37.5618 27.7736 37.1998 27.7736ZM37.1998 21.0661C36.8378 21.0661 36.5442 20.7725 36.5442 20.4105V18.1671C36.5442 17.8051 36.8378 17.5115 37.1998 17.5115C37.5618 17.5115 37.8554 17.8051 37.8554 18.1671V20.4105C37.8554 20.7725 37.5618 21.0661 37.1998 21.0661Z" fill="#DD5454"/>
<path d="M38.214 24.0778H36.1845C35.7327 24.0778 35.3661 23.7102 35.3661 23.2594V20.5733C35.3661 20.1214 35.7338 19.7549 36.1845 19.7549H38.214C38.6658 19.7549 39.0323 20.1225 39.0323 20.5733V23.2594C39.0335 23.7102 38.6658 24.0778 38.214 24.0778ZM36.6774 22.7666H37.7222V21.065H36.6774V22.7666Z" fill="#DD5454"/>
<path d="M42.068 27.7736C41.706 27.7736 41.4124 27.4799 41.4124 27.118V26.0151C41.4124 25.6531 41.706 25.3594 42.068 25.3594C42.4299 25.3594 42.7236 25.6531 42.7236 26.0151V27.118C42.7236 27.4799 42.4299 27.7736 42.068 27.7736ZM42.068 23.6578C41.706 23.6578 41.4124 23.3642 41.4124 23.0022V18.1671C41.4124 17.8051 41.706 17.5115 42.068 17.5115C42.4299 17.5115 42.7236 17.8051 42.7236 18.1671V23.0022C42.7236 23.3642 42.4299 23.6578 42.068 23.6578Z" fill="#DD5454"/>
<path d="M43.0832 26.6706H41.0538C40.6019 26.6706 40.2354 26.3029 40.2354 25.8522V23.166C40.2354 22.7142 40.6031 22.3477 41.0538 22.3477H43.0832C43.5351 22.3477 43.9016 22.7153 43.9016 23.166V25.8522C43.9016 26.3029 43.5339 26.6706 43.0832 26.6706ZM41.5455 25.3594H42.5904V23.6577H41.5455V25.3594Z" fill="#DD5454"/>
<path d="M46.9361 27.7736C46.5741 27.7736 46.2805 27.4799 46.2805 27.118V23.4233C46.2805 23.0614 46.5741 22.7677 46.9361 22.7677C47.298 22.7677 47.5917 23.0614 47.5917 23.4233V27.118C47.5917 27.4799 47.298 27.7736 46.9361 27.7736ZM46.9361 21.0661C46.5741 21.0661 46.2805 20.7725 46.2805 20.4105V18.1671C46.2805 17.8051 46.5741 17.5115 46.9361 17.5115C47.298 17.5115 47.5917 17.8051 47.5917 18.1671V20.4105C47.5917 20.7725 47.298 21.0661 46.9361 21.0661Z" fill="#DD5454"/>
<path d="M47.9514 24.0778H45.922C45.4701 24.0778 45.1036 23.7102 45.1036 23.2594V20.5733C45.1036 20.1214 45.4712 19.7549 45.922 19.7549H47.9514C48.4033 19.7549 48.7698 20.1225 48.7698 20.5733V23.2594C48.7698 23.7102 48.4021 24.0778 47.9514 24.0778ZM46.4137 22.7666H47.4585V21.065H46.4137V22.7666Z" fill="#DD5454"/>
</svg>
