<svg width="54" height="54" viewBox="0 0 54 54" fill="none" xmlns="http://www.w3.org/2000/svg">
<g clip-path="url(#clip0_1235_1720)">
<path d="M40 53.3333C39.8534 53.3333 39.7067 53.3045 39.5689 53.2445C39.04 53.0245 26.6667 47.6756 26.6667 36.7467V27.46C26.6667 26.9845 26.9711 26.56 27.4222 26.4067L39.6445 22.28C39.8756 22.2022 40.1267 22.2022 40.3556 22.28L52.5778 26.4067C53.0289 26.5578 53.3334 26.9822 53.3334 27.46V36.7467C53.3334 47.6756 40.96 53.0245 40.4311 53.2467C40.2934 53.3045 40.1467 53.3333 40 53.3333ZM28.8889 28.2578V36.7467C28.8889 45.1578 37.9 49.9867 40 51C42.0978 49.9845 51.1111 45.1378 51.1111 36.7467V28.2578L40 24.5067L28.8889 28.2578Z" fill="#DD5454"/>
<path d="M38.8889 42.2222C38.8689 42.2222 38.8467 42.2222 38.8289 42.22C38.5111 42.2022 38.22 42.0511 38.0222 41.8045L33.5778 36.2489C33.1956 35.7689 33.2711 35.0711 33.7511 34.6867C34.2356 34.3045 34.9333 34.3845 35.3133 34.86L38.98 39.4467L45.88 32.5467C46.3134 32.1133 47.0178 32.1133 47.4511 32.5467C47.8845 32.98 47.8845 33.6845 47.4511 34.1178L39.6734 41.8956C39.4667 42.1067 39.1822 42.2222 38.8889 42.2222Z" fill="#DD5454"/>
<path d="M23.3333 46.6667H5.55556C2.49111 46.6667 0 44.1733 0 41.1111V5.55556C0 2.49333 2.49111 0 5.55556 0H30C33.0644 0 35.5556 2.49333 35.5556 5.55556V16.6667C35.5556 17.28 35.0578 17.7778 34.4444 17.7778C33.8311 17.7778 33.3333 17.28 33.3333 16.6667V5.55556C33.3333 3.71778 31.8378 2.22222 30 2.22222H5.55556C3.71778 2.22222 2.22222 3.71778 2.22222 5.55556V41.1111C2.22222 42.9489 3.71778 44.4444 5.55556 44.4444H23.3333C23.9467 44.4444 24.4444 44.9422 24.4444 45.5556C24.4444 46.1689 23.9467 46.6667 23.3333 46.6667Z" fill="#DD5454"/>
<path d="M7.7778 28.889C7.49336 28.889 7.20892 28.7802 6.99114 28.5646C6.5578 28.1313 6.5578 27.4268 6.99114 26.9935L12.5467 21.4379C12.8822 21.0979 13.4022 21.0179 13.8289 21.229L17.5578 23.0935L24.7689 15.8824C25.2022 15.449 25.9067 15.449 26.34 15.8824C26.7734 16.3157 26.7734 17.0202 26.34 17.4535L18.5622 25.2313C18.2245 25.569 17.7067 25.6535 17.28 25.4402L13.5511 23.5757L8.56225 28.5646C8.34669 28.7802 8.06225 28.889 7.7778 28.889Z" fill="#DD5454"/>
<path d="M25.5555 24.4446C24.9422 24.4446 24.4444 23.9468 24.4444 23.3334V17.7779H18.8889C18.2755 17.7779 17.7778 17.2801 17.7778 16.6668C17.7778 16.0534 18.2755 15.5557 18.8889 15.5557H25.5555C26.1689 15.5557 26.6667 16.0534 26.6667 16.6668V23.3334C26.6667 23.9468 26.1689 24.4446 25.5555 24.4446Z" fill="#DD5454"/>
</g>
<defs>
<clipPath id="clip0_1235_1720">
<rect width="53.3333" height="53.3333" fill="white"/>
</clipPath>
</defs>
</svg>
