<svg width="56" height="56" viewBox="0 0 56 56" fill="none" xmlns="http://www.w3.org/2000/svg">
<path d="M51.625 29.9401C51.7399 29.9402 51.8537 29.9175 51.9599 29.8736C52.0661 29.8296 52.1625 29.7652 52.2438 29.6839C52.325 29.6027 52.3895 29.5062 52.4335 29.4C52.4774 29.2938 52.5 29.18 52.5 29.0651V18.0366C52.5005 17.3256 52.2189 16.6434 51.717 16.1398C51.2151 15.6361 50.5339 15.3521 49.8229 15.3501H33.25V8.4082C33.2491 7.69777 32.9665 7.01668 32.4642 6.51433C31.9618 6.01197 31.2807 5.72937 30.5703 5.72852H6.17969C5.46925 5.72937 4.78816 6.01197 4.28581 6.51433C3.78346 7.01668 3.50086 7.69777 3.5 8.4082V10.8721C3.5 11.1042 3.59219 11.3267 3.75628 11.4908C3.92038 11.6549 4.14294 11.7471 4.375 11.7471C4.60706 11.7471 4.82962 11.6549 4.99372 11.4908C5.15781 11.3267 5.25 11.1042 5.25 10.8721V8.4082C5.25026 8.16171 5.34829 7.92539 5.52258 7.7511C5.69688 7.5768 5.9332 7.47877 6.17969 7.47852H30.5703C30.8168 7.47877 31.0531 7.5768 31.2274 7.7511C31.4017 7.92539 31.4997 8.16171 31.5 8.4082V24.6504C31.4997 24.8969 31.4017 25.1332 31.2274 25.3075C31.0531 25.4818 30.8168 25.5798 30.5703 25.5801H12.4961C12.2973 25.58 12.1044 25.6477 11.9492 25.7719L8.85938 28.244V26.4551C8.85941 26.3402 8.83679 26.2264 8.79283 26.1202C8.74887 26.014 8.68442 25.9175 8.60316 25.8363C8.5219 25.755 8.42543 25.6906 8.31926 25.6466C8.21309 25.6027 8.09929 25.58 7.98438 25.5801H6.17969C5.9332 25.5798 5.69688 25.4818 5.52258 25.3075C5.34829 25.1332 5.25026 24.8969 5.25 24.6504V14.3721C5.25 14.1401 5.15781 13.9175 4.99372 13.7534C4.82962 13.5893 4.60706 13.4971 4.375 13.4971C4.14294 13.4971 3.92038 13.5893 3.75628 13.7534C3.59219 13.9175 3.5 14.1401 3.5 14.3721V24.6504C3.50086 25.3608 3.78346 26.0419 4.28581 26.5443C4.78817 27.0466 5.46925 27.3292 6.17969 27.3301H7.10938V30.0645C7.1094 30.2293 7.15598 30.3908 7.24375 30.5303C7.33152 30.6698 7.45692 30.7817 7.6055 30.8531C7.75408 30.9245 7.9198 30.9525 8.08358 30.9338C8.24736 30.9152 8.40254 30.8506 8.53125 30.7476L12.8029 27.3301H22.75V34.2767C22.75 34.3587 22.7643 34.4401 22.772 34.5218C21.4088 35.5357 20.3701 36.9243 19.7826 38.5182C19.195 40.1122 19.0839 41.8428 19.4629 43.4988C19.8419 45.1548 20.6946 46.6648 21.9169 47.8445C23.1393 49.0243 24.6785 49.8229 26.3469 50.143C28.0153 50.4631 29.7408 50.2908 31.313 49.6471C32.8851 49.0034 34.236 47.9162 35.201 46.518C36.1659 45.1198 36.7031 43.471 36.7471 41.7728C36.7911 40.0745 36.34 38.4001 35.4489 36.9538H43.198L47.473 40.376C47.6017 40.479 47.7569 40.5435 47.9207 40.5621C48.0844 40.5808 48.2501 40.5528 48.3987 40.4814C48.5473 40.41 48.6727 40.2981 48.7605 40.1586C48.8482 40.0191 48.8948 39.8577 48.8949 39.6928V36.9538H49.8229C50.5327 36.953 51.2132 36.6708 51.7151 36.1689C52.217 35.667 52.4993 34.9865 52.5 34.2767V32.5651C52.5 32.3331 52.4078 32.1105 52.2437 31.9464C52.0796 31.7823 51.8571 31.6901 51.625 31.6901C51.3929 31.6901 51.1704 31.7823 51.0063 31.9464C50.8422 32.1105 50.75 32.3331 50.75 32.5651V34.2767C50.7497 34.5225 50.6519 34.7581 50.4781 34.9319C50.3043 35.1057 50.0687 35.2035 49.8229 35.2038H48.0199C47.905 35.2038 47.7912 35.2264 47.685 35.2703C47.5788 35.3143 47.4824 35.3787 47.4011 35.46C47.3199 35.5413 47.2554 35.6377 47.2114 35.7439C47.1675 35.8501 47.1449 35.9639 47.1449 36.0788V37.8715L44.0516 35.3956C43.8965 35.2714 43.7036 35.2037 43.5048 35.2038H34.0375C32.7947 34.0078 31.2247 33.2081 29.5266 32.906C27.8285 32.604 26.0789 32.8132 24.5 33.5072V27.3301H30.5703C31.2807 27.3292 31.9618 27.0466 32.4642 26.5443C32.9665 26.0419 33.2491 25.3608 33.25 24.6504V17.1001H49.8229C50.0699 17.1017 50.3063 17.2011 50.4801 17.3767C50.6539 17.5523 50.7509 17.7896 50.75 18.0366V29.0651C50.75 29.18 50.7726 29.2938 50.8165 29.4C50.8605 29.5062 50.925 29.6026 51.0062 29.6839C51.0875 29.7652 51.1839 29.8296 51.2901 29.8736C51.3963 29.9175 51.5101 29.9402 51.625 29.9401ZM35 41.5215C35 42.906 34.5895 44.2593 33.8203 45.4105C33.0511 46.5616 31.9579 47.4588 30.6788 47.9886C29.3997 48.5185 27.9922 48.6571 26.6344 48.387C25.2765 48.1169 24.0292 47.4502 23.0503 46.4712C22.0713 45.4923 21.4046 44.245 21.1345 42.8871C20.8644 41.5293 21.003 40.1218 21.5328 38.8427C22.0627 37.5636 22.9599 36.4704 24.111 35.7012C25.2622 34.932 26.6155 34.5215 28 34.5215C29.8559 34.5236 31.6351 35.2618 32.9474 36.5741C34.2597 37.8864 34.9979 39.6656 35 41.5215Z" fill="#DD5454"/>
<path d="M7.875 17.459H28.875C29.1071 17.459 29.3296 17.3668 29.4937 17.2027C29.6578 17.0386 29.75 16.816 29.75 16.584C29.75 16.3519 29.6578 16.1294 29.4937 15.9653C29.3296 15.8012 29.1071 15.709 28.875 15.709H7.875C7.64294 15.709 7.42038 15.8012 7.25628 15.9653C7.09219 16.1294 7 16.3519 7 16.584C7 16.816 7.09219 17.0386 7.25628 17.2027C7.42038 17.3668 7.64294 17.459 7.875 17.459Z" fill="#DD5454"/>
<path d="M7.875 23.1614H28.875C29.1071 23.1614 29.3296 23.0692 29.4937 22.9051C29.6578 22.741 29.75 22.5184 29.75 22.2864C29.75 22.0543 29.6578 21.8318 29.4937 21.6677C29.3296 21.5036 29.1071 21.4114 28.875 21.4114H7.875C7.64294 21.4114 7.42038 21.5036 7.25628 21.6677C7.09219 21.8318 7 22.0543 7 22.2864C7 22.5184 7.09219 22.741 7.25628 22.9051C7.42038 23.0692 7.64294 23.1614 7.875 23.1614Z" fill="#DD5454"/>
<path d="M7.875 11.7471H19.25C19.4821 11.7471 19.7046 11.6549 19.8687 11.4908C20.0328 11.3267 20.125 11.1041 20.125 10.8721C20.125 10.64 20.0328 10.4174 19.8687 10.2534C19.7046 10.0893 19.4821 9.99707 19.25 9.99707H7.875C7.64294 9.99707 7.42038 10.0893 7.25628 10.2534C7.09219 10.4174 7 10.64 7 10.8721C7 11.1041 7.09219 11.3267 7.25628 11.4908C7.42038 11.6549 7.64294 11.7471 7.875 11.7471Z" fill="#DD5454"/>
<path d="M29.7457 44.4135C29.913 44.5744 30.1373 44.6623 30.3693 44.6578C30.6014 44.6533 30.8221 44.5568 30.983 44.3896C31.1439 44.2223 31.2318 43.998 31.2273 43.766C31.2228 43.5339 31.1264 43.3132 30.9591 43.1523L28.875 41.1489V36.6714C28.875 36.4393 28.7828 36.2168 28.6187 36.0527C28.4546 35.8886 28.2321 35.7964 28 35.7964C27.7679 35.7964 27.5454 35.8886 27.3813 36.0527C27.2172 36.2168 27.125 36.4393 27.125 36.6714V41.5215C27.1251 41.6393 27.1489 41.7558 27.195 41.8641C27.2411 41.9724 27.3086 42.0704 27.3933 42.1521L29.7457 44.4135Z" fill="#DD5454"/>
</svg>
