<svg width="56" height="56" viewBox="0 0 56 56" fill="none" xmlns="http://www.w3.org/2000/svg">
<path d="M43.4024 26.5983C43.7336 26.5983 44.0024 26.3295 44.0024 25.9983V25.0631C44.0024 24.7319 43.7336 24.4631 43.4024 24.4631C43.0712 24.4631 42.8024 24.7319 42.8024 25.0631V25.9983C42.8024 26.3295 43.0712 26.5983 43.4024 26.5983Z" fill="#DD5454"/>
<path d="M39.8808 26.5983C40.212 26.5983 40.4808 26.3295 40.4808 25.9983V25.0631C40.4808 24.7319 40.212 24.4631 39.8808 24.4631C39.5496 24.4631 39.2808 24.7319 39.2808 25.0631V25.9983C39.2808 26.3295 39.5496 26.5983 39.8808 26.5983Z" fill="#DD5454"/>
<path d="M36.3584 26.5983C36.6896 26.5983 36.9584 26.3295 36.9584 25.9983V25.0631C36.9584 24.7319 36.6896 24.4631 36.3584 24.4631C36.0272 24.4631 35.7584 24.7319 35.7584 25.0631V25.9983C35.7584 26.3295 36.0272 26.5983 36.3584 26.5983Z" fill="#DD5454"/>
<path d="M19.2576 35.6759L18.0904 36.6103L17.8184 36.3015C17.6 36.0519 17.2208 36.0279 16.9712 36.2471C16.7216 36.4655 16.6976 36.8447 16.9168 37.0935L17.5672 37.8327C17.6856 37.9671 17.8512 38.0367 18.0176 38.0367C18.1496 38.0367 18.2824 37.9935 18.3928 37.9047L20.008 36.6127C20.2664 36.4055 20.3088 36.0287 20.1016 35.7695C19.8944 35.5103 19.5168 35.4695 19.2576 35.6759Z" fill="#DD5454"/>
<path d="M41.3992 34.8879C37.296 34.8879 33.9576 38.2255 33.9576 42.3287C33.9576 46.4367 37.296 49.7783 41.3992 49.7783C45.5072 49.7783 48.8488 46.4367 48.8488 42.3287C48.848 38.2255 45.5064 34.8879 41.3992 34.8879ZM41.3992 48.5783C37.9576 48.5783 35.1576 45.7751 35.1576 42.3287C35.1576 38.8871 37.9576 36.0879 41.3992 36.0879C44.8456 36.0879 47.6488 38.8879 47.6488 42.3287C47.648 45.7751 44.8448 48.5783 41.3992 48.5783Z" fill="#DD5454"/>
<path d="M54.1952 5.79113C54.1952 4.50793 53.1504 3.46313 51.8672 3.46313H4.13121C2.84801 3.46313 1.80321 4.50793 1.80321 5.79113V34.6391C1.80321 35.9223 2.84801 36.9671 4.13121 36.9671H6.96641V39.1295C6.96641 42.6311 8.67681 45.9207 11.5416 47.9287L17.6144 52.1879C17.8784 52.3727 18.188 52.4655 18.4976 52.4655C18.8072 52.4655 19.1152 52.3727 19.38 52.1879L25.4608 47.9287C28.3256 45.9207 30.0368 42.6311 30.0368 39.1295V36.9671H32.74C31.7712 38.5271 31.2016 40.3591 31.2016 42.3271C31.2016 47.9567 35.7768 52.5367 41.3992 52.5367C47.0288 52.5367 51.6088 47.9567 51.6088 42.3271C51.6088 40.3599 51.0384 38.5271 50.0688 36.9671H51.8688C53.152 36.9671 54.1968 35.9223 54.1968 34.6391C54.1952 28.5839 54.2 11.8439 54.1952 5.79113ZM28.8344 39.1303C28.8344 42.2415 27.3152 45.1631 24.7696 46.9471L18.6888 51.2063C18.572 51.2887 18.4168 51.2871 18.3024 51.2063L12.2296 46.9471C9.68481 45.1639 8.16561 42.2415 8.16561 39.1303V28.7799C8.16561 28.6743 8.21281 28.5767 8.29441 28.5103C8.32961 28.4815 8.39681 28.4407 8.48561 28.4407C8.50561 28.4407 8.52721 28.4431 8.54961 28.4479C12.4232 29.2991 16.6728 27.0351 18.3216 26.0239C18.432 25.9567 18.5624 25.9583 18.6712 26.0239C20.32 27.0351 24.572 29.2943 28.4496 28.4487C28.572 28.4239 28.6624 28.4767 28.7056 28.5119C28.788 28.5783 28.8344 28.6759 28.8344 28.7807V39.1303ZM50.4064 42.3271C50.4064 47.2951 46.3648 51.3367 41.3968 51.3367C36.436 51.3367 32.3992 47.2951 32.3992 42.3271C32.3992 37.3655 36.436 33.3295 41.3968 33.3295C46.3656 33.3295 50.4064 37.3663 50.4064 42.3271ZM52.9952 34.6391C52.9952 35.2607 52.4888 35.7671 51.8672 35.7671H49.2032C47.3288 33.5455 44.5272 32.1295 41.3976 32.1295C38.272 32.1295 35.4736 33.5463 33.6016 35.7671H30.0352V28.7799C30.0352 28.3095 29.8248 27.8711 29.4584 27.5759C29.1 27.2871 28.6384 27.1791 28.1936 27.2751C24.6472 28.0527 20.4888 25.7303 19.2984 24.9999C18.8048 24.6975 18.1896 24.6967 17.6944 25.0007C16.5056 25.7303 12.3528 28.0519 8.80721 27.2751C8.36481 27.1791 7.90161 27.2871 7.54321 27.5751C7.17681 27.8703 6.96641 28.3087 6.96641 28.7791V35.7663H4.13121C3.50961 35.7663 3.00321 35.2599 3.00321 34.6383V16.5527H52.9952V34.6391ZM39.4728 15.3527H34.2512L36.7656 10.0831H41.9816L39.4728 15.3527ZM43.3104 10.0831H48.5256L46.0168 15.3527H40.8016L43.3104 10.0831ZM32.9208 15.3527H27.7048L30.2136 10.0831H35.4352L32.9208 15.3527ZM26.3768 15.3527H21.1552L23.6704 10.0831H28.8856L26.3768 15.3527ZM19.8248 15.3527H14.6096L17.1184 10.0831H22.3408L19.8248 15.3527ZM13.2816 15.3527H8.06641L10.5752 10.0831H15.7904L13.2816 15.3527ZM6.73761 15.3527H3.00321V10.0831H9.24561L6.73761 15.3527ZM52.9952 15.3527H47.3448L49.8536 10.0831H52.9944V15.3527H52.9952ZM52.9952 8.88313H3.00241V5.79113C3.00241 5.16953 3.50881 4.66313 4.13041 4.66313H51.8664C52.488 4.66313 52.9944 5.16953 52.9944 5.79113V8.88313H52.9952Z" fill="#DD5454"/>
<path d="M8.16561 20.0416H22.4312C22.7624 20.0416 23.0312 19.7728 23.0312 19.4416C23.0312 19.1104 22.7624 18.8416 22.4312 18.8416H8.16561C7.83441 18.8416 7.56561 19.1104 7.56561 19.4416C7.56561 19.7728 7.83361 20.0416 8.16561 20.0416Z" fill="#DD5454"/>
<path d="M18.5 31.5759C15.624 31.5759 13.2848 33.9151 13.2848 36.7903C13.2848 39.6655 15.624 42.0047 18.5 42.0047C21.3752 42.0047 23.7144 39.6655 23.7144 36.7903C23.7144 33.9151 21.3752 31.5759 18.5 31.5759ZM18.5 40.8047C16.2856 40.8047 14.4848 39.0039 14.4848 36.7903C14.4848 34.5767 16.2856 32.7759 18.5 32.7759C20.7136 32.7759 22.5144 34.5767 22.5144 36.7903C22.5144 39.0039 20.7136 40.8047 18.5 40.8047Z" fill="#DD5454"/>
<path d="M41.4016 39.4878C42.02 39.4878 42.5232 39.991 42.5232 40.6102C42.5232 40.9414 42.792 41.2102 43.1232 41.2102C43.4544 41.2102 43.7232 40.9414 43.7232 40.6102C43.7232 39.5382 42.9896 38.643 42.0016 38.3766V37.995C42.0016 37.6638 41.7328 37.395 41.4016 37.395C41.0704 37.395 40.8016 37.6638 40.8016 37.995V38.3766C39.8136 38.643 39.0816 39.539 39.0816 40.6102C39.0816 41.891 40.1224 42.9326 41.4016 42.9326C42.02 42.9326 42.5232 43.4358 42.5232 44.055C42.5232 44.6742 42.02 45.1774 41.4016 45.1774C40.784 45.1774 40.2816 44.6742 40.2816 44.055C40.2816 43.7238 40.0128 43.455 39.6816 43.455C39.3504 43.455 39.0816 43.7238 39.0816 44.055C39.0816 45.127 39.8144 46.0222 40.8016 46.2886V46.671C40.8016 47.0022 41.0704 47.271 41.4016 47.271C41.7328 47.271 42.0016 47.0022 42.0016 46.671V46.2894C42.9904 46.023 43.7232 45.127 43.7232 44.055C43.7232 42.7742 42.6816 41.7326 41.4016 41.7326C40.784 41.7326 40.2816 41.2294 40.2816 40.6102C40.2816 39.9918 40.784 39.4878 41.4016 39.4878Z" fill="#DD5454"/>
</svg>
