<svg width="54" height="54" viewBox="0 0 54 54" fill="none" xmlns="http://www.w3.org/2000/svg">
<g clip-path="url(#clip0_1235_1688)">
<path d="M52.5521 47.6043H49.3229V21.8231C49.3229 20.5304 48.2719 19.4793 46.9792 19.4793H37.95C37.776 19.0533 37.4771 18.6814 37.0812 18.4179L34.2156 16.5075C34.1427 10.1502 31.5938 4.221 27.1937 0.205371C26.8958 -0.0665039 26.4385 -0.0665039 26.1406 0.205371C21.7406 4.221 19.1906 10.1502 19.1187 16.5075L16.2531 18.4179C15.8573 18.6814 15.5594 19.0533 15.3844 19.4793H6.35417C5.06146 19.4793 4.01042 20.5304 4.01042 21.8231V47.6043H0.78125C0.35 47.6043 0 47.9543 0 48.3856V50.9897C0 52.2825 1.05104 53.3335 2.34375 53.3335H50.9896C52.2823 53.3335 53.3333 52.2825 53.3333 50.9897V48.3856C53.3333 47.9543 52.9833 47.6043 52.5521 47.6043ZM37.0969 25.4814C37.1771 25.5085 37.2604 25.521 37.3438 25.521C37.5052 25.521 37.6656 25.471 37.801 25.3731C38.0052 25.2262 38.125 24.9908 38.125 24.7397V21.0418H46.9792C47.4104 21.0418 47.7604 21.3918 47.7604 21.8231V44.2502H44.7323C44.1896 43.3304 43.1906 42.7418 42.0958 42.7418C41.6969 42.7418 41.3052 42.82 40.9406 42.9689C40.3021 41.9793 39.1854 41.3429 37.9719 41.3429C37.6896 41.3429 37.4104 41.3762 37.1396 41.4418C36.7083 41.1064 36.2104 40.8793 35.6771 40.7741C35.299 38.9981 33.7333 37.6887 31.8521 37.6887C31.4281 37.6887 31.0104 37.7575 30.6135 37.8897C29.4042 34.647 29.6781 30.2939 29.8406 28.646H30.5719C30.8531 28.646 31.1125 28.495 31.251 28.2502C31.9885 26.9491 32.5938 25.57 33.0615 24.1356L37.0969 25.4804V25.4814ZM23.2229 27.0835C22.6 25.9252 22.0865 24.7043 21.6885 23.4377H31.6448C31.2469 24.7043 30.7333 25.9252 30.1104 27.0835H23.2229ZM36.5625 20.3679V23.6564L33.4958 22.6335C33.8479 21.2418 34.074 19.8085 34.1677 18.3533L36.2146 19.7179C36.4323 19.8627 36.5625 20.1064 36.5625 20.3679ZM26.6667 1.8585C30.4812 5.62412 32.6562 11.021 32.6562 16.7856C32.6562 18.5179 32.4562 20.2262 32.0698 21.8752H21.2625C20.8771 20.2262 20.676 18.5179 20.676 16.7856C20.676 11.021 22.851 5.62412 26.6656 1.8585H26.6667ZM16.7708 20.3679C16.7708 20.1064 16.901 19.8627 17.1187 19.7179L19.1656 18.3533C19.2604 19.8085 19.4865 21.2418 19.8375 22.6335L16.7708 23.6564V20.3679ZM6.35417 21.0418H15.2083V24.7397C15.2083 24.9908 15.3292 25.2262 15.5323 25.3731C15.6667 25.47 15.8271 25.521 15.9896 25.521C16.0729 25.521 16.1562 25.5075 16.2365 25.4814L20.2719 24.1366C20.7396 25.571 21.3448 26.9502 22.0823 28.2512C22.2208 28.496 22.4802 28.647 22.7615 28.647H23.4927C23.6562 30.2939 23.9312 34.6439 22.7198 37.8908C22.3229 37.7585 21.9052 37.6897 21.4812 37.6897C19.6 37.6897 18.0333 38.9991 17.6562 40.7752C17.1229 40.8804 16.625 41.1075 16.1938 41.4429C15.9219 41.3772 15.6438 41.3439 15.3615 41.3439C14.1479 41.3439 13.0312 41.9804 12.3927 42.97C12.0292 42.821 11.6375 42.7429 11.2375 42.7429C10.1437 42.7429 9.14375 43.3304 8.60104 44.2512H5.57292V21.8231C5.57292 21.3918 5.92292 21.0418 6.35417 21.0418ZM5.57292 45.8127H9.09375C9.42396 45.8127 9.71771 45.6054 9.82917 45.295C10.0417 44.7022 10.6073 44.3043 11.2375 44.3043C11.5979 44.3043 11.9458 44.4345 12.2177 44.671C12.4177 44.845 12.6927 44.9054 12.9479 44.8314C13.2031 44.7575 13.4031 44.5595 13.4792 44.3043C13.726 43.4793 14.5 42.9033 15.3615 42.9033C15.6125 42.9033 15.8583 42.9502 16.0906 43.0439C16.3844 43.1616 16.7208 43.0908 16.9417 42.8627C17.3146 42.4783 17.8156 42.2668 18.3531 42.2668C18.774 42.2668 19.1187 41.9335 19.1344 41.5137C19.1802 40.2439 20.2115 39.2491 21.4823 39.2491C21.9198 39.2491 22.3458 39.37 22.7156 39.5991C22.9052 39.7158 23.1344 39.747 23.3479 39.6835C23.5615 39.62 23.7375 39.4689 23.8323 39.2679C25.5198 35.695 25.2594 30.672 25.0646 28.6429H28.2667C28.0719 30.671 27.8115 35.6939 29.499 39.2679C29.5938 39.4689 29.7698 39.62 29.9833 39.6835C30.1969 39.747 30.4271 39.7158 30.6156 39.5991C30.9854 39.37 31.4125 39.2491 31.849 39.2491C33.1198 39.2491 34.151 40.2439 34.1969 41.5137C34.2125 41.9335 34.5604 42.2668 34.9802 42.2668C35.5146 42.2668 36.0156 42.4783 36.3885 42.8627C36.6094 43.0897 36.9458 43.1616 37.2396 43.0439C37.4719 42.9502 37.7177 42.9033 37.9688 42.9033C38.8302 42.9033 39.6042 43.4793 39.851 44.3043C39.9271 44.5585 40.1271 44.7575 40.3823 44.8314C40.6375 44.9054 40.9125 44.845 41.1125 44.671C41.3844 44.4345 41.7323 44.3043 42.0927 44.3043C42.7219 44.3043 43.2885 44.7022 43.501 45.295C43.6125 45.6054 43.9062 45.8127 44.2365 45.8127H47.7573V47.6043H5.57292V45.8127ZM51.7708 50.9897C51.7708 51.421 51.4208 51.771 50.9896 51.771H2.34375C1.9125 51.771 1.5625 51.421 1.5625 50.9897V49.1668H51.7708V50.9897Z" fill="#DD5454"/>
<path d="M23.5625 13.8812C23.8937 14.1573 24.3865 14.1125 24.6625 13.7812L25.8854 12.3135V18.4885C25.8854 18.9198 26.2354 19.2698 26.6667 19.2698C27.0979 19.2698 27.4479 18.9198 27.4479 18.4885V12.3135L28.6708 13.7812C28.825 13.9667 29.0479 14.0625 29.2719 14.0625C29.4479 14.0625 29.626 14.0031 29.7719 13.8812C30.1031 13.6052 30.1479 13.1125 29.8719 12.7812L27.2677 9.65625C27.1198 9.47812 26.899 9.375 26.6677 9.375C26.4365 9.375 26.2156 9.47812 26.0677 9.65625L23.4635 12.7812C23.1875 13.1125 23.2323 13.6052 23.5635 13.8812H23.5625Z" fill="#DD5454"/>
<path d="M37.3438 32.5616C37.775 32.5616 38.125 32.2116 38.125 31.7804V27.8647C38.125 27.4335 37.775 27.0835 37.3438 27.0835C36.9125 27.0835 36.5625 27.4335 36.5625 27.8647V31.7804C36.5625 32.2116 36.9125 32.5616 37.3438 32.5616Z" fill="#DD5454"/>
<path d="M37.3438 35.6866C37.775 35.6866 38.125 35.3366 38.125 34.9054V34.3845C38.125 33.9533 37.775 33.6033 37.3438 33.6033C36.9125 33.6033 36.5625 33.9533 36.5625 34.3845V34.9054C36.5625 35.3366 36.9125 35.6866 37.3438 35.6866Z" fill="#DD5454"/>
<path d="M34.2188 34.6449C34.65 34.6449 35 34.2949 35 33.8636V26.823C35 26.3917 34.65 26.0417 34.2188 26.0417C33.7875 26.0417 33.4375 26.3917 33.4375 26.823V33.8636C33.4375 34.2949 33.7875 34.6449 34.2188 34.6449Z" fill="#DD5454"/>
<path d="M15.9896 32.5616C16.4208 32.5616 16.7708 32.2116 16.7708 31.7804V27.8647C16.7708 27.4335 16.4208 27.0835 15.9896 27.0835C15.5583 27.0835 15.2083 27.4335 15.2083 27.8647V31.7804C15.2083 32.2116 15.5583 32.5616 15.9896 32.5616Z" fill="#DD5454"/>
<path d="M15.9896 35.6866C16.4208 35.6866 16.7708 35.3366 16.7708 34.9054V34.3845C16.7708 33.9533 16.4208 33.6033 15.9896 33.6033C15.5583 33.6033 15.2083 33.9533 15.2083 34.3845V34.9054C15.2083 35.3366 15.5583 35.6866 15.9896 35.6866Z" fill="#DD5454"/>
<path d="M19.1146 34.6449C19.5458 34.6449 19.8958 34.2949 19.8958 33.8636V26.823C19.8958 26.3917 19.5458 26.0417 19.1146 26.0417C18.6833 26.0417 18.3333 26.3917 18.3333 26.823V33.8636C18.3333 34.2949 18.6833 34.6449 19.1146 34.6449Z" fill="#DD5454"/>
<path d="M21.9792 44.4792H20.9375C20.5063 44.4792 20.1562 44.8292 20.1562 45.2605C20.1562 45.6917 20.5063 46.0417 20.9375 46.0417H21.9792C22.4104 46.0417 22.7604 45.6917 22.7604 45.2605C22.7604 44.8292 22.4104 44.4792 21.9792 44.4792Z" fill="#DD5454"/>
<path d="M27.1875 44.4792H26.1458C25.7146 44.4792 25.3646 44.8292 25.3646 45.2605C25.3646 45.6917 25.7146 46.0417 26.1458 46.0417H27.1875C27.6188 46.0417 27.9688 45.6917 27.9688 45.2605C27.9688 44.8292 27.6188 44.4792 27.1875 44.4792Z" fill="#DD5454"/>
<path d="M32.3958 44.4792H31.3542C30.9229 44.4792 30.5729 44.8292 30.5729 45.2605C30.5729 45.6917 30.9229 46.0417 31.3542 46.0417H32.3958C32.8271 46.0417 33.1771 45.6917 33.1771 45.2605C33.1771 44.8292 32.8271 44.4792 32.3958 44.4792Z" fill="#DD5454"/>
</g>
<defs>
<clipPath id="clip0_1235_1688">
<rect width="53.3333" height="53.3333" fill="white"/>
</clipPath>
</defs>
</svg>
