<svg width="55" height="49" viewBox="0 0 55 49" fill="none" xmlns="http://www.w3.org/2000/svg">
<path d="M24.337 29.9609H20.0542C20.8911 25.8527 20.811 22.9217 19.8125 21.0252C19.1271 19.7232 17.7435 19.0475 16.2871 19.3036C14.837 19.5588 13.7715 20.6614 13.5726 22.1129C13.2673 24.3424 12.0939 27.1858 8.295 28.3345C8.01901 27.1192 6.93207 26.2084 5.63438 26.2084H2.73025C1.22476 26.2084 0 27.4332 0 28.9386V45.4997C0 47.0051 1.22476 48.2299 2.73025 48.2299H5.63438C6.52507 48.2299 7.31501 47.7992 7.8137 47.1374C8.10957 47.2493 8.40207 47.378 8.68376 47.5216C10.1646 48.2769 11.826 48.6761 13.4885 48.6761H24.337C26.024 48.6761 27.3964 47.3037 27.3964 45.6167C27.3964 44.8044 27.0776 44.0656 26.5593 43.5173C27.0776 42.969 27.3964 42.2302 27.3964 41.4179C27.3964 40.6056 27.0776 39.8669 26.5593 39.3185C27.0776 38.7702 27.3964 38.0314 27.3964 37.2191C27.3964 36.4068 27.0776 35.668 26.5593 35.1197C27.0776 34.5714 27.3964 33.8326 27.3964 33.0203C27.3964 31.3334 26.024 29.9609 24.337 29.9609ZM6.44462 45.4997C6.44462 45.9464 6.08113 46.3099 5.63437 46.3099H2.73025C2.28351 46.3099 1.92 45.9464 1.92 45.4997V28.9386C1.92 28.4919 2.28349 28.1284 2.73025 28.1284H5.63438C6.08113 28.1284 6.44463 28.4919 6.44463 28.9386L6.44462 45.4997ZM24.337 46.7561H13.4885C12.1279 46.7561 10.768 46.4294 9.55599 45.8113C9.18637 45.6228 8.80161 45.4543 8.41225 45.3107C8.39651 45.3049 8.38051 45.3007 8.36462 45.2958V30.3083C13.7931 28.91 15.1504 24.7416 15.4749 22.3735C15.5761 21.635 16.1327 21.2802 16.6199 21.1946C17.1124 21.1079 17.7626 21.253 18.1135 21.9196C18.6729 22.9821 19.1016 25.2354 18.0922 29.9609H15.8571C15.3269 29.9609 14.8971 30.3907 14.8971 30.9209C14.8971 31.4511 15.3269 31.8809 15.8571 31.8809H18.8597C18.8608 31.8809 18.8619 31.8811 18.863 31.8811C18.8637 31.8811 18.8644 31.8809 18.8652 31.8809H24.337C24.9652 31.8809 25.4764 32.3921 25.4764 33.0203C25.4764 33.6486 24.9652 34.1598 24.337 34.1598H20.2822C19.752 34.1598 19.3222 34.5896 19.3222 35.1198C19.3222 35.6499 19.752 36.0798 20.2822 36.0798H24.337C24.9652 36.0798 25.4764 36.5909 25.4764 37.2191C25.4764 37.8474 24.9652 38.3586 24.337 38.3586H20.2822C19.752 38.3586 19.3222 38.7884 19.3222 39.3186C19.3222 39.8488 19.752 40.2786 20.2822 40.2786H24.337C24.9652 40.2786 25.4764 40.7897 25.4764 41.418C25.4764 42.0462 24.9652 42.5573 24.337 42.5573H20.2822C19.752 42.5573 19.3222 42.9871 19.3222 43.5173C19.3222 44.0475 19.752 44.4773 20.2822 44.4773H24.337C24.9652 44.4773 25.4764 44.9885 25.4764 45.6168C25.4764 46.245 24.9652 46.7561 24.337 46.7561Z" fill="#DD5454"/>
<path d="M50.7864 0H27.4219C25.3781 0 23.7155 1.66268 23.7155 3.70638V25.6661C23.7155 26.1963 24.1453 26.6261 24.6755 26.6261C25.2058 26.6261 25.6355 26.1963 25.6355 25.6661V3.70637C25.6355 2.72137 26.4369 1.91999 27.4219 1.91999H50.7864C51.7714 1.91999 52.5728 2.72136 52.5728 3.70637V40.2887H32.3084C31.7781 40.2887 31.3484 40.7186 31.3484 41.2487C31.3484 41.7789 31.7781 42.2087 32.3084 42.2087H52.5728V44.8587C52.5728 45.8437 51.7714 46.6451 50.7864 46.6451H32.2228C31.6925 46.6451 31.2628 47.0749 31.2628 47.6051C31.2628 48.1353 31.6925 48.5651 32.2228 48.5651H50.7864C52.8301 48.5651 54.4928 46.9024 54.4928 44.8587V3.70637C54.4928 1.66268 52.8301 0 50.7864 0Z" fill="#DD5454"/>
<path d="M38.3055 6.13877C38.3414 6.19127 38.381 6.24114 38.4259 6.2847C38.4693 6.32951 38.518 6.36914 38.5717 6.4037C38.623 6.43826 38.6792 6.46902 38.7368 6.49207C38.7945 6.51638 38.8546 6.53426 38.9161 6.54707C38.9788 6.55989 39.0415 6.56626 39.1042 6.56626C39.167 6.56626 39.2297 6.55989 39.2911 6.54707C39.3526 6.53426 39.4127 6.51639 39.4716 6.49207C39.5292 6.46901 39.5855 6.43826 39.6367 6.4037C39.6892 6.36914 39.7391 6.32951 39.7826 6.2847C39.8275 6.24114 39.8671 6.19126 39.9017 6.13877C39.9362 6.08626 39.967 6.03127 39.99 5.97365C40.0143 5.91477 40.0322 5.85464 40.045 5.79314C40.0579 5.7317 40.0642 5.66902 40.0642 5.60626C40.0642 5.54358 40.0579 5.48082 40.045 5.41814C40.0322 5.3567 40.0143 5.29651 39.99 5.23895C39.967 5.18133 39.9362 5.12502 39.9017 5.07383C39.8671 5.02008 39.8275 4.97139 39.7826 4.9279C39.56 4.7039 39.2283 4.60152 38.9161 4.66552C38.8546 4.67702 38.7945 4.69621 38.7368 4.71927C38.6792 4.74358 38.623 4.77302 38.5717 4.80758C38.518 4.84339 38.4693 4.88307 38.4259 4.92789C38.381 4.97138 38.3413 5.02007 38.3055 5.07382C38.271 5.12501 38.2415 5.18131 38.2172 5.23894C38.1941 5.2965 38.175 5.35669 38.1635 5.41813C38.1506 5.48081 38.1442 5.54357 38.1442 5.60625C38.1442 5.66899 38.1506 5.73169 38.1635 5.79313C38.175 5.85463 38.1941 5.91475 38.2172 5.97363C38.2415 6.03127 38.271 6.08758 38.3055 6.13877Z" fill="#DD5454"/>
<path d="M29.4058 24.2824C29.4058 29.63 33.7565 33.9806 39.1041 33.9806C44.4517 33.9806 48.8022 29.63 48.8022 24.2824C48.8022 18.9348 44.4517 14.5842 39.1041 14.5842C33.7565 14.5842 29.4058 18.9348 29.4058 24.2824ZM39.1041 16.5042C43.3929 16.5042 46.8822 19.9935 46.8822 24.2824C46.8822 28.5713 43.3929 32.0606 39.1041 32.0606C34.8151 32.0606 31.3258 28.5713 31.3258 24.2824C31.3258 19.9935 34.8151 16.5042 39.1041 16.5042Z" fill="#DD5454"/>
<path d="M37.2215 27.272C37.409 27.4594 37.6548 27.5532 37.9004 27.5532C38.146 27.5532 38.3918 27.4594 38.5793 27.272L43.2008 22.6505C43.5757 22.2756 43.5757 21.6677 43.2008 21.2929C42.8258 20.918 42.218 20.918 41.843 21.2929L37.9004 25.2356L36.3652 23.7003C35.9902 23.3254 35.3824 23.3254 35.0074 23.7003C34.6325 24.0752 34.6325 24.6831 35.0074 25.0579L37.2215 27.272Z" fill="#DD5454"/>
</svg>
