<svg width="54" height="54" viewBox="0 0 54 54" fill="none" xmlns="http://www.w3.org/2000/svg">
<path d="M22.4943 13.436C21.712 12.6554 20.6519 12.217 19.5467 12.217C18.4415 12.217 17.3815 12.6554 16.5991 13.436L15.6242 14.411C15.5463 14.4883 15.4844 14.5801 15.4421 14.6814C15.3998 14.7826 15.3779 14.8912 15.3776 15.0009C15.3774 15.1107 15.3988 15.2193 15.4407 15.3208C15.4826 15.4222 15.5441 15.5143 15.6217 15.5919C15.6993 15.6695 15.7914 15.731 15.8929 15.7729C15.9943 15.8147 16.103 15.8362 16.2127 15.8359C16.3224 15.8357 16.431 15.8138 16.5322 15.7715C16.6335 15.7291 16.7253 15.6673 16.8026 15.5893L17.7775 14.6144C18.2549 14.1608 18.8882 13.9079 19.5467 13.9079C20.2052 13.9079 20.8386 14.1608 21.3159 14.6144L28.466 21.7645C28.5444 21.8422 28.6067 21.9348 28.6492 22.0368C28.6916 22.1387 28.7135 22.2481 28.7134 22.3586V47.5002C28.7132 47.7211 28.6253 47.9329 28.4691 48.0892C28.3128 48.2454 28.101 48.3333 27.8801 48.3335H11.2134C10.9924 48.3333 10.7806 48.2454 10.6244 48.0892C10.4681 47.9329 10.3803 47.7211 10.3801 47.5002V22.3586C10.38 22.248 10.4019 22.1386 10.4445 22.0366C10.4871 21.9346 10.5496 21.8421 10.6283 21.7645L13.0535 19.3389C13.8057 20.5511 14.9254 21.4913 16.2493 22.0225C16.3411 22.8197 16.7193 23.5565 17.3137 24.0957C17.908 24.635 18.678 24.9399 19.4803 24.9539C20.2827 24.968 21.0629 24.69 21.6756 24.1719C22.2884 23.6537 22.6921 22.9306 22.8117 22.137C22.9312 21.3435 22.7584 20.5335 22.3254 19.8579C21.8925 19.1822 21.2288 18.6868 20.4579 18.4638C19.687 18.2409 18.8613 18.3055 18.1345 18.6458C17.4077 18.986 16.8293 19.5786 16.5067 20.3135C15.6696 19.9016 14.9643 19.2638 14.4707 18.4721C13.9771 17.6805 13.7148 16.7665 13.7134 15.8335V10.8335C13.7112 8.84506 12.9203 6.93871 11.5142 5.53267C10.1082 4.12663 8.20184 3.33573 6.2134 3.3335C5.99239 3.3335 5.78042 3.42129 5.62414 3.57757C5.46786 3.73385 5.38007 3.94582 5.38007 4.16683C5.38007 4.38784 5.46786 4.5998 5.62414 4.75609C5.78042 4.91237 5.99239 5.00016 6.2134 5.00016C7.75994 5.00197 9.24262 5.61713 10.3362 6.7107C11.4298 7.80427 12.0449 9.28695 12.0467 10.8335V15.8335C12.0476 16.4704 12.14 17.1038 12.3213 17.7143L9.45071 20.5853C9.21649 20.8173 9.03071 21.0936 8.90414 21.398C8.77757 21.7024 8.71273 22.0289 8.7134 22.3586V47.5002C8.71412 48.163 8.97775 48.7984 9.44643 49.2671C9.91512 49.7358 10.5506 49.9994 11.2134 50.0002H27.8801C28.5429 49.9994 29.1783 49.7358 29.647 49.2671C30.1157 48.7984 30.3793 48.163 30.3801 47.5002V22.3586C30.3807 22.0292 30.3161 21.7029 30.1898 21.3986C30.0635 21.0944 29.8781 20.8182 29.6444 20.5861L22.4943 13.436ZM18.7134 20.8335C18.519 20.8325 18.3249 20.8203 18.1319 20.7968C18.3229 20.4832 18.6119 20.2413 18.9543 20.1087C19.2967 19.9761 19.6733 19.96 20.0257 20.0631C20.3781 20.1662 20.6866 20.3826 20.9035 20.6789C21.1205 20.9751 21.2336 21.3346 21.2255 21.7017C21.2174 22.0688 21.0884 22.4229 20.8586 22.7093C20.6288 22.9956 20.3109 23.1982 19.9543 23.2856C19.5977 23.373 19.2222 23.3403 18.886 23.1926C18.5499 23.045 18.2718 22.7906 18.0949 22.4688C18.2988 22.4877 18.5046 22.5002 18.7134 22.5002C18.9344 22.5002 19.1464 22.4124 19.3027 22.2561C19.4589 22.0998 19.5467 21.8878 19.5467 21.6668C19.5467 21.4458 19.4589 21.2339 19.3027 21.0776C19.1464 20.9213 18.9344 20.8335 18.7134 20.8335Z" fill="#DD5454"/>
<path d="M41.1377 33.3583C41.279 33.3583 41.4179 33.3223 41.5415 33.2537C41.665 33.1852 41.769 33.0863 41.8438 32.9665C41.9186 32.8466 41.9617 32.7097 41.969 32.5686C41.9763 32.4275 41.9476 32.2869 41.8856 32.16L34.2489 16.4943C33.9533 15.9028 33.4394 15.4492 32.8158 15.2293L30.769 14.5243C31.0629 13.7181 31.2133 12.8667 31.2134 12.0087V10.8335C31.2152 9.28695 31.8304 7.80427 32.9239 6.7107C34.0175 5.61713 35.5002 5.00197 37.0467 5.00016C37.2678 5.00016 37.4797 4.91237 37.636 4.75608C37.7923 4.5998 37.8801 4.38784 37.8801 4.16683C37.8801 3.94582 37.7923 3.73385 37.636 3.57757C37.4797 3.42129 37.2678 3.3335 37.0467 3.3335C35.0583 3.33574 33.152 4.12663 31.7459 5.53267C30.3399 6.93871 29.549 8.84506 29.5467 10.8335V12.0086C29.5467 12.682 29.4273 13.3501 29.194 13.9817L26.8156 13.1626C26.7121 13.1266 26.6025 13.1115 26.4931 13.118C26.3837 13.1245 26.2766 13.1525 26.1781 13.2004C26.0795 13.2483 25.9914 13.3152 25.9187 13.3973C25.8461 13.4794 25.7903 13.5749 25.7547 13.6786C25.719 13.7822 25.7042 13.8919 25.711 14.0013C25.7178 14.1106 25.7461 14.2176 25.7943 14.316C25.8425 14.4145 25.9096 14.5024 25.9919 14.5748C26.0742 14.6473 26.1699 14.7027 26.2736 14.7381L32.2632 16.8011C32.476 16.8768 32.6518 17.031 32.7548 17.232L40.3882 32.8899C40.4565 33.0305 40.5631 33.149 40.6956 33.2319C40.8282 33.3147 40.9814 33.3585 41.1377 33.3583Z" fill="#DD5454"/>
<path d="M21.3981 34.7352C21.3981 34.9562 21.4859 35.1682 21.6422 35.3244C21.7985 35.4807 22.0105 35.5685 22.2315 35.5685C22.4525 35.5685 22.6645 35.4807 22.8207 35.3244C22.977 35.1682 23.0648 34.9562 23.0648 34.7352C23.0252 34.004 22.7244 33.3113 22.217 32.7833C21.7096 32.2553 21.0294 31.927 20.3003 31.8584V31.2501C20.3003 31.0291 20.2125 30.8171 20.0562 30.6608C19.9 30.5045 19.688 30.4167 19.467 30.4167C19.246 30.4167 19.034 30.5045 18.8777 30.6608C18.7215 30.8171 18.6337 31.0291 18.6337 31.2501V31.8777C18.0024 31.9547 17.4079 32.2163 16.9248 32.6298C16.4417 33.0433 16.0914 33.5903 15.918 34.2021C15.774 34.9055 15.779 36.6299 18.6337 38.0317V41.4374C18.3436 41.3935 18.077 41.2525 17.8774 41.0375C17.6779 40.8225 17.5572 40.5461 17.535 40.2536C17.5335 40.0326 17.4443 39.8212 17.2869 39.666C17.1296 39.5108 16.917 39.4244 16.696 39.4259C16.475 39.4275 16.2636 39.5167 16.1084 39.674C15.9532 39.8314 15.8669 40.044 15.8684 40.265C15.908 40.9963 16.209 41.6891 16.7165 42.2172C17.2241 42.7452 17.9044 43.0733 18.6337 43.1418V43.7501C18.6337 43.9711 18.7215 44.1831 18.8777 44.3393C19.034 44.4956 19.246 44.5834 19.467 44.5834C19.688 44.5834 19.9 44.4956 20.0563 44.3393C20.2125 44.1831 20.3003 43.9711 20.3003 43.7501V43.1222C20.9315 43.0451 21.5259 42.7834 22.0089 42.37C22.492 41.9565 22.8423 41.4097 23.016 40.798C23.16 40.0947 23.1543 38.3704 20.3003 36.9685V33.563C20.5887 33.606 20.854 33.7451 21.0533 33.9579C21.2526 34.1707 21.3741 34.4446 21.3981 34.7352ZM18.6337 36.1211C17.7404 35.5283 17.4665 34.9452 17.5505 34.5366C17.636 34.2997 17.7803 34.0883 17.9697 33.9222C18.1591 33.7561 18.3876 33.6407 18.6337 33.5869V36.1211ZM21.3827 40.4635C21.2972 40.7004 21.1531 40.9117 20.9638 41.0777C20.7745 41.2438 20.5463 41.3591 20.3003 41.413V38.8791C21.1929 39.4717 21.4667 40.0547 21.3827 40.4635Z" fill="#DD5454"/>
<path d="M40.4534 35C38.97 35 37.52 35.4399 36.2866 36.264C35.0532 37.0881 34.0919 38.2594 33.5243 39.6299C32.9566 41.0003 32.8081 42.5083 33.0975 43.9632C33.3869 45.418 34.1012 46.7544 35.1501 47.8033C36.199 48.8522 37.5353 49.5665 38.9902 49.8559C40.4451 50.1453 41.9531 49.9968 43.3235 49.4291C44.6939 48.8614 45.8653 47.9001 46.6894 46.6668C47.5135 45.4334 47.9534 43.9834 47.9534 42.5C47.9511 40.5116 47.1602 38.6052 45.7542 37.1992C44.3482 35.7931 42.4418 35.0022 40.4534 35ZM40.4534 48.3333C39.2996 48.3333 38.1718 47.9912 37.2125 47.3502C36.2533 46.7093 35.5056 45.7982 35.0641 44.7323C34.6226 43.6664 34.507 42.4935 34.7321 41.362C34.9572 40.2304 35.5128 39.191 36.3286 38.3752C37.1444 37.5594 38.1838 37.0038 39.3153 36.7788C40.4469 36.5537 41.6198 36.6692 42.6857 37.1107C43.7516 37.5522 44.6626 38.2999 45.3036 39.2592C45.9446 40.2185 46.2867 41.3463 46.2867 42.5C46.2849 44.0465 45.6697 45.5292 44.5762 46.6228C43.4826 47.7164 41.9999 48.3315 40.4534 48.3333Z" fill="#DD5454"/>
<path d="M42.3641 40.2444L39.6199 42.9885L38.5424 41.911C38.3857 41.7571 38.1745 41.6713 37.9548 41.6723C37.7352 41.6733 37.5248 41.761 37.3694 41.9164C37.2141 42.0717 37.1264 42.2821 37.1254 42.5018C37.1244 42.7215 37.2102 42.9326 37.3641 43.0894L39.0308 44.756C39.1081 44.8334 39.2 44.8948 39.3011 44.9367C39.4022 44.9786 39.5105 45.0002 39.62 45.0002C39.7294 45.0002 39.8378 44.9786 39.9389 44.9367C40.04 44.8948 40.1318 44.8334 40.2092 44.756L43.5425 41.4227C43.6973 41.2661 43.7838 41.0547 43.7832 40.8345C43.7825 40.6143 43.6948 40.4034 43.5391 40.2477C43.3834 40.092 43.1725 40.0043 42.9523 40.0037C42.7321 40.003 42.5207 40.0896 42.3641 40.2444Z" fill="#DD5454"/>
</svg>
