<svg width="51" height="52" viewBox="0 0 51 52" fill="none" xmlns="http://www.w3.org/2000/svg">
<path d="M31.709 21.8766C31.709 22.2079 31.9757 22.4746 32.307 22.4746C32.6383 22.4746 32.905 22.2079 32.905 21.8766V16.9392C32.905 13.8604 35.4101 11.3554 38.4888 11.3554C38.8202 11.3554 39.0868 11.0887 39.0868 10.7574C39.0868 10.4261 38.8202 10.1594 38.4888 10.1594C34.7474 10.1594 31.709 13.2059 31.709 16.9392V21.8766Z" fill="#DD5454"/>
<path d="M40.4929 11.3636H42.4323C42.7636 11.3636 43.0303 11.097 43.0303 10.7657V9.2303L49.3172 13.7232L43.0222 18.2162V16.6808C43.0222 16.3495 42.7556 16.0828 42.4242 16.0828H39.0545C38.2707 16.0828 37.6323 16.7212 37.6323 17.5051V33.1899C37.6323 33.5212 37.899 33.7879 38.2303 33.7879C38.5616 33.7879 38.8283 33.5212 38.8283 33.1899V17.5051C38.8283 17.3838 38.9253 17.2788 39.0545 17.2788H41.8263V19.3798C41.8263 19.6061 41.9556 19.8081 42.1495 19.9131C42.3515 20.0182 42.5939 20.002 42.7717 19.8646L50.699 14.2081C50.8606 14.0949 50.9495 13.9091 50.9495 13.7152C50.9495 13.5212 50.8525 13.3354 50.699 13.2222L42.7717 7.56566C42.5859 7.43636 42.3434 7.4202 42.1495 7.51717C41.9475 7.62222 41.8263 7.82424 41.8263 8.05051V10.1515H40.4848C40.1535 10.1515 39.8869 10.4182 39.8869 10.7495C39.895 11.097 40.1616 11.3636 40.4929 11.3636Z" fill="#DD5454"/>
<path d="M12.6142 11.3637C15.6929 11.3637 18.198 13.8687 18.198 16.9475V21.8849C18.198 22.2162 18.4647 22.4829 18.796 22.4829C19.1273 22.4829 19.394 22.2162 19.394 21.8849V16.9475C19.394 13.2061 16.3475 10.1677 12.6142 10.1677C12.2828 10.1677 12.0162 10.4344 12.0162 10.7657C12.0162 11.097 12.2828 11.3637 12.6142 11.3637Z" fill="#DD5454"/>
<path d="M8.33133 19.8728C8.51719 20.0021 8.75961 20.0182 8.95355 19.9212C9.15557 19.8162 9.27678 19.6142 9.27678 19.3879V17.2869H12.0485C12.1697 17.2869 12.2748 17.3839 12.2748 17.5132V33.198C12.2748 33.5293 12.5414 33.796 12.8727 33.796C13.2041 33.796 13.4707 33.5293 13.4707 33.198V17.5051C13.4707 16.7212 12.8323 16.0829 12.0485 16.0829H8.67072C8.33941 16.0829 8.07274 16.3495 8.07274 16.6808V18.2162L1.77779 13.7233L8.06466 9.23034V10.7657C8.06466 11.097 8.33133 11.3637 8.66264 11.3637H10.0283C10.3596 11.3637 10.6263 11.097 10.6263 10.7657C10.6263 10.4344 10.3596 10.1677 10.0283 10.1677H9.26062V8.0667C9.26062 7.84044 9.13133 7.63842 8.93739 7.53337C8.73537 7.42832 8.49295 7.44448 8.31517 7.58186L0.387895 13.2384C0.226279 13.3516 0.13739 13.5374 0.13739 13.7314C0.13739 13.9253 0.23436 14.1111 0.387895 14.2243L8.33133 19.8728Z" fill="#DD5454"/>
<path d="M30.0445 7.9131H28.5091C28.1778 7.9131 27.9111 8.17976 27.9111 8.51108V21.5373C27.9111 21.8687 28.1778 22.1353 28.5091 22.1353C28.8404 22.1353 29.1071 21.8687 29.1071 21.5373V9.11714H31.2081C31.4344 9.11714 31.6364 8.98784 31.7414 8.79391C31.8465 8.59189 31.8303 8.34946 31.693 8.17168L29.4061 4.9636C29.2121 4.68886 28.8404 4.63229 28.5657 4.82623C28.299 5.02017 28.2344 5.39189 28.4283 5.66663L30.0445 7.9131Z" fill="#DD5454"/>
<path d="M19.895 9.11717H21.996V21.5374C21.996 21.8687 22.2627 22.1354 22.594 22.1354C22.9253 22.1354 23.192 21.8687 23.192 21.5374V8.51919C23.192 8.18788 22.9253 7.92121 22.594 7.92121H21.0586L25.5516 1.62626L27.2081 3.94545C27.4021 4.21212 27.7738 4.27677 28.0485 4.08283C28.3152 3.88889 28.3798 3.51717 28.1859 3.24242L26.0445 0.236364C25.8182 -0.0787879 25.293 -0.0787879 25.0667 0.236364L19.4101 8.16364C19.2808 8.34949 19.2647 8.59192 19.3617 8.78586C19.4667 8.99596 19.6687 9.11717 19.895 9.11717Z" fill="#DD5454"/>
<path d="M25.5596 26.0466C21.1394 26.0466 17.5435 29.6426 17.5435 34.0628C17.5435 38.483 21.1394 42.079 25.5596 42.079C29.9798 42.079 33.5758 38.483 33.5758 34.0628C33.5758 29.6426 29.9798 26.0466 25.5596 26.0466ZM25.5596 40.8749C21.802 40.8749 18.7475 37.8204 18.7475 34.0628C18.7475 30.3052 21.802 27.2507 25.5596 27.2507C29.3172 27.2507 32.3717 30.3052 32.3717 34.0628C32.3717 37.8204 29.3172 40.8749 25.5596 40.8749Z" fill="#DD5454"/>
<path d="M25.5596 25.6667C25.8898 25.6667 26.1576 25.3989 26.1576 25.0687C26.1576 24.7384 25.8898 24.4707 25.5596 24.4707C25.2293 24.4707 24.9616 24.7384 24.9616 25.0687C24.9616 25.3989 25.2293 25.6667 25.5596 25.6667Z" fill="#DD5454"/>
<path d="M25.5596 42.4827C25.2202 42.4827 24.9536 42.7493 24.9536 43.0806C24.9536 43.42 25.2202 43.6867 25.5596 43.6867C25.8909 43.6867 26.1576 43.42 26.1576 43.0806C26.1576 42.7493 25.8909 42.4827 25.5596 42.4827Z" fill="#DD5454"/>
<path d="M34.5131 34.6606C34.8433 34.6606 35.1111 34.3928 35.1111 34.0626C35.1111 33.7323 34.8433 33.4646 34.5131 33.4646C34.1828 33.4646 33.9151 33.7323 33.9151 34.0626C33.9151 34.3928 34.1828 34.6606 34.5131 34.6606Z" fill="#DD5454"/>
<path d="M16.5657 34.6606C16.8959 34.6606 17.1637 34.3928 17.1637 34.0626C17.1637 33.7323 16.8959 33.4646 16.5657 33.4646C16.2354 33.4646 15.9677 33.7323 15.9677 34.0626C15.9677 34.3928 16.2354 34.6606 16.5657 34.6606Z" fill="#DD5454"/>
<path d="M25.5596 31.2667C26.1657 31.2667 26.6586 31.7597 26.6586 32.3657C26.6586 32.6971 26.9253 32.9637 27.2566 32.9637C27.5879 32.9637 27.8545 32.6971 27.8545 32.3657C27.8545 31.3072 27.1273 30.4183 26.1576 30.1516V29.5294C26.1576 29.1981 25.8909 28.9314 25.5596 28.9314C25.2283 28.9314 24.9616 29.1981 24.9616 29.5294V30.1516C23.9838 30.4183 23.2646 31.3072 23.2646 32.3657C23.2646 33.6344 24.299 34.6688 25.5677 34.6688C26.1737 34.6688 26.6667 35.1617 26.6667 35.7678C26.6667 36.3738 26.1737 36.8668 25.5677 36.8668C24.9616 36.8668 24.4687 36.3738 24.4687 35.7678C24.4687 35.4364 24.202 35.1698 23.8707 35.1698C23.5394 35.1698 23.2727 35.4364 23.2727 35.7678C23.2727 36.8263 24 37.7152 24.9697 37.9819V38.6041C24.9697 38.9354 25.2364 39.2021 25.5677 39.2021C25.899 39.2021 26.1657 38.9354 26.1657 38.6041V37.9738C27.1434 37.7072 27.8626 36.8183 27.8626 35.7597C27.8626 34.491 26.8283 33.4566 25.5596 33.4566C24.9535 33.4566 24.4606 32.9637 24.4606 32.3577C24.4606 31.7597 24.9535 31.2667 25.5596 31.2667Z" fill="#DD5454"/>
<path d="M34.2707 50.499H16.6303C16.299 50.499 16.0323 50.7657 16.0323 51.097C16.0323 51.4283 16.299 51.695 16.6303 51.695H34.2707C34.602 51.695 34.8687 51.4283 34.8687 51.097C34.8767 50.7657 34.6101 50.499 34.2707 50.499Z" fill="#DD5454"/>
<path d="M40.6869 44.0831H30.5859C34.2545 42.2326 36.7838 38.4427 36.7838 34.0629C36.7838 27.873 31.7495 22.8386 25.5596 22.8386C19.3697 22.8386 14.3273 27.873 14.3273 34.0629C14.3273 38.4427 16.8566 42.2406 20.5253 44.0831H0.59798C0.266667 44.0831 0 44.3497 0 44.681C0 45.0124 0.266667 45.279 0.59798 45.279H40.695C41.2444 45.279 41.697 45.7316 41.697 46.281C41.697 46.8305 41.2444 47.2831 40.695 47.2831H11.8222C11.4909 47.2831 11.2242 47.5497 11.2242 47.881C11.2242 48.2124 11.4909 48.479 11.8222 48.479H40.6869C41.899 48.479 42.8929 47.4932 42.8929 46.273C42.8929 45.0528 41.9071 44.0831 40.6869 44.0831ZM15.5313 34.0629C15.5313 28.5356 20.0242 24.0427 25.5515 24.0427C31.0788 24.0427 35.5717 28.5356 35.5717 34.0629C35.5717 39.5901 31.0788 44.0831 25.5515 44.0831C20.0242 44.0831 15.5313 39.5901 15.5313 34.0629Z" fill="#DD5454"/>
<path d="M50.3111 44.0828H45.503C45.1717 44.0828 44.905 44.3494 44.905 44.6807C44.905 45.0121 45.1717 45.2787 45.503 45.2787H50.3111C50.6424 45.2787 50.9091 45.0121 50.9091 44.6807C50.9091 44.3494 50.6424 44.0828 50.3111 44.0828Z" fill="#DD5454"/>
<path d="M8.19395 47.4688C8.08082 47.5819 8.01617 47.7354 8.01617 47.8971C8.01617 48.0587 8.08082 48.2122 8.19395 48.3253C8.30708 48.4385 8.46062 48.5031 8.62223 48.5031C8.78385 48.5031 8.93739 48.4385 9.05052 48.3253C9.16365 48.2122 9.2283 48.0587 9.2283 47.8971C9.2283 47.7354 9.16365 47.5819 9.05052 47.4688C8.81617 47.2425 8.41213 47.2425 8.19395 47.4688Z" fill="#DD5454"/>
</svg>
