<svg width="56" height="56" viewBox="0 0 56 56" fill="none" xmlns="http://www.w3.org/2000/svg">
<g clip-path="url(#clip0_1646_10856)">
<path d="M48.7115 0.848389H7.28848C3.80121 0.848389 0.96727 3.68233 0.96727 7.1696V38.7078C0.96727 42.1951 3.80121 45.029 7.28848 45.029H19.8885V49.7296H17.9455C16.1212 49.7296 14.6364 51.2145 14.6364 53.0387V54.3284C14.6364 54.7866 15.0012 55.1514 15.4594 55.1514H40.5406C40.9988 55.1514 41.3636 54.7866 41.3636 54.3284V53.0387C41.3636 51.2145 39.8788 49.7296 38.0545 49.7296H36.1115V45.029H48.7115C52.1988 45.029 55.0327 42.1951 55.0327 38.7078V7.1696C55.0327 3.68233 52.1988 0.848389 48.7115 0.848389ZM39.7176 53.0387V53.5054H16.2824V53.0387C16.2824 52.1223 17.0291 51.3757 17.9455 51.3757H38.0461C38.9709 51.3757 39.7176 52.1223 39.7176 53.0387ZM34.4655 49.7296H21.5345V45.029H34.4655V49.7296ZM53.3867 38.6993C53.3867 41.2787 51.2909 43.3745 48.7115 43.3745H7.28848C4.70909 43.3745 2.61333 41.2787 2.61333 38.6993V7.1696C2.61333 4.59021 4.70909 2.49445 7.28848 2.49445H48.72C51.2994 2.49445 53.3951 4.59021 53.3951 7.1696V38.6993H53.3867Z" fill="#DD5454"/>
<path d="M48.6182 5.04834H7.38182C5.97333 5.04834 4.83636 6.19379 4.83636 7.59379V33.2605C4.83636 34.6689 5.98182 35.8059 7.38182 35.8059H48.6182C50.0267 35.8059 51.1636 34.6605 51.1636 33.2605V7.60228C51.1721 6.19379 50.0267 5.04834 48.6182 5.04834ZM49.5261 33.2605C49.5261 33.7611 49.1188 34.1599 48.6267 34.1599H7.38182C6.88121 34.1599 6.48243 33.7526 6.48243 33.2605V7.60228C6.48243 7.10167 6.8897 6.70289 7.38182 6.70289H48.6182C49.1188 6.70289 49.5176 7.11016 49.5176 7.60228V33.2605H49.5261Z" fill="#DD5454"/>
<path d="M31.8182 9.53687H10.8691C10.4109 9.53687 10.0461 9.90171 10.0461 10.3599V25.5817C10.0461 26.0399 10.4109 26.4047 10.8691 26.4047H31.8182C32.2764 26.4047 32.6412 26.0399 32.6412 25.5817V10.3599C32.6412 9.9102 32.2764 9.53687 31.8182 9.53687ZM30.9951 23.9696L13.4061 11.1829H31.0036V23.9696H30.9951ZM11.6921 11.972L29.2897 24.7502H11.6921V11.972Z" fill="#DD5454"/>
<path d="M31.8182 29.3914H29.0776C28.6194 29.3914 28.2545 29.7562 28.2545 30.2144C28.2545 30.6726 28.6194 31.0374 29.0776 31.0374H31.8182C32.2764 31.0374 32.6412 30.6726 32.6412 30.2144C32.6412 29.7562 32.2764 29.3914 31.8182 29.3914Z" fill="#DD5454"/>
<path d="M25.463 29.3914H10.8691C10.4109 29.3914 10.0461 29.7562 10.0461 30.2144C10.0461 30.6726 10.4109 31.0374 10.8691 31.0374H25.463C25.9212 31.0374 26.2861 30.6726 26.2861 30.2144C26.2861 29.7562 25.9212 29.3914 25.463 29.3914Z" fill="#DD5454"/>
<path d="M45.8521 9.57935H36.0606C35.6279 9.57935 35.28 9.92722 35.28 10.36V18.9296C35.28 19.3624 35.6279 19.7103 36.0606 19.7103H45.8521C46.2848 19.7103 46.6327 19.3624 46.6327 18.9296V10.36C46.6412 9.92722 46.2848 9.57935 45.8521 9.57935ZM45.0715 18.149H36.8412V11.1406H45.0715V18.149Z" fill="#DD5454"/>
<path d="M45.8521 21.7891H36.0606C35.6279 21.7891 35.28 22.1369 35.28 22.5697V31.1394C35.28 31.5721 35.6279 31.92 36.0606 31.92H45.8521C46.2848 31.92 46.6327 31.5721 46.6327 31.1394V22.5697C46.6412 22.1369 46.2848 21.7891 45.8521 21.7891ZM45.0715 30.3588H36.8412V23.3503H45.0715V30.3588Z" fill="#DD5454"/>
<path d="M27.2364 40.5744C26.6933 40.5744 26.2521 40.1332 26.2521 39.5902C26.2521 39.0472 26.6933 38.606 27.2364 38.606C27.7794 38.606 28.2206 39.0472 28.2206 39.5902C28.2206 40.1332 27.7794 40.5744 27.2364 40.5744Z" fill="#DD5454"/>
</g>
<defs>
<clipPath id="clip0_1646_10856">
<rect width="56" height="56" fill="white"/>
</clipPath>
</defs>
</svg>
