<svg width="56" height="56" viewBox="0 0 56 56" fill="none" xmlns="http://www.w3.org/2000/svg">
<path d="M28 40.9851C27.0625 40.9851 26.1633 41.3575 25.5004 42.0205C24.8375 42.6834 24.465 43.5826 24.465 44.5201C24.465 45.4576 24.8375 46.3568 25.5004 47.0197C26.1633 47.6827 27.0625 48.0551 28 48.0551C28.9376 48.0551 29.8367 47.6827 30.4997 47.0197C31.1626 46.3568 31.535 45.4576 31.535 44.5201C31.535 43.5826 31.1626 42.6834 30.4997 42.0205C29.8367 41.3575 28.9376 40.9851 28 40.9851ZM28 46.3051C27.5266 46.3051 27.0726 46.117 26.7378 45.7823C26.4031 45.4475 26.215 44.9935 26.215 44.5201C26.215 44.0467 26.4031 43.5927 26.7378 43.2579C27.0726 42.9232 27.5266 42.7351 28 42.7351C28.4734 42.7351 28.9275 42.9232 29.2622 43.2579C29.597 43.5927 29.785 44.0467 29.785 44.5201C29.785 44.9935 29.597 45.4475 29.2622 45.7823C28.9275 46.117 28.4734 46.3051 28 46.3051Z" fill="#DD5454"/>
<path d="M46.9787 41.2039H43.855C43.3909 41.2039 42.9457 41.3882 42.6175 41.7164C42.2894 42.0446 42.105 42.4897 42.105 42.9539V46.0864C42.105 46.5505 42.2894 46.9956 42.6175 47.3238C42.9457 47.652 43.3909 47.8364 43.855 47.8364H46.9787C47.4429 47.8364 47.888 47.652 48.2162 47.3238C48.5444 46.9956 48.7287 46.5505 48.7287 46.0864V42.9539C48.7287 42.4897 48.5444 42.0446 48.2162 41.7164C47.888 41.3882 47.4429 41.2039 46.9787 41.2039ZM43.855 46.0864V42.9539H46.9787V46.0864H43.855Z" fill="#DD5454"/>
<path d="M9.55501 41.1863L7.53376 42.6475C7.23151 42.8668 7.00733 43.177 6.89398 43.5328C6.78063 43.8886 6.78405 44.2713 6.90376 44.625L7.67376 46.9963C7.78816 47.3471 8.01055 47.6528 8.30914 47.8697C8.60772 48.0866 8.96723 48.2035 9.33626 48.2038H11.83C12.199 48.2035 12.5585 48.0866 12.8571 47.8697C13.1557 47.6528 13.3781 47.3471 13.4925 46.9963L14.2625 44.625C14.3781 44.2737 14.3794 43.8947 14.2662 43.5426C14.153 43.1904 13.9312 42.8832 13.6325 42.665L11.6113 41.2038C11.3142 40.9842 10.9553 40.8643 10.586 40.8611C10.2166 40.858 9.85574 40.9718 9.55501 41.1863ZM11.83 46.4363H9.33626L8.56626 44.065L10.5875 42.6038L12.6 44.065L11.83 46.4363Z" fill="#DD5454"/>
<path d="M49.9362 37.7388H46.06V34.7813C46.06 34.0851 45.7834 33.4174 45.2912 32.9251C44.7989 32.4328 44.1312 32.1563 43.435 32.1563H28.875V27.02C30.9762 26.8517 32.9871 26.0935 34.6763 24.8325C43.2075 18.515 38.7537 4.70752 28 4.70752C13.6675 5.25002 12.9675 25.375 27.125 27.02V32.1913H12.5387C11.8426 32.1913 11.1749 32.4678 10.6826 32.9601C10.1903 33.4524 9.91375 34.1201 9.91375 34.8163V37.7738H6.06375C5.39131 37.7737 4.74576 38.0378 4.2662 38.5091C3.78664 38.9805 3.51148 39.6214 3.5 40.2938V48.7463C3.50232 49.4247 3.77345 50.0746 4.25399 50.5535C4.73454 51.0324 5.38531 51.3013 6.06375 51.3013H15.1025C15.7809 51.3013 16.4317 51.0324 16.9123 50.5535C17.3928 50.0746 17.6639 49.4247 17.6663 48.7463V40.2938C17.6639 39.6153 17.3928 38.9655 16.9123 38.4866C16.4317 38.0077 15.7809 37.7388 15.1025 37.7388H11.69V34.7813C11.69 34.5492 11.7822 34.3266 11.9463 34.1625C12.1104 33.9985 12.3329 33.9063 12.565 33.9063H27.125V37.7038H23.4762C22.7978 37.7038 22.147 37.9727 21.6665 38.4516C21.1859 38.9305 20.9148 39.5803 20.9125 40.2588V48.7113C20.9148 49.3897 21.1859 50.0396 21.6665 50.5185C22.147 50.9974 22.7978 51.2663 23.4762 51.2663H32.5237C33.2022 51.2663 33.853 50.9974 34.3335 50.5185C34.8141 50.0396 35.0852 49.3897 35.0875 48.7113V40.2938C35.0852 39.6153 34.8141 38.9655 34.3335 38.4866C33.853 38.0077 33.2022 37.7388 32.5237 37.7388H28.875V33.9413H43.4613C43.6933 33.9413 43.9159 34.0335 44.08 34.1975C44.2441 34.3616 44.3363 34.5842 44.3363 34.8163V37.7738H40.9238C40.2453 37.7738 39.5945 38.0427 39.114 38.5216C38.6334 39.0005 38.3623 39.6503 38.36 40.3288V48.7813C38.3623 49.4597 38.6334 50.1096 39.114 50.5885C39.5945 51.0674 40.2453 51.3363 40.9238 51.3363H49.9362C50.2751 51.3363 50.6107 51.2691 50.9235 51.1386C51.2362 51.0082 51.52 50.817 51.7584 50.5761C51.9968 50.3353 52.1851 50.0495 52.3124 49.7354C52.4397 49.4214 52.5035 49.0851 52.5 48.7463V40.2938C52.4977 39.6153 52.2266 38.9655 51.746 38.4866C51.2655 38.0077 50.6147 37.7388 49.9362 37.7388ZM22.8112 23.7388V21.2188C22.8062 20.5135 23.0405 19.8274 23.4761 19.2727C23.9116 18.718 24.5224 18.3274 25.2087 18.165C26.0318 18.7252 27.0044 19.0247 28 19.0247C28.9956 19.0247 29.9682 18.7252 30.7912 18.165C31.4776 18.3274 32.0884 18.718 32.5239 19.2727C32.9595 19.8274 33.1938 20.5135 33.1888 21.2188V23.7475C31.6468 24.7578 29.8435 25.296 28 25.296C26.1565 25.296 24.3532 24.7578 22.8112 23.7475V23.7388ZM28 17.29C27.1599 17.29 26.3543 16.9563 25.7602 16.3623C25.1662 15.7683 24.8325 14.9626 24.8325 14.1225C24.8325 13.2824 25.1662 12.4768 25.7602 11.8828C26.3543 11.2887 27.1599 10.955 28 10.955C28.8401 10.955 29.6457 11.2887 30.2398 11.8828C30.8338 12.4768 31.1675 13.2824 31.1675 14.1225C31.1675 14.9626 30.8338 15.7683 30.2398 16.3623C29.6457 16.9563 28.8401 17.29 28 17.29ZM18.5675 15.8813C19.0837 3.36002 36.9425 3.36877 37.4325 15.8813C37.4331 18.2403 36.5424 20.5124 34.9388 22.2425V21.2188C34.9335 20.2915 34.6662 19.3847 34.1677 18.6028C33.6691 17.821 32.9597 17.196 32.1213 16.8C32.6043 16.0579 32.8781 15.1991 32.9136 14.3143C32.949 13.4296 32.745 12.5516 32.3229 11.7732C31.9008 10.9948 31.2763 10.3448 30.5154 9.89183C29.7546 9.43888 28.8855 9.19978 28 9.19978C27.1145 9.19978 26.2454 9.43888 25.4846 9.89183C24.7237 10.3448 24.0992 10.9948 23.6771 11.7732C23.255 12.5516 23.051 13.4296 23.0864 14.3143C23.1219 15.1991 23.3957 16.0579 23.8787 16.8C23.0403 17.196 22.3309 17.821 21.8323 18.6028C21.3338 19.3847 21.0665 20.2915 21.0612 21.2188V22.2425C19.4576 20.5124 18.5669 18.2403 18.5675 15.8813ZM15.9425 40.2938V48.7463C15.9425 48.8527 15.9214 48.9581 15.8804 49.0564C15.8394 49.1546 15.7793 49.2437 15.7036 49.3186C15.628 49.3935 15.5382 49.4526 15.4395 49.4925C15.3408 49.5325 15.2352 49.5524 15.1288 49.5513H6.06375C5.84944 49.5513 5.64377 49.4667 5.49141 49.316C5.33905 49.1653 5.2523 48.9606 5.25 48.7463V40.2938C5.2523 40.0795 5.33905 39.8747 5.49141 39.724C5.64377 39.5733 5.84944 39.4888 6.06375 39.4888H15.1025C15.2089 39.4876 15.3146 39.5076 15.4132 39.5475C15.5119 39.5875 15.6017 39.6466 15.6774 39.7214C15.7531 39.7963 15.8131 39.8854 15.8541 39.9837C15.8951 40.0819 15.9163 40.1873 15.9163 40.2938H15.9425ZM33.3638 40.2938V48.7463C33.3614 48.9606 33.2747 49.1653 33.1223 49.316C32.97 49.4667 32.7643 49.5513 32.55 49.5513H23.4762C23.2619 49.5513 23.0563 49.4667 22.9039 49.316C22.7516 49.1653 22.6648 48.9606 22.6625 48.7463V40.2938C22.6648 40.0795 22.7516 39.8747 22.9039 39.724C23.0563 39.5733 23.2619 39.4888 23.4762 39.4888H32.5237C32.7381 39.4888 32.9437 39.5733 33.0961 39.724C33.2484 39.8747 33.3352 40.0795 33.3375 40.2938H33.3638ZM50.75 48.7463C50.7477 48.9606 50.6609 49.1653 50.5086 49.316C50.3562 49.4667 50.1506 49.5513 49.9362 49.5513H40.8975C40.7911 49.5524 40.6854 49.5325 40.5868 49.4925C40.4881 49.4526 40.3983 49.3935 40.3226 49.3186C40.2469 49.2437 40.1869 49.1546 40.1459 49.0564C40.1049 48.9581 40.0837 48.8527 40.0838 48.7463V40.2938C40.0837 40.1873 40.1049 40.0819 40.1459 39.9837C40.1869 39.8854 40.2469 39.7963 40.3226 39.7214C40.3983 39.6466 40.4881 39.5875 40.5868 39.5475C40.6854 39.5076 40.7911 39.4876 40.8975 39.4888H49.9362C50.1506 39.4888 50.3562 39.5733 50.5086 39.724C50.6609 39.8747 50.7477 40.0795 50.75 40.2938V48.7463Z" fill="#DD5454"/>
</svg>
