<svg width="52" height="52" viewBox="0 0 52 52" fill="none" xmlns="http://www.w3.org/2000/svg">
<path d="M39.1667 16.6665C37.3537 16.6665 35.5814 17.2041 34.0739 18.2114C32.5665 19.2186 31.3916 20.6502 30.6978 22.3252C30.004 24.0002 29.8224 25.8433 30.1761 27.6215C30.5298 29.3997 31.4029 31.033 32.6848 32.315C33.9668 33.597 35.6002 34.47 37.3783 34.8237C39.1565 35.1774 40.9996 34.9959 42.6746 34.3021C44.3496 33.6083 45.7812 32.4333 46.7885 30.9259C47.7957 29.4184 48.3333 27.6462 48.3333 25.8332C48.3305 23.4029 47.3638 21.073 45.6453 19.3545C43.9268 17.6361 41.5969 16.6694 39.1667 16.6665ZM39.1667 33.3332C37.6833 33.3332 36.2332 32.8933 34.9999 32.0692C33.7665 31.2451 32.8052 30.0737 32.2376 28.7033C31.6699 27.3328 31.5214 25.8249 31.8108 24.37C32.1002 22.9151 32.8145 21.5788 33.8634 20.5299C34.9122 19.481 36.2486 18.7667 37.7035 18.4773C39.1583 18.1879 40.6663 18.3364 42.0368 18.9041C43.4072 19.4717 44.5786 20.433 45.4027 21.6664C46.2268 22.8998 46.6667 24.3498 46.6667 25.8332C46.6644 27.8216 45.8736 29.728 44.4675 31.134C43.0615 32.5401 41.1551 33.331 39.1667 33.3332Z" fill="#DD5454"/>
<path d="M40.2408 27.1833C41.0056 26.0319 41.4742 24.7094 41.6049 23.3333H43.3333V21.6667H39.9999V20H38.3333V21.6667H34.9999V23.3333H36.7283C36.859 24.7094 37.3276 26.0319 38.0924 27.1833C37.4735 27.8304 36.7315 28.3471 35.9099 28.7033L34.6716 29.2342L35.3283 30.7658L36.5658 30.235C37.5375 29.8125 38.42 29.2093 39.1666 28.4575C39.9132 29.2093 40.7958 29.8125 41.7674 30.235L43.0049 30.7658L43.6616 29.2342L42.4233 28.7033C41.6018 28.3471 40.8597 27.8304 40.2408 27.1833ZM39.9383 23.3333C39.8332 24.1692 39.5714 24.9778 39.1666 25.7167C38.7618 24.9778 38.5 24.1692 38.395 23.3333H39.9383Z" fill="#DD5454"/>
<path d="M12.5 20.8333C11.6159 20.8333 10.7681 21.1844 10.143 21.8096C9.51783 22.4347 9.16664 23.2825 9.16664 24.1666V29.9999H10.8333V27.4999H14.1666V29.9999H15.8333V24.1666C15.8333 23.2825 15.4821 22.4347 14.857 21.8096C14.2319 21.1844 13.384 20.8333 12.5 20.8333ZM10.8333 25.8333V24.1666C10.8333 23.7246 11.0089 23.3006 11.3215 22.9881C11.634 22.6755 12.0579 22.4999 12.5 22.4999C12.942 22.4999 13.3659 22.6755 13.6785 22.9881C13.991 23.3006 14.1666 23.7246 14.1666 24.1666V25.8333H10.8333Z" fill="#DD5454"/>
<path d="M12.5 16.6665C10.687 16.6665 8.91471 17.2041 7.40726 18.2114C5.89981 19.2186 4.72489 20.6502 4.03109 22.3252C3.33728 24.0002 3.15575 25.8433 3.50945 27.6215C3.86315 29.3997 4.73619 31.033 6.01817 32.315C7.30015 33.597 8.9335 34.47 10.7117 34.8237C12.4898 35.1774 14.3329 34.9959 16.0079 34.3021C17.6829 33.6083 19.1145 32.4333 20.1218 30.9259C21.129 29.4184 21.6667 27.6462 21.6667 25.8332C21.6638 23.4029 20.6971 21.073 18.9786 19.3545C17.2602 17.6361 14.9303 16.6694 12.5 16.6665ZM12.5 33.3332C11.0166 33.3332 9.56658 32.8933 8.33321 32.0692C7.09984 31.2451 6.13854 30.0737 5.57089 28.7033C5.00323 27.3328 4.85471 25.8249 5.14409 24.37C5.43348 22.9151 6.14779 21.5788 7.19668 20.5299C8.24558 19.481 9.58195 18.7667 11.0368 18.4773C12.4917 18.1879 13.9997 18.3364 15.3701 18.9041C16.7406 19.4717 17.9119 20.433 18.736 21.6664C19.5601 22.8998 20 24.3498 20 25.8332C19.9978 27.8216 19.2069 29.728 17.8008 31.134C16.3948 32.5401 14.4884 33.331 12.5 33.3332Z" fill="#DD5454"/>
<path d="M26.4225 17.7441L25.2442 18.9225L26.3217 20H22.5V21.6666H26.3217L25.2442 22.7441L26.4225 23.9225L28.9225 21.4225C29.0787 21.2662 29.1665 21.0543 29.1665 20.8333C29.1665 20.6123 29.0787 20.4004 28.9225 20.2441L26.4225 17.7441Z" fill="#DD5454"/>
<path d="M26.4225 28.9225L25.2441 27.7441L22.7441 30.2441C22.5879 30.4004 22.5001 30.6123 22.5001 30.8333C22.5001 31.0543 22.5879 31.2662 22.7441 31.4225L25.2441 33.9225L26.4225 32.7441L25.345 31.6666H29.1666V30H25.345L26.4225 28.9225Z" fill="#DD5454"/>
<path d="M47.5 13.3333H40V2.5C40 1.83696 39.7366 1.20107 39.2678 0.732233C38.7989 0.263392 38.163 0 37.5 0H14.1667C13.5036 0 12.8677 0.263392 12.3989 0.732233C11.9301 1.20107 11.6667 1.83696 11.6667 2.5V13.3333H4.16667C3.062 13.3347 2.00296 13.7741 1.22185 14.5552C0.440735 15.3363 0.00132321 16.3953 0 17.5V35C0.00132321 36.1047 0.440735 37.1637 1.22185 37.9448C2.00296 38.7259 3.062 39.1653 4.16667 39.1667H11.6667V49.1667C11.6667 49.8297 11.9301 50.4656 12.3989 50.9344C12.8677 51.4033 13.5036 51.6667 14.1667 51.6667H37.5C38.163 51.6667 38.7989 51.4033 39.2678 50.9344C39.7366 50.4656 40 49.8297 40 49.1667V39.1667H47.5C48.6047 39.1653 49.6637 38.7259 50.4448 37.9448C51.2259 37.1637 51.6653 36.1047 51.6667 35V17.5C51.6653 16.3953 51.2259 15.3363 50.4448 14.5552C49.6637 13.7741 48.6047 13.3347 47.5 13.3333ZM20.8333 1.66667H30.8333V2.5C30.8333 2.72101 30.7455 2.93298 30.5893 3.08926C30.433 3.24554 30.221 3.33333 30 3.33333H21.6667C21.4457 3.33333 21.2337 3.24554 21.0774 3.08926C20.9211 2.93298 20.8333 2.72101 20.8333 2.5V1.66667ZM13.3333 2.5C13.3333 2.27899 13.4211 2.06702 13.5774 1.91074C13.7337 1.75446 13.9457 1.66667 14.1667 1.66667H19.1667V2.5C19.1667 3.16304 19.4301 3.79893 19.8989 4.26777C20.3677 4.73661 21.0036 5 21.6667 5H30C30.663 5 31.2989 4.73661 31.7678 4.26777C32.2366 3.79893 32.5 3.16304 32.5 2.5V1.66667H37.5C37.721 1.66667 37.933 1.75446 38.0893 1.91074C38.2455 2.06702 38.3333 2.27899 38.3333 2.5V13.3333H13.3333V2.5ZM38.3333 49.1667C38.3333 49.3877 38.2455 49.5996 38.0893 49.7559C37.933 49.9122 37.721 50 37.5 50H14.1667C13.9457 50 13.7337 49.9122 13.5774 49.7559C13.4211 49.5996 13.3333 49.3877 13.3333 49.1667V39.1667H20.6858C20.8345 39.1667 20.9804 39.2066 21.1085 39.282C21.2365 39.3575 21.3421 39.4658 21.4142 39.5958L23.7475 43.7925C23.9543 44.1645 24.2569 44.4745 24.6237 44.6903C24.9906 44.906 25.4085 45.0198 25.8342 45.0198C26.2598 45.0198 26.6777 44.906 27.0446 44.6903C27.4115 44.4745 27.714 44.1645 27.9208 43.7925L30.2542 39.595C30.3262 39.4654 30.4316 39.3574 30.5593 39.2821C30.687 39.2068 30.8326 39.167 30.9808 39.1667H38.3333V49.1667ZM50 35C50 35.663 49.7366 36.2989 49.2678 36.7678C48.7989 37.2366 48.163 37.5 47.5 37.5H30.9808C30.5351 37.5001 30.0974 37.6193 29.7133 37.8454C29.3291 38.0715 29.0123 38.3962 28.7958 38.7858L26.4625 42.9833C26.3999 43.0954 26.3085 43.1888 26.1977 43.2538C26.087 43.3187 25.9609 43.353 25.8325 43.353C25.7041 43.353 25.578 43.3187 25.4673 43.2538C25.3565 43.1888 25.2651 43.0954 25.2025 42.9833L22.8692 38.7858C22.6528 38.3964 22.3363 38.0719 21.9525 37.8458C21.5686 37.6198 21.1313 37.5004 20.6858 37.5H4.16667C3.50363 37.5 2.86774 37.2366 2.3989 36.7678C1.93006 36.2989 1.66667 35.663 1.66667 35V17.5C1.66667 16.837 1.93006 16.2011 2.3989 15.7322C2.86774 15.2634 3.50363 15 4.16667 15H47.5C48.163 15 48.7989 15.2634 49.2678 15.7322C49.7366 16.2011 50 16.837 50 17.5V35Z" fill="#DD5454"/>
</svg>
