<svg width="48" height="48" viewBox="0 0 48 48" fill="none" xmlns="http://www.w3.org/2000/svg">
<path d="M43.777 33.0625C43.6408 32.5047 43.297 32.0506 42.8106 31.7587C42.3241 31.4733 41.7597 31.3955 41.2084 31.5317L28.3262 34.8852C28.5533 34.5155 28.657 34.0744 28.6116 33.6203C28.5273 32.7058 27.8333 31.9339 26.9251 31.7522L18.0646 29.9231C16.8127 29.6636 15.5154 29.7739 14.3154 30.2668L11.1241 31.5641L10.7414 30.8376C10.6311 30.6171 10.4365 30.4614 10.1965 30.3836C9.96298 30.3122 9.7165 30.3317 9.49596 30.4485L4.63758 33.043C4.1965 33.283 4.02785 33.8344 4.26136 34.282L9.51542 44.2647C9.62569 44.4852 9.82028 44.6409 10.0603 44.7187C10.1446 44.7512 10.2354 44.7641 10.3262 44.7641C10.4754 44.7641 10.6181 44.7252 10.7608 44.6539L15.6257 42.0593C16.0668 41.8193 16.2354 41.2679 16.0019 40.8203L15.6192 40.0939L15.7489 40.0485C16.177 39.8928 16.6311 39.8668 17.0657 39.9706L26.2311 42.1112C26.6268 42.202 27.0354 42.2474 27.4441 42.2474C28.2549 42.2474 29.0657 42.0658 29.8051 41.709L42.6484 35.4625C43.55 35.0279 44.017 34.016 43.777 33.0625ZM15.3403 41.5144L10.4754 44.109C10.4106 44.1479 10.3197 44.1544 10.2419 44.1349C10.1641 44.109 10.0927 44.0571 10.0603 43.9793L4.80623 33.9901C4.73488 33.8409 4.78677 33.6528 4.93596 33.5749L9.79433 30.9868C10.0343 30.8376 10.177 31.0387 10.216 31.1166L15.47 41.0993C15.5478 41.2485 15.4895 41.4366 15.3403 41.5144ZM42.3889 34.9112L29.5457 41.1576C28.5597 41.6312 27.4311 41.7609 26.3738 41.5144L17.2084 39.3739C16.6635 39.2441 16.0927 39.2831 15.5478 39.4776L15.3403 39.549L11.416 32.096L14.5554 30.8182C15.6387 30.3771 16.8062 30.2733 17.9478 30.5133L26.8084 32.3425C27.457 32.4722 27.9435 33.0171 28.0019 33.6722C28.0603 34.3014 27.7165 34.8917 27.1262 35.1706C26.7565 35.1966 24.4278 35.2809 22.1187 34.4571C21.963 34.3987 21.7878 34.4831 21.7295 34.6387C21.6776 34.7944 21.7619 34.9695 21.9176 35.0279C23.7792 35.696 25.6278 35.7998 26.5749 35.7998C26.9576 35.7998 27.1911 35.7803 27.23 35.7803C27.2365 35.7803 27.243 35.7739 27.256 35.7739C27.2689 35.7674 27.2884 35.7739 27.3078 35.7674L41.3705 32.1155C41.7533 32.0182 42.1489 32.0701 42.4992 32.2712C42.843 32.4787 43.083 32.8095 43.1868 33.1987C43.3554 33.8863 43.0246 34.5998 42.3889 34.9112Z" fill="#DD5454"/>
<path d="M15.4611 41.0999L10.207 31.1172C10.1681 31.0458 10.0254 30.8448 9.78538 30.9875L4.927 33.5821C4.77781 33.6599 4.72592 33.848 4.79727 33.9972L10.0513 43.9864C10.0902 44.0577 10.1551 44.1161 10.2329 44.1421C10.3108 44.1615 10.3951 44.155 10.4665 44.1161L15.3313 41.5215C15.487 41.4372 15.5454 41.2491 15.4611 41.0999ZM11.3616 41.9496C10.5183 41.9496 9.83078 41.2685 9.83078 40.4253C9.83078 39.5756 10.5183 38.8945 11.3616 38.8945C12.2048 38.8945 12.8859 39.5756 12.8859 40.4253C12.8859 41.2685 12.2048 41.9496 11.3616 41.9496Z" fill="#DD5454"/>
<path d="M41.5458 3.24414H18.6809C17.5004 3.24414 16.5469 4.20414 16.5469 5.37819V25.7458C16.5469 26.9263 17.5069 27.8798 18.6809 27.8798H41.5393C42.7198 27.8798 43.6734 26.9198 43.6734 25.7458L43.6798 5.37819C43.6863 4.20414 42.7263 3.24414 41.5458 3.24414ZM43.0701 25.7458C43.0701 26.589 42.389 27.2701 41.5458 27.2701H18.6809C17.8442 27.2701 17.1566 26.589 17.1566 25.7458V8.7836H43.0701V25.7458ZM43.0701 8.17387H17.1566V5.38468C17.1566 4.54144 17.8377 3.86036 18.6809 3.86036H41.5458C42.389 3.86036 43.0701 4.54144 43.0701 5.38468V8.17387Z" fill="#DD5454"/>
<path d="M41.5454 3.85352H18.6806C17.8373 3.85352 17.1562 4.5346 17.1562 5.37784V8.16703H43.0698V5.37784C43.0698 4.54108 42.3887 3.85352 41.5454 3.85352ZM19.7314 7.23298C19.0568 7.23298 18.5184 6.68811 18.5184 6.02C18.5184 5.35189 19.0633 4.80054 19.7314 4.80054C20.406 4.80054 20.9508 5.35189 20.9508 6.02C20.9508 6.68811 20.4125 7.23298 19.7314 7.23298ZM23.059 7.23298C22.3844 7.23298 21.8395 6.68811 21.8395 6.02C21.8395 5.35189 22.3908 4.80054 23.059 4.80054C23.7335 4.80054 24.2719 5.35189 24.2719 6.02C24.2719 6.68811 23.7335 7.23298 23.059 7.23298ZM26.38 7.23298C25.7054 7.23298 25.1671 6.68811 25.1671 6.02C25.1671 5.35189 25.7119 4.80054 26.38 4.80054C27.0546 4.80054 27.5995 5.35189 27.5995 6.02C27.5995 6.68811 27.0546 7.23298 26.38 7.23298Z" fill="#DD5454"/>
<path d="M24.7733 13.084H20.4533C20.2847 13.084 20.1484 13.2202 20.1484 13.3888C20.1484 13.5575 20.2847 13.6937 20.4533 13.6937H24.7733C24.942 13.6937 25.0782 13.5575 25.0782 13.3888C25.0782 13.2202 24.942 13.084 24.7733 13.084Z" fill="#DD5454"/>
<path d="M24.7733 14.9258H20.4533C20.2847 14.9258 20.1484 15.062 20.1484 15.2306C20.1484 15.3993 20.2847 15.5355 20.4533 15.5355H24.7733C24.942 15.5355 25.0782 15.3993 25.0782 15.2306C25.0782 15.062 24.942 14.9258 24.7733 14.9258Z" fill="#DD5454"/>
<path d="M24.7733 16.7754H20.4533C20.2847 16.7754 20.1484 16.9116 20.1484 17.0803C20.1484 17.2489 20.2847 17.3851 20.4533 17.3851H24.7733C24.942 17.3851 25.0782 17.2489 25.0782 17.0803C25.0782 16.9116 24.942 16.7754 24.7733 16.7754Z" fill="#DD5454"/>
<path d="M26.5392 17.3851H29.8538C30.0225 17.3851 30.1587 17.2489 30.1587 17.0803C30.1587 16.9116 30.0225 16.7754 29.8538 16.7754H26.5392C26.3706 16.7754 26.2344 16.9116 26.2344 17.0803C26.2344 17.2489 26.3706 17.3851 26.5392 17.3851Z" fill="#DD5454"/>
<path d="M26.5392 15.5355H29.8538C30.0225 15.5355 30.1587 15.3993 30.1587 15.2306C30.1587 15.062 30.0225 14.9258 29.8538 14.9258H26.5392C26.3706 14.9258 26.2344 15.062 26.2344 15.2306C26.2344 15.3993 26.3706 15.5355 26.5392 15.5355Z" fill="#DD5454"/>
<path d="M34.9904 18.6172H26.3439C26.1753 18.6172 26.0391 18.7534 26.0391 18.9221C26.0391 19.0907 26.1753 19.2269 26.3439 19.2269H34.9904C35.1591 19.2269 35.2953 19.0907 35.2953 18.9221C35.2953 18.7534 35.1591 18.6172 34.9904 18.6172Z" fill="#DD5454"/>
<path d="M35.6884 16.7754H32.3674C32.1987 16.7754 32.0625 16.9116 32.0625 17.0803C32.0625 17.2489 32.1987 17.3851 32.3674 17.3851H35.682C35.8506 17.3851 35.9868 17.2489 35.9868 17.0803C35.9933 16.9116 35.8571 16.7754 35.6884 16.7754Z" fill="#DD5454"/>
<path d="M40.346 18.6172H37.0314C36.8628 18.6172 36.7266 18.7534 36.7266 18.9221C36.7266 19.0907 36.8628 19.2269 37.0314 19.2269H40.346C40.5147 19.2269 40.6509 19.0907 40.6509 18.9221C40.6509 18.7534 40.5147 18.6172 40.346 18.6172Z" fill="#DD5454"/>
<path d="M41.5179 16.7754H38.2033C38.0347 16.7754 37.8984 16.9116 37.8984 17.0803C37.8984 17.2489 38.0347 17.3851 38.2033 17.3851H41.5179C41.6865 17.3851 41.8228 17.2489 41.8228 17.0803C41.8228 16.9116 41.6865 16.7754 41.5179 16.7754Z" fill="#DD5454"/>
<path d="M24.7731 18.6172H21.1017C20.9331 18.6172 20.7969 18.7534 20.7969 18.9221C20.7969 19.0907 20.9331 19.2269 21.1017 19.2269H24.7731C24.9417 19.2269 25.078 19.0907 25.078 18.9221C25.078 18.7534 24.9417 18.6172 24.7731 18.6172Z" fill="#DD5454"/>
<path d="M31.4358 20.5959C31.4358 20.4272 31.2996 20.291 31.131 20.291H26.3439C26.1753 20.291 26.0391 20.4272 26.0391 20.5959C26.0391 20.7645 26.1753 20.9007 26.3439 20.9007H31.131C31.2996 20.9007 31.4358 20.7645 31.4358 20.5959Z" fill="#DD5454"/>
<path d="M40.346 20.291H37.0314C36.8628 20.291 36.7266 20.4272 36.7266 20.5959C36.7266 20.7645 36.8628 20.9007 37.0314 20.9007H40.346C40.5147 20.9007 40.6509 20.7645 40.6509 20.5959C40.6509 20.4272 40.5147 20.291 40.346 20.291Z" fill="#DD5454"/>
<path d="M24.7731 20.291H21.1017C20.9331 20.291 20.7969 20.4272 20.7969 20.5959C20.7969 20.7645 20.9331 20.9007 21.1017 20.9007H24.7731C24.9417 20.9007 25.078 20.7645 25.078 20.5959C25.078 20.4272 24.9417 20.291 24.7731 20.291Z" fill="#DD5454"/>
<path d="M24.7689 21.957H19.9689C19.8003 21.957 19.6641 22.0932 19.6641 22.2619C19.6641 22.4305 19.8003 22.5668 19.9689 22.5668H24.7689C24.9376 22.5668 25.0738 22.4305 25.0738 22.2619C25.0738 22.0932 24.9376 21.957 24.7689 21.957Z" fill="#DD5454"/>
<path d="M34.9894 23.6309H29.5861C29.4175 23.6309 29.2812 23.7671 29.2812 23.9357C29.2812 24.1044 29.4175 24.2406 29.5861 24.2406H34.9894C35.158 24.2406 35.2942 24.1044 35.2942 23.9357C35.2942 23.7671 35.158 23.6309 34.9894 23.6309Z" fill="#DD5454"/>
<path d="M40.346 23.6309H37.0314C36.8628 23.6309 36.7266 23.7671 36.7266 23.9357C36.7266 24.1044 36.8628 24.2406 37.0314 24.2406H40.346C40.5147 24.2406 40.6509 24.1044 40.6509 23.9357C40.6509 23.7671 40.5147 23.6309 40.346 23.6309Z" fill="#DD5454"/>
<path d="M24.7733 23.6309H20.4533C20.2847 23.6309 20.1484 23.7671 20.1484 23.9357C20.1484 24.1044 20.2847 24.2406 20.4533 24.2406H24.7733C24.942 24.2406 25.0782 24.1044 25.0782 23.9357C25.0782 23.7671 24.942 23.6309 24.7733 23.6309Z" fill="#DD5454"/>
<path d="M25.7749 11.2363H18.7111C18.5425 11.2363 18.4062 11.3725 18.4062 11.5412C18.4062 11.7098 18.5425 11.8461 18.7111 11.8461H25.7749C25.9435 11.8461 26.0798 11.7098 26.0798 11.5412C26.0798 11.3725 25.9435 11.2363 25.7749 11.2363Z" fill="#DD5454"/>
</svg>
