<svg width="48" height="48" viewBox="0 0 48 48" fill="none" xmlns="http://www.w3.org/2000/svg">
<path d="M31.8838 2.52868H11.4495C11.2231 2.4808 10.9832 2.54943 10.8187 2.70713L2.55579 10.627C2.3775 10.7914 2.30216 11.0385 2.35004 11.2715V41.1892C2.35004 43.5276 4.24949 45.427 6.58788 45.427H31.8769C34.2152 45.427 36.1146 43.5276 36.1146 41.1892V6.75948C36.1146 4.42812 34.2152 2.52868 31.8838 2.52868ZM34.7432 41.1892C34.7432 42.7732 33.4541 44.0556 31.8769 44.0556H6.58788C5.01054 44.0556 3.72147 42.7732 3.72147 41.1892V11.8407H10.1055C11.1547 11.8407 12.0118 10.9903 12.0118 9.92756V3.9001H31.8838C33.461 3.9001 34.7432 5.18247 34.7432 6.75948V41.1892Z" fill="#DD5454"/>
<path d="M30.7819 8.21267C30.7819 7.21825 29.9728 6.41602 28.9786 6.41602H16.5533C15.6042 6.41602 14.75 7.17482 14.75 8.21267C14.75 9.20709 15.5591 10.016 16.5533 10.016H28.9786C29.9499 10.016 30.7819 9.23318 30.7819 8.21267Z" fill="#DD5454"/>
<path d="M10.4261 14.2266C8.27299 14.2266 6.53125 15.9683 6.53125 18.1215C6.53125 20.2677 8.27299 22.0162 10.4261 22.0162C12.5724 22.0162 14.314 20.2677 14.314 18.1215C14.314 15.9683 12.5724 14.2266 10.4261 14.2266ZM12.1472 17.8061L10.5769 19.3694C10.3266 19.6332 9.90028 19.6521 9.6101 19.3765L8.84202 18.6084C8.57467 18.3408 8.57467 17.9019 8.84202 17.6347C9.10954 17.3672 9.54146 17.3672 9.80882 17.6347C9.87779 17.702 10.1659 17.9829 10.0969 17.9156C10.172 17.8405 11.249 16.7637 11.1802 16.8325C11.4478 16.565 11.8797 16.565 12.1472 16.8325C12.4147 17.0997 12.4147 17.5386 12.1472 17.8061Z" fill="#DD5454"/>
<path d="M10.4261 24.1621C8.27299 24.1621 6.53125 25.9039 6.53125 28.0571C6.53125 30.2036 8.27299 31.945 10.4261 31.945C12.5724 31.945 14.314 30.2036 14.314 28.0571C14.314 25.9039 12.5724 24.1621 10.4261 24.1621Z" fill="#DD5454"/>
<path d="M10.4261 34.0996C8.27299 34.0996 6.53125 35.8414 6.53125 37.9946C6.53125 40.1408 8.27299 41.8825 10.4261 41.8825C12.5724 41.8825 14.314 40.1408 14.314 37.9946C14.314 35.8414 12.5724 34.0996 10.4261 34.0996Z" fill="#DD5454"/>
<path d="M31.2404 15.5156H18.2326C17.8554 15.5156 17.5469 15.8243 17.5469 16.2013C17.5469 16.5787 17.8554 16.8871 18.2326 16.8871H31.2404C31.6177 16.8871 31.9261 16.5787 31.9261 16.2013C31.9261 15.8243 31.6177 15.5156 31.2404 15.5156Z" fill="#DD5454"/>
<path d="M18.2326 20.721H24.9662C25.3434 20.721 25.6519 20.419 25.6519 20.0353C25.6519 19.658 25.3434 19.3496 24.9662 19.3496H18.2326C17.8554 19.3496 17.5469 19.658 17.5469 20.0353C17.5469 20.419 17.8554 20.721 18.2326 20.721Z" fill="#DD5454"/>
<path d="M31.2404 25.4531H18.2326C17.8554 25.4531 17.5469 25.7615 17.5469 26.1388C17.5469 26.5158 17.8554 26.8246 18.2326 26.8246H31.2404C31.6177 26.8246 31.9261 26.5158 31.9261 26.1388C31.9261 25.7615 31.6177 25.4531 31.2404 25.4531Z" fill="#DD5454"/>
<path d="M18.2326 30.6566H24.9662C25.3434 30.6566 25.6519 30.3549 25.6519 29.9709C25.6519 29.5939 25.3434 29.2852 24.9662 29.2852H18.2326C17.8554 29.2852 17.5469 29.5939 17.5469 29.9709C17.5469 30.3549 17.8554 30.6566 18.2326 30.6566Z" fill="#DD5454"/>
<path d="M31.2404 35.3887H18.2326C17.8554 35.3887 17.5469 35.6974 17.5469 36.0744C17.5469 36.4517 17.8554 36.7601 18.2326 36.7601H31.2404C31.6177 36.7601 31.9261 36.4517 31.9261 36.0744C31.9261 35.6974 31.6177 35.3887 31.2404 35.3887Z" fill="#DD5454"/>
<path d="M24.9662 39.2207H18.2326C17.8554 39.2207 17.5469 39.5291 17.5469 39.9064C17.5469 40.2905 17.8554 40.5921 18.2326 40.5921H24.9662C25.3434 40.5921 25.6519 40.2905 25.6519 39.9064C25.6519 39.5291 25.3434 39.2207 24.9662 39.2207Z" fill="#DD5454"/>
<path d="M41.8876 13.8713C39.8167 13.8509 38.0475 15.5514 38.0269 17.6564C38.0266 17.7308 37.9377 38.7079 37.9377 38.7833C37.931 39.4004 38.0887 40.0108 38.4041 40.5388L41.0989 45.1466C41.3502 45.59 42.0014 45.6111 42.2715 45.1603L45.0761 40.6004C45.4121 40.0587 45.5835 39.4349 45.5698 38.7971C45.5789 36.6439 45.5367 46.5971 45.659 17.7388C45.6734 15.544 43.8851 13.8713 41.8876 13.8713ZM44.1984 38.118L42.4429 38.0976L42.5115 19.7136L44.2806 19.734L44.1984 38.118ZM41.1401 19.6932L41.0715 38.0769L39.3091 38.0564L39.3778 19.6724L41.1401 19.6932Z" fill="#DD5454"/>
</svg>
