<svg width="48" height="48" viewBox="0 0 48 48" fill="none" xmlns="http://www.w3.org/2000/svg">
<g clip-path="url(#clip0_1685_12231)">
<path d="M33 45C31.897 45 31 44.103 31 43V40C31 39.447 30.553 39 30 39H6C5.447 39 5 39.447 5 40V43C5 45.206 6.794 47 9 47H33C33.553 47 34 46.553 34 46C34 45.447 33.553 45 33 45Z" fill="#DD5454"/>
<path d="M33 47C30.794 47 29 45.206 29 43V41H8C7.447 41 7 40.553 7 40V8C7 7.447 7.447 7 8 7H30C30.266 7 30.52 7.105 30.707 7.293L36.707 13.293C36.895 13.48 37 13.734 37 14V43C37 44.968 35.596 46.623 33.66 46.938C33.457 46.992 33.182 47 33 47ZM9 39H30C30.553 39 31 39.447 31 40V43C31 44.103 31.897 45 33 45C33.044 45 33.178 45 33.258 44.98C34.302 44.807 35 43.981 35 43V14.414L29.586 9H9V39Z" fill="#DD5454"/>
<path d="M39 40C36.794 40 35 38.206 35 36V14.414L29.586 9H14C13.447 9 13 8.553 13 8V2C13 1.447 13.447 1 14 1H36C36.266 1 36.52 1.105 36.707 1.293L42.707 7.293C42.895 7.48 43 7.734 43 8V36C43 37.968 41.596 39.623 39.66 39.938C39.457 39.992 39.182 40 39 40ZM15 7H30C30.266 7 30.52 7.105 30.707 7.293L36.707 13.293C36.895 13.48 37 13.734 37 14V36C37 37.103 37.897 38 39 38C39.044 38 39.178 38 39.258 37.98C40.302 37.807 41 36.981 41 36V8.414L35.586 3H15V7Z" fill="#DD5454"/>
<path d="M22 23C20.897 23 20 22.103 20 21C20 19.897 20.897 19 22 19C23.103 19 24 19.897 24 21C24 21.553 24.447 22 25 22C25.553 22 26 21.553 26 21C26 19.141 24.721 17.589 23 17.142V16C23 15.447 22.553 15 22 15C21.447 15 21 15.447 21 16V17.142C19.279 17.589 18 19.141 18 21C18 23.206 19.794 25 22 25C23.103 25 24 25.897 24 27C24 28.103 23.103 29 22 29C20.897 29 20 28.103 20 27C20 26.447 19.553 26 19 26C18.447 26 18 26.447 18 27C18 28.859 19.279 30.411 21 30.858V32C21 32.553 21.447 33 22 33C22.553 33 23 32.553 23 32V30.858C24.721 30.411 26 28.859 26 27C26 24.794 24.206 23 22 23Z" fill="#DD5454"/>
<path d="M36 13.0005H35.707L30.353 7.64648L30 8.00048C29.986 8.00048 29.975 8.00748 29.961 8.00848C29.564 8.02448 29.225 8.26448 29.079 8.61148C29.028 8.73048 29 8.86248 29 9.00048V14.0005C29 14.5535 29.447 15.0005 30 15.0005H36C36.553 15.0005 37 14.5535 37 14.0005C37 13.4475 36.553 13.0005 36 13.0005Z" fill="#DD5454"/>
<path d="M42 7.00048H41.707L36.353 1.64648L36 2.00048C35.986 2.00048 35.975 2.00748 35.961 2.00848C35.564 2.02448 35.225 2.26448 35.079 2.61148C35.028 2.73048 35 2.86248 35 3.00048V8.00048C35 8.55348 35.447 9.00048 36 9.00048H42C42.553 9.00048 43 8.55348 43 8.00048C43 7.44748 42.553 7.00048 42 7.00048Z" fill="#DD5454"/>
</g>
<defs>
<clipPath id="clip0_1685_12231">
<rect width="48" height="48" fill="white"/>
</clipPath>
</defs>
</svg>
