<svg width="48" height="48" viewBox="0 0 48 48" fill="none" xmlns="http://www.w3.org/2000/svg">
<path d="M20.3272 14.4004H8.60956C7.48015 14.4004 6.5625 15.318 6.5625 16.4474V25.2004C6.5625 26.3298 7.48015 27.2474 8.60956 27.2474H20.3272C21.4566 27.2474 22.3743 26.3298 22.3743 25.2004V16.4474C22.3743 15.318 21.4566 14.4004 20.3272 14.4004ZM11.0096 20.6122L9.52721 19.4122C9.38603 19.271 9.24485 19.0592 9.24485 18.8475C9.24485 18.6357 9.31544 18.4239 9.52721 18.2827L11.0096 17.0827C11.2919 16.871 11.786 16.871 11.9978 17.1533C12.2096 17.4357 12.2096 17.9298 11.8566 18.1416L11.0801 18.7769L11.8566 19.4122C12.139 19.6239 12.2096 20.118 11.9978 20.4004C11.786 20.8239 11.2919 20.8945 11.0096 20.6122ZM16.3037 17.2945L13.4801 24.7769C13.339 25.1298 12.9154 25.3416 12.5625 25.2004C12.2096 25.0592 11.9978 24.6357 12.139 24.2827L14.9625 16.8004C15.1037 16.4474 15.5272 16.2357 15.8801 16.3769C16.3037 16.5886 16.4449 16.9416 16.3037 17.2945ZM19.4096 22.9416L17.9272 24.1416C17.6449 24.3533 17.2213 24.3533 16.939 24.071C16.6566 23.7886 16.7272 23.2945 17.0096 23.0827L17.786 22.4474L17.0096 21.8122C16.7272 21.6004 16.6566 21.1063 16.939 20.8239C17.1507 20.5416 17.6449 20.471 17.9272 20.6827L19.4096 21.8827C19.5507 22.0239 19.6919 22.2357 19.6919 22.4474C19.6919 22.5886 19.5507 22.8004 19.4096 22.9416Z" fill="#DD5454"/>
<path d="M20.8903 29.6465H8.0432C7.47849 29.6465 6.98438 30.1406 6.98438 30.7053C6.98438 31.27 7.47849 31.7641 8.0432 31.7641H20.8197C21.3844 31.7641 21.8785 31.27 21.8785 30.7053C21.9491 30.1406 21.455 29.6465 20.8903 29.6465Z" fill="#DD5454"/>
<path d="M13.9726 34.0234H8.0432C7.47849 34.0234 6.98438 34.5176 6.98438 35.0823C6.98438 35.647 7.47849 36.1411 8.0432 36.1411H13.9726C14.5373 36.1411 15.0314 35.647 15.0314 35.0823C15.0314 34.5176 14.5373 34.0234 13.9726 34.0234Z" fill="#DD5454"/>
<path d="M27.0354 17.5063H36.9177C37.4824 17.5063 37.9766 17.0122 37.9766 16.4475C37.9766 15.8828 37.4824 15.3887 36.9177 15.3887H27.0354C26.4707 15.3887 25.9766 15.8828 25.9766 16.4475C25.9766 17.0122 26.4001 17.5063 27.0354 17.5063Z" fill="#DD5454"/>
<path d="M37.9062 24.5647C37.9062 24 37.4121 23.5059 36.8474 23.5059H26.9651C26.4004 23.5059 25.9062 24 25.9062 24.5647C25.9062 25.1294 26.4004 25.6235 26.9651 25.6235H36.8474C37.4827 25.6235 37.9062 25.1294 37.9062 24.5647Z" fill="#DD5454"/>
<path d="M27.0354 21.5298H31.6236C32.1883 21.5298 32.6824 21.0356 32.6824 20.4709C32.6824 19.9062 32.1883 19.4121 31.6236 19.4121H27.0354C26.4707 19.4121 25.9766 19.9062 25.9766 20.4709C25.9766 21.1062 26.4001 21.5298 27.0354 21.5298Z" fill="#DD5454"/>
<path d="M44.964 35.0819L44.1875 34.9407C43.9757 34.3054 43.764 33.6701 43.411 33.0348L43.8346 32.3995C44.1169 31.976 44.0463 31.4819 43.6934 31.129L43.2699 30.7054C43.2699 28.3054 43.2699 39.4584 43.2699 7.05836C43.2699 4.37601 41.0816 2.11719 38.3287 2.11719H7.12868C4.37574 2.11719 2.1875 4.30542 2.1875 7.05836V35.1525C2.1875 37.8348 4.37574 40.0231 7.05809 40.0231H29.7169C29.7875 40.3054 29.9287 40.5172 30.0699 40.7995L29.6463 41.4348C29.364 41.8584 29.4346 42.3525 29.7875 42.7054L30.9875 43.9054C31.3404 44.2584 31.8346 44.329 32.2581 44.0466L32.8934 43.6231C33.4581 43.976 34.0934 44.1878 34.7993 44.3995L34.9404 45.176C35.011 45.6701 35.4346 45.9525 35.9287 45.9525H37.5522C38.0463 45.9525 38.4699 45.5995 38.5404 45.1054L38.6816 44.3995C39.3169 44.2584 39.9522 43.976 40.5875 43.6231L41.2228 44.0466C41.6463 44.329 42.1404 44.2584 42.4934 43.9054L43.6934 42.7054C44.0463 42.3525 44.1169 41.8584 43.8346 41.4348L43.411 40.7995C43.764 40.2348 44.0463 39.5995 44.1875 38.8937L44.8934 38.7525C45.3875 38.6819 45.7404 38.2584 45.7404 37.7642V36.1407C45.7404 35.576 45.3875 35.1525 44.964 35.0819ZM32.3287 29.8584C31.9051 29.576 31.411 29.6466 31.0581 29.9995L29.8581 31.1995C29.5051 31.5525 29.4346 32.1172 29.7169 32.4701L30.1404 33.1054C29.7875 33.7407 29.5051 34.376 29.364 35.0113L28.6581 35.1525C28.164 35.2937 27.811 35.6466 27.811 36.1407V37.7642C27.811 38.1172 28.0228 38.4701 28.3051 38.6113H7.12868C5.22279 38.6113 3.66985 37.0584 3.66985 35.1525V11.4348H41.8581V29.6466C41.6463 29.6466 41.4346 29.7172 41.2934 29.7878L40.6581 30.2113C40.0934 29.8584 39.3875 29.576 38.7522 29.4348L38.611 28.729C38.5404 28.2348 38.1169 27.8819 37.6228 27.8819H35.9993C35.5051 27.8819 35.0816 28.2348 35.011 28.729L34.8699 29.4348C34.2346 29.6466 33.5993 29.8584 32.964 30.2113L32.3287 29.8584ZM24.1404 6.77601C24.1404 7.19954 23.8581 7.48189 23.4346 7.48189H22.8699C22.4463 7.48189 22.164 7.19954 22.164 6.77601C22.164 6.42307 22.4463 6.07013 22.8699 6.07013H23.4346C23.8581 6.07013 24.1404 6.35248 24.1404 6.77601ZM15.8816 6.77601C15.8816 7.48189 15.3169 8.0466 14.611 8.0466C13.9051 8.0466 13.3404 7.48189 13.3404 6.77601C13.3404 6.07013 13.9051 5.50542 14.611 5.50542C15.3169 5.50542 15.8816 6.07013 15.8816 6.77601ZM11.9993 6.77601C11.9993 7.48189 11.4346 8.0466 10.7287 8.0466C10.0228 8.0466 9.45809 7.48189 9.45809 6.77601C9.45809 6.07013 10.0228 5.50542 10.7287 5.50542C11.4346 5.50542 11.9993 6.07013 11.9993 6.77601ZM6.77574 5.50542C7.48162 5.50542 8.04632 6.07013 8.04632 6.77601C8.04632 7.48189 7.48162 8.0466 6.77574 8.0466C6.06985 8.0466 5.50515 7.48189 5.50515 6.77601C5.50515 6.07013 6.06985 5.50542 6.77574 5.50542ZM27.1757 6.07013H38.3993C38.8228 6.07013 39.1051 6.42307 39.1051 6.77601C39.1051 7.19954 38.8228 7.48189 38.3993 7.48189H27.1757C26.8228 7.48189 26.4699 7.19954 26.4699 6.77601C26.4699 6.35248 26.8228 6.07013 27.1757 6.07013ZM36.7757 40.729C34.6581 40.729 32.964 38.9642 32.964 36.9172C32.964 34.7995 34.6581 33.1054 36.7757 33.1054C38.8934 33.1054 40.5875 34.7995 40.5875 36.9172C40.6581 39.0348 38.8934 40.729 36.7757 40.729Z" fill="#DD5454"/>
</svg>
