<svg width="48" height="48" viewBox="0 0 48 48" fill="none" xmlns="http://www.w3.org/2000/svg">
<path d="M37.998 21.4043C37.998 21.4043 34.9871 25.6734 29.4453 25.957V36.6698C29.4453 37.4116 29.6708 38.1388 30.0926 38.7498C31.2489 40.4079 33.9326 43.0698 37.9908 44.8952C42.0489 43.0698 44.7253 40.4079 45.8817 38.7498C46.3108 38.1388 46.5289 37.4188 46.5289 36.6698V25.957C41.0017 25.6734 37.998 21.4043 37.998 21.4043ZM44.3617 36.6698C44.3617 36.9679 44.2744 37.2588 44.0999 37.4988C43.1399 38.8807 41.0089 40.9316 37.998 42.4734C34.9871 40.9316 32.8489 38.8807 31.8889 37.4988C31.7217 37.2588 31.6271 36.9679 31.6271 36.6698V27.8625C34.4853 27.2516 36.6235 25.797 37.9908 24.5825C39.358 25.8043 41.4962 27.2588 44.3544 27.8625V36.6698H44.3617Z" fill="#DD5454"/>
<path d="M34.8241 33.4853C34.5405 33.2016 34.0823 33.2016 33.7987 33.4853C33.515 33.7689 33.515 34.2271 33.7987 34.5107L35.9441 36.6562C36.0896 36.8016 36.2714 36.8671 36.4605 36.8671C36.6496 36.8671 36.8314 36.7944 36.9768 36.6562L42.2132 31.4198C42.4968 31.1362 42.4968 30.678 42.2132 30.3944C41.9296 30.1107 41.4714 30.1107 41.1878 30.3944L36.4605 35.1216L34.8241 33.4853Z" fill="#DD5454"/>
<path d="M17.5314 24.1836H7.52415C7.12415 24.1836 6.79688 24.5109 6.79688 24.9109C6.79688 25.3109 7.12415 25.6381 7.52415 25.6381H17.5314C17.9314 25.6381 18.2587 25.3109 18.2587 24.9109C18.2587 24.5109 17.9314 24.1836 17.5314 24.1836Z" fill="#DD5454"/>
<path d="M18.2587 27.6159C18.2587 27.2159 17.9314 26.8887 17.5314 26.8887H7.52415C7.12415 26.8887 6.79688 27.2159 6.79688 27.6159C6.79688 28.0159 7.12415 28.3432 7.52415 28.3432H17.5314C17.9314 28.3432 18.2587 28.0232 18.2587 27.6159Z" fill="#DD5454"/>
<path d="M7.52415 29.6016C7.12415 29.6016 6.79688 29.9288 6.79688 30.3288C6.79688 30.7288 7.12415 31.0561 7.52415 31.0561H13.6769C14.0769 31.0561 14.4041 30.7288 14.4041 30.3288C14.4041 29.9288 14.0769 29.6016 13.6769 29.6016H7.52415Z" fill="#DD5454"/>
<path d="M37.2685 13.2875V19.9275L38.0103 18.8947L39.1885 20.5602C39.1957 20.5747 39.5448 21.0402 40.1848 21.6438V12.8729C40.1848 11.4911 39.0648 10.3711 37.683 10.3711H32.3594C32.4176 10.8511 32.4612 11.3384 32.4612 11.8329C32.4612 12.3275 32.4176 12.8147 32.3594 13.2947H37.2685V13.2875Z" fill="#DD5454"/>
<path d="M27.5307 41.3398H14.1053L12.6362 44.1689H9.73438V46.358H31.9089V44.1689H29.0071L27.5307 41.3398Z" fill="#DD5454"/>
<path d="M20.8219 22.0227C26.451 22.0227 31.011 17.4627 31.011 11.8336C31.011 6.20453 26.451 1.64453 20.8219 1.64453C15.1928 1.64453 10.6328 6.20453 10.6328 11.8336C10.6328 17.4627 15.1928 22.0227 20.8219 22.0227ZM14.2401 9.39726C15.0183 6.3718 17.7383 4.26271 20.8583 4.26271C23.6437 4.26271 26.1019 5.94271 27.1564 8.4518L27.3165 8.17544C27.5128 7.82635 27.9564 7.70999 28.3128 7.90635C28.6619 8.10271 28.7783 8.55362 28.5819 8.90271L27.6001 10.6191C27.4692 10.8518 27.2219 10.9827 26.9674 10.9827C26.8437 10.9827 26.7201 10.9536 26.6037 10.8882L24.8874 9.90635C24.5383 9.70998 24.4219 9.25908 24.6183 8.90999C24.8146 8.56089 25.2583 8.44453 25.6146 8.64089L25.6437 8.65544C24.7419 6.88817 22.9164 5.71726 20.8655 5.71726C18.4074 5.71726 16.2619 7.38271 15.651 9.76089C15.5492 10.1536 15.1564 10.3863 14.7637 10.2845C14.3783 10.1827 14.1455 9.78271 14.2401 9.39726ZM13.0619 14.5173L14.0437 12.8009C14.1383 12.6336 14.2983 12.51 14.4874 12.4591C14.6692 12.4082 14.8728 12.4373 15.0401 12.5318L16.7564 13.5136C17.1055 13.7173 17.2219 14.1609 17.0255 14.51C16.8219 14.8591 16.3783 14.9754 16.0292 14.7791L15.9346 14.7282C16.7783 16.6627 18.6983 17.95 20.8583 17.95C23.3164 17.95 25.4546 16.2845 26.0728 13.9063C26.1746 13.5136 26.5746 13.2809 26.9601 13.3827C27.3528 13.4845 27.5855 13.8773 27.4837 14.27C26.7055 17.2954 23.9855 19.4045 20.8655 19.4045C18.0001 19.4045 15.4692 17.6154 14.4728 14.9754L14.3201 15.2373C14.1892 15.47 13.9419 15.6009 13.6874 15.6009C13.5637 15.6009 13.4401 15.5718 13.3237 15.5063C12.9819 15.31 12.8583 14.8591 13.0619 14.5173Z" fill="#DD5454"/>
<path d="M28.9077 39.5798C28.3113 38.7216 27.9986 37.718 27.9986 36.6707V34.0452H4.36949V13.2889H9.27858C9.2204 12.8089 9.17676 12.3216 9.17676 11.8271C9.17676 11.3325 9.2204 10.8452 9.27858 10.3652H3.95494C2.57313 10.3725 1.45312 11.4925 1.45312 12.8743V37.3834C1.45312 38.7652 2.57313 39.8852 3.95494 39.8852H29.1404C29.0604 39.7834 28.9731 39.6743 28.9077 39.5798ZM20.8204 37.6016C20.4204 37.6016 20.0931 37.2743 20.0931 36.8743C20.0931 36.4743 20.4204 36.1471 20.8204 36.1471C21.2204 36.1471 21.5477 36.4743 21.5477 36.8743C21.5477 37.2743 21.2204 37.6016 20.8204 37.6016Z" fill="#DD5454"/>
</svg>
