<svg width="48" height="48" viewBox="0 0 48 48" fill="none" xmlns="http://www.w3.org/2000/svg">
<path d="M43.7668 5.38719C43.2437 4.86417 42.5484 4.57617 41.8086 4.57617C41.069 4.57617 40.3735 4.86417 39.8505 5.38719L31.4501 13.7876C29.2857 11.6594 26.5712 10.3037 23.6178 9.85562C22.901 9.74688 22.1702 9.69149 21.4297 9.69149C13.5404 9.69149 7.122 16.1099 7.122 23.9992C7.122 26.2877 7.64621 28.4744 8.68006 30.4986C9.666 32.429 11.1055 34.1394 12.843 35.4449C12.9261 35.5074 13.0234 35.5375 13.1199 35.5375C13.2601 35.5375 13.3985 35.4739 13.4892 35.3532C13.6423 35.1494 13.6013 34.86 13.3974 34.707C9.996 32.1512 8.04507 28.2483 8.04507 23.9992C8.04507 16.6189 14.0494 10.6146 21.4297 10.6146C24.9733 10.6146 28.2818 11.9701 30.7974 14.4403L22.8799 22.3579L18.3109 17.7888C17.7879 17.2658 17.0923 16.9777 16.3527 16.9777C15.613 16.9777 14.9176 17.2658 14.3945 17.7888C13.8714 18.3119 13.5834 19.0073 13.5834 19.7469C13.5834 20.4866 13.8715 21.182 14.3945 21.7051L22.5535 29.864C22.6437 29.9541 22.7618 29.9992 22.8799 29.9992C22.9981 29.9992 23.1161 29.9541 23.2063 29.864L33.9117 19.1586C34.5107 20.6992 34.8143 22.3243 34.8143 23.9992C34.8143 31.3795 28.81 37.3838 21.4297 37.3838C21.1748 37.3838 20.9681 37.5904 20.9681 37.8453C20.9681 38.1003 21.1748 38.3069 21.4297 38.3069C29.319 38.3069 35.7374 31.8885 35.7374 23.9992C35.7374 22.0728 35.3613 20.2077 34.6202 18.45L36.7066 16.3636C37.8852 18.7204 38.5066 21.3465 38.5066 23.9992C38.5066 33.4155 30.846 41.0761 21.4297 41.0761C12.0135 41.0761 4.35276 33.4155 4.35276 23.9992C4.35276 14.583 12.0135 6.92226 21.4297 6.92226C23.9414 6.92226 26.3604 7.45497 28.6198 8.50562C28.851 8.61316 29.1255 8.51291 29.233 8.28177C29.3405 8.05063 29.2402 7.77611 29.0091 7.66866C26.6269 6.56088 24.0768 5.99919 21.4297 5.99919C11.5045 5.99919 3.42969 14.074 3.42969 23.9992C3.42969 33.9244 11.5045 41.9992 21.4297 41.9992C31.3549 41.9992 39.4297 33.9244 39.4297 23.9992C39.4297 21.1007 38.7248 18.2322 37.392 15.6782L43.7668 9.30343C44.2899 8.78042 44.5779 8.08497 44.578 7.34531C44.578 6.60565 44.2899 5.91029 43.7668 5.38719Z" fill="#DD5454"/>
<path d="M39.8936 37.3848C38.6212 37.3848 37.5859 38.42 37.5859 39.6925C37.5859 40.9649 38.6212 42.0002 39.8936 42.0002C41.1661 42.0002 42.2013 40.9649 42.2013 39.6925C42.2013 38.42 41.1661 37.3848 39.8936 37.3848Z" fill="#DD5454"/>
<path d="M5.27584 41.0762C4.25787 41.0762 3.42969 41.9044 3.42969 42.9223C3.42969 43.9403 4.25787 44.7685 5.27584 44.7685C6.29381 44.7685 7.122 43.9403 7.122 42.9223C7.122 41.9044 6.29381 41.0762 5.27584 41.0762Z" fill="#DD5454"/>
<path d="M10.8149 6.92278C11.8329 6.92278 12.6611 6.09459 12.6611 5.07662C12.6611 4.05865 11.8329 3.23047 10.8149 3.23047C9.79693 3.23047 8.96875 4.05865 8.96875 5.07662C8.96875 6.09459 9.79693 6.92278 10.8149 6.92278Z" fill="#DD5454"/>
</svg>
