<svg width="20" height="18" viewBox="0 0 20 18" fill="none" xmlns="http://www.w3.org/2000/svg">
<path d="M19.5 16.751C19.5 17.165 19.164 17.501 18.75 17.501H2.25C0.841 17.501 0 16.66 0 15.251V0.750977C0 0.336977 0.336 0.000976562 0.75 0.000976562C1.164 0.000976562 1.5 0.336977 1.5 0.750977V15.251C1.5 15.84 1.661 16.001 2.25 16.001H18.75C19.164 16.001 19.5 16.337 19.5 16.751ZM10 8.75098V12.751C10 13.165 10.336 13.501 10.75 13.501C11.164 13.501 11.5 13.165 11.5 12.751V8.75098C11.5 8.33698 11.164 8.00098 10.75 8.00098C10.336 8.00098 10 8.33698 10 8.75098ZM15.75 6.00098C15.336 6.00098 15 6.33698 15 6.75098V12.751C15 13.165 15.336 13.501 15.75 13.501C16.164 13.501 16.5 13.165 16.5 12.751V6.75098C16.5 6.33698 16.164 6.00098 15.75 6.00098ZM5.75 13.501C6.164 13.501 6.5 13.165 6.5 12.751V10.751C6.5 10.337 6.164 10.001 5.75 10.001C5.336 10.001 5 10.337 5 10.751V12.751C5 13.165 5.336 13.501 5.75 13.501ZM5.75 5.651C5.942 5.651 6.134 5.57803 6.28 5.43103L7.95499 3.75598C8.14299 3.56798 8.48101 3.56798 8.67001 3.75598L9.82001 4.90601C10.602 5.68901 11.875 5.68801 12.655 4.90601L15 2.56104V3.75098C15 4.16498 15.336 4.50098 15.75 4.50098C16.164 4.50098 16.5 4.16498 16.5 3.75098V0.750977C16.5 0.652977 16.48 0.555989 16.442 0.463989C16.366 0.280989 16.22 0.134983 16.037 0.0579834C15.945 0.0199834 15.848 0 15.75 0H12.75C12.336 0 12 0.336 12 0.75C12 1.164 12.336 1.5 12.75 1.5H13.939L11.594 3.84497C11.4 4.03897 11.073 4.03797 10.88 3.84497L9.73001 2.69495C8.94801 1.91295 7.67601 1.91295 6.89401 2.69495L5.21899 4.37C4.92599 4.663 4.92599 5.13803 5.21899 5.43103C5.36599 5.57803 5.558 5.651 5.75 5.651Z" fill="white"/>
</svg>
