<svg width="21" height="26" viewBox="0 0 21 26" fill="none" xmlns="http://www.w3.org/2000/svg">
<path d="M15.6667 26H5C1.776 26 0 24.224 0 21V5C0 1.776 1.776 0 5 0H15.6667C18.8907 0 20.6667 1.776 20.6667 5V21C20.6667 24.224 18.8907 26 15.6667 26ZM5 2C2.89733 2 2 2.89733 2 5V21C2 23.1027 2.89733 24 5 24H15.6667C17.7693 24 18.6667 23.1027 18.6667 21V5C18.6667 2.89733 17.7693 2 15.6667 2H5ZM13.3333 5C13.3333 4.448 12.8853 4 12.3333 4H8.33333C7.78133 4 7.33333 4.448 7.33333 5C7.33333 5.552 7.78133 6 8.33333 6H12.3333C12.8853 6 13.3333 5.552 13.3333 5ZM10.3333 19.6667C9.59733 19.6667 9 20.264 9 21C9 21.736 9.59733 22.3333 10.3333 22.3333C11.0693 22.3333 11.6667 21.736 11.6667 21C11.6667 20.264 11.0693 19.6667 10.3333 19.6667Z" fill="white"/>
</svg>
