<svg width="128" height="22" viewBox="0 0 128 22" fill="none" xmlns="http://www.w3.org/2000/svg">
<g clip-path="url(#clip0_1251_4395)">
<path fill-rule="evenodd" clip-rule="evenodd" d="M57.3077 15.569C57.0187 15.569 56.3827 15.4302 56.3827 14.5654V13.903H56.3452C55.9628 14.4609 55.4476 14.9147 54.8459 15.2232C54.2444 15.5318 53.5754 15.6854 52.8996 15.6702C49.9685 15.6702 48.1012 13.42 48.1012 10.626C48.1012 7.83205 50.038 5.61658 52.8996 5.61658C53.5593 5.60669 54.2118 5.75484 54.8026 6.04866C55.3936 6.34248 55.9055 6.7735 56.296 7.3057H56.3365V1.09884C56.3365 0.216673 56.9782 0.0546875 57.2788 0.0546875C57.5794 0.0546875 58.224 0.216673 58.224 1.09884V14.5654C58.2124 15.4302 57.588 15.569 57.3077 15.569ZM53.2292 14.0824C55.16 14.0824 56.4434 12.4743 56.4434 10.6463C56.4434 8.81841 55.16 7.17555 53.2292 7.17555C51.1623 7.17555 50.0755 8.82418 50.0755 10.6116C50.0755 12.399 51.1653 14.0824 53.2292 14.0824ZM35.8008 13.2095C35.7053 13.1728 35.6034 13.1558 35.5011 13.1598C35.2551 13.1728 35.0211 13.2709 34.8393 13.4374C34.3162 13.8585 33.6602 14.079 32.9892 14.0592C31.0005 14.0592 29.8964 12.4713 29.8964 10.6434C29.8964 8.81552 31.0411 7.20732 33.0095 7.20732C33.6155 7.20216 34.2046 7.40655 34.6774 7.78578C35.0387 8.08952 35.2208 8.14734 35.4202 8.14734C35.5312 8.15435 35.6422 8.13792 35.7465 8.09928C35.8507 8.06057 35.9457 8.00042 36.0252 7.92273C36.1048 7.84504 36.1671 7.75154 36.2082 7.64828C36.2494 7.54495 36.2685 7.43412 36.2643 7.32309C36.2617 7.28617 36.2572 7.24953 36.2509 7.21323C36.2427 7.16607 36.2312 7.11952 36.2168 7.07387C36.1928 6.9979 36.1602 6.92462 36.1195 6.85541C36.0359 6.71291 35.9202 6.59174 35.7816 6.50165C34.9759 5.90235 33.9927 5.59067 32.9892 5.61658C30.0784 5.61658 27.9105 7.61232 27.9105 10.6463C27.9105 13.6803 30.0409 15.6702 32.9922 15.6702C34.0211 15.7011 35.029 15.3752 35.8452 14.7476C35.9793 14.6558 36.0894 14.5328 36.1659 14.3894C36.2423 14.2458 36.283 14.086 36.2845 13.9233C36.2857 13.8209 36.2662 13.7194 36.227 13.6249C36.1879 13.5303 36.1299 13.4447 36.0566 13.3734C35.9832 13.3019 35.8963 13.2462 35.8008 13.2095ZM37.0274 10.626C37.0274 13.5617 39.2358 15.6702 42.1495 15.6702C45.0603 15.6702 47.2918 13.553 47.2918 10.6203C47.2918 7.68747 45.0632 5.61658 42.1495 5.61658C39.2358 5.61658 37.0274 7.69035 37.0274 10.626ZM38.9699 10.626C38.9699 8.8184 40.1262 7.18999 42.1495 7.18999C44.1989 7.18999 45.3292 8.81552 45.3292 10.626C45.3292 12.4366 44.173 14.0824 42.1495 14.0824C40.1262 14.0824 38.9699 12.4338 38.9699 10.626ZM62.2209 13.2826C61.6436 12.7429 61.2988 11.9997 61.2592 11.2104L67.8063 11.2045C68.4712 11.2045 68.8125 10.9008 68.8125 10.2385C68.8166 10.0305 68.8029 9.82236 68.7719 9.61666C68.4105 7.00203 66.6415 5.61658 64.2509 5.61658C61.4586 5.61658 59.3427 7.69902 59.3427 10.6781C59.3427 13.6572 61.4731 15.6818 64.3637 15.6818C65.0324 15.7089 65.6994 15.5961 66.322 15.3505C66.9447 15.105 67.5093 14.7322 67.9797 14.2559C68.0949 14.1363 68.1788 13.9917 68.2257 13.835C68.251 13.7506 68.2657 13.6627 68.2688 13.5733C68.2717 13.4678 68.2528 13.3629 68.2131 13.2652C68.201 13.235 68.1869 13.2058 68.1711 13.1776L68.1567 13.1532C68.1494 13.1413 68.1419 13.1296 68.134 13.1182C68.1206 13.0988 68.1063 13.08 68.0913 13.0619C68.0748 13.0421 68.0572 13.0232 68.0387 13.0052C67.9632 12.9316 67.8733 12.8744 67.7745 12.8373C67.6759 12.8001 67.5705 12.7838 67.4653 12.7895C67.3411 12.7902 67.2183 12.8161 67.1045 12.8659C67.0643 12.8835 67.0255 12.9038 66.9884 12.9269C66.9747 12.9354 66.9613 12.9442 66.9481 12.9533C66.9316 12.9648 66.9155 12.9767 66.9 12.9893C66.8657 13.0167 66.8334 13.0465 66.8033 13.0787C66.4842 13.4052 66.1029 13.664 65.6816 13.84C65.2606 14.0158 64.8084 14.1051 64.3521 14.1026C63.5623 14.1163 62.798 13.8223 62.2209 13.2826ZM64.2509 7.109C65.9997 7.109 66.8842 8.29487 66.9247 9.80173H61.2592C61.3249 9.05745 61.6701 8.36575 62.2252 7.86608C62.7805 7.36633 63.5043 7.09587 64.2509 7.109ZM77.2268 13.1597C77.3293 13.1558 77.431 13.1727 77.5266 13.2094C77.6221 13.2461 77.7088 13.3019 77.7823 13.3733C77.8552 13.4447 77.9136 13.5303 77.9528 13.6249C77.992 13.7193 78.0113 13.8209 78.0099 13.9233C78.0085 14.0862 77.9673 14.2461 77.8903 14.3898C77.8531 14.4591 77.8078 14.5236 77.7562 14.582C77.7005 14.6446 77.6373 14.7002 77.5678 14.7475C76.7524 15.3746 75.7459 15.7006 74.7174 15.6702C71.7633 15.6702 69.6334 13.6803 69.6334 10.6463C69.6334 7.61225 71.8038 5.61651 74.7174 5.61651C75.7205 5.59109 76.7023 5.9027 77.5073 6.50157C77.5396 6.5224 77.5706 6.54493 77.6001 6.56901C77.6159 6.58172 77.6311 6.59485 77.6462 6.60834C77.6627 6.62373 77.6792 6.63969 77.695 6.65615C77.7528 6.71595 77.8036 6.78261 77.8463 6.85485C77.8744 6.90296 77.8985 6.95301 77.9191 7.00457C77.959 7.10612 77.9831 7.2135 77.9899 7.32302C77.9941 7.43412 77.9748 7.54495 77.9336 7.64821C77.8923 7.75147 77.8304 7.84497 77.7507 7.92266C77.6709 8.00035 77.5761 8.0605 77.4723 8.09921C77.4413 8.11055 77.4104 8.12004 77.3781 8.12753C77.3609 8.13159 77.3437 8.1351 77.3265 8.13805C77.2667 8.14795 77.2062 8.15112 77.1457 8.14727C76.9463 8.14727 76.7641 8.08945 76.4032 7.78571C75.9302 7.40607 75.341 7.20168 74.7353 7.20725C72.7663 7.20725 71.6216 8.81545 71.6216 10.6434C71.6216 12.4713 72.7292 14.0621 74.7174 14.0621C75.3878 14.0816 76.0429 13.8611 76.5648 13.4402C76.7463 13.2731 76.98 13.174 77.2268 13.1597ZM85.3201 14.0418H85.3813V14.6058C85.3675 14.729 85.3799 14.8538 85.4191 14.9715C85.4576 15.0893 85.5208 15.1974 85.6047 15.2887C85.6267 15.3127 85.6501 15.3354 85.6741 15.3567C85.6838 15.3649 85.6934 15.3729 85.703 15.3807L85.7291 15.4003C85.7394 15.4078 85.7498 15.4151 85.7601 15.4221C85.7704 15.4293 85.7814 15.4364 85.7931 15.4432C85.8048 15.4502 85.8164 15.457 85.8281 15.4636C85.8412 15.4707 85.8549 15.4776 85.868 15.4841C85.8804 15.4899 85.8928 15.4953 85.9044 15.5006C85.9849 15.5345 86.0694 15.5562 86.1561 15.5648C86.1925 15.5686 86.2289 15.5699 86.2654 15.569C86.5314 15.569 87.1096 15.4302 87.1096 14.6058V9.35919C87.1096 7.2507 85.8838 5.62237 83.1324 5.62237C81.9582 5.59829 80.8059 5.94218 79.8366 6.60573C79.7087 6.68262 79.6021 6.79151 79.5279 6.9218C79.4543 7.05208 79.4151 7.1992 79.4151 7.34908L79.4144 7.3673L79.4151 7.3904L79.4158 7.41645L79.4179 7.43825C79.4241 7.50466 79.4399 7.57004 79.4639 7.63247C79.499 7.72267 79.5519 7.80496 79.6193 7.87447C79.6867 7.94404 79.7671 7.99939 79.8558 8.03727C79.9452 8.07515 80.0408 8.09495 80.1377 8.09522C80.3419 8.08677 80.5385 8.01616 80.7014 7.89275C81.3573 7.42092 82.1424 7.16153 82.9503 7.1495C84.3576 7.1495 85.3001 7.83205 85.3001 9.24067V9.50095C82.0888 9.50095 78.6719 9.84223 78.6719 12.7172C78.6719 14.9066 80.6203 15.65 82.1266 15.65C83.5546 15.65 84.6381 15.0686 85.3201 14.0418ZM80.6004 12.668C80.6004 11.0599 82.9702 10.8603 84.8402 10.8603L85.3001 10.869V11.3606C85.3001 12.9688 84.317 14.1546 82.5481 14.1546C81.6062 14.1546 80.6004 13.7932 80.6004 12.668ZM90.4426 7.45035H90.5031C90.9651 6.42644 92.2377 5.62237 93.5962 5.62237C96.0471 5.62237 97.1513 7.35774 97.1513 9.50095V14.5249C97.1513 15.4099 96.5298 15.569 96.2059 15.569C95.8821 15.569 95.2641 15.4099 95.2641 14.5249V10.1228C95.2641 8.57537 94.8419 7.21027 93.0929 7.21027C91.6073 7.21027 90.5437 8.45685 90.5437 10.3455V14.5249C90.5437 15.4099 89.9194 15.569 89.5984 15.569C89.2773 15.569 88.6558 15.4099 88.6558 14.5249V6.71567C88.6558 5.84798 89.2574 5.71205 89.5578 5.71205C89.8583 5.71205 90.4426 5.85087 90.4426 6.71567V7.45035ZM99.5218 20.2343C101.308 20.2343 102.112 19.3955 102.814 17.6602L107.092 7.11485C107.167 6.94998 107.208 6.77209 107.214 6.59132C107.214 6.4705 107.189 6.35088 107.141 6.24016C107.092 6.12944 107.022 6.03009 106.933 5.94839C106.905 5.92304 106.876 5.89953 106.845 5.87799C106.809 5.85207 106.769 5.82906 106.729 5.80914C106.71 5.79975 106.69 5.79107 106.67 5.78308C106.655 5.77694 106.64 5.77116 106.624 5.76586C106.509 5.72709 106.389 5.71275 106.268 5.72363C105.948 5.72363 105.566 5.86246 105.326 6.50743L102.774 13.3391H102.733L99.8628 6.46697C99.6001 5.84219 99.2385 5.72363 98.9174 5.72363C98.7944 5.717 98.6713 5.73535 98.5558 5.77758C98.5276 5.78774 98.5001 5.79925 98.474 5.81203C98.4472 5.82468 98.4218 5.83859 98.3963 5.85384C98.3826 5.86217 98.3688 5.87086 98.3558 5.8799C98.3166 5.90666 98.2788 5.93653 98.2437 5.96929C98.1536 6.0536 98.0821 6.15529 98.0326 6.26813C97.9824 6.38097 97.9563 6.5027 97.9549 6.62599C97.957 6.81347 97.9969 6.99859 98.0739 7.16978L101.78 15.4099L101.175 16.9978C100.687 18.2965 100.163 18.5857 99.4406 18.5857C99.2475 18.5857 99.0996 18.5654 98.958 18.5654C98.8549 18.5634 98.7518 18.5824 98.6562 18.6211C98.5599 18.6598 98.4726 18.7174 98.3998 18.7906C98.3269 18.8638 98.2691 18.9511 98.2306 19.047C98.2045 19.1115 98.1873 19.1792 98.1798 19.2482C98.1756 19.2817 98.1743 19.3154 98.1749 19.3493C98.1749 19.9306 98.7793 20.2343 99.5218 20.2343ZM112.555 15.6702C109.645 15.6702 107.434 13.5617 107.434 10.626C107.434 7.69035 109.645 5.61658 112.555 5.61658C115.466 5.61658 117.698 7.68747 117.698 10.6203C117.698 13.553 115.469 15.6702 112.555 15.6702ZM112.555 7.18999C110.532 7.18999 109.376 8.8184 109.376 10.626C109.376 12.4338 110.532 14.0824 112.555 14.0824C114.579 14.0824 115.735 12.4366 115.735 10.626C115.735 8.81552 114.605 7.18999 112.555 7.18999ZM120.539 7.45035H120.49L120.478 6.71567C120.478 5.85087 119.894 5.71205 119.594 5.71205C119.294 5.71205 118.689 5.84798 118.689 6.71567V14.5249C118.689 15.4099 119.314 15.569 119.635 15.569C119.955 15.569 120.58 15.4099 120.58 14.5249V10.3455C120.58 8.45685 121.643 7.21027 123.129 7.21027C124.878 7.21027 125.3 8.57537 125.3 10.1228V14.5249C125.3 15.4099 125.922 15.569 126.242 15.569C126.563 15.569 127.187 15.4099 127.187 14.5249V9.50095C127.187 7.35774 126.083 5.62237 123.632 5.62237C122.273 5.62237 121.001 6.42644 120.539 7.45035Z" fill="black"/>
<path d="M19.9212 1.25488H4.57226C3.8842 1.25488 3.32642 1.813 3.32642 2.50146V17.8596C3.32642 18.548 3.8842 19.1061 4.57226 19.1061H19.9212C20.6093 19.1061 21.1671 18.548 21.1671 17.8596V2.50146C21.1671 1.813 20.6093 1.25488 19.9212 1.25488Z" fill="url(#paint0_radial_1251_4395)" stroke="black"/>
<path d="M21.0055 7.35232C21.0402 4.14474 14.2792 1.94948 14.2792 1.94948C14.2792 1.94948 9.39697 0.792555 8.51243 0.15625C8.51243 0.15625 9.05301 1.6024 9.90283 1.99864C9.90283 1.99864 6.06124 1.35367 5.17672 1.33631L7.56725 3.144C7.56725 3.144 4.26908 6.0363 3.66495 5.93507C3.66495 5.93507 4.87321 6.12018 5.56984 5.64584C5.56984 5.64584 3.19957 8.57283 2.54918 8.6191H4.01182C3.23425 10.2128 2.71106 11.5114 2.71106 11.5114C2.71106 11.5114 -3.00073 22.0365 4.04939 21.2614C6.48971 21.0303 8.91173 20.635 11.2989 20.0784C11.432 20.171 11.5678 20.2607 11.7008 20.3446C15.8834 22.9939 21.3553 18.5311 21.3553 18.5311L19.2278 12.9402L19.6816 11.7197C20.1008 11.5461 23.3064 12.8014 23.3064 12.8014C23.7054 13.4261 23.4163 14.6149 23.4163 14.6149C27.3822 10.8491 21.0055 7.35232 21.0055 7.35232Z" fill="white"/>
<path d="M18.8582 13.0816C18.8582 13.0816 20.5434 16.9746 15.9907 20.6565C11.4381 24.3384 8.69199 19.2827 8.69199 19.2827C10.2096 18.1981 10.7154 15.6731 10.7154 15.6731C4.13935 20.5177 4.06709 16.2516 4.06709 16.2516L3.41671 16.8792L5.07879 13.5038C4.78618 14.0104 4.42098 14.4714 3.99483 14.8719L4.28388 11.5458L3.6335 12.4858L4.35615 10.0996L3.24905 10.279C2.91086 11.0367 2.71141 11.54 2.71141 11.54C2.03334 12.8295 1.47132 14.1768 1.03198 15.5661C1.71705 17.6312 3.18257 19.7888 4.41974 21.2177C6.73574 20.9829 9.03388 20.5965 11.2993 20.0607C11.4323 20.1533 11.5681 20.2429 11.7011 20.3268C15.8838 22.9761 21.3557 18.5133 21.3557 18.5133L19.4334 13.4778C19.2508 13.3329 19.0587 13.2005 18.8582 13.0816Z" fill="#E6E6E6"/>
<path d="M21.0249 7.35275V7.32676C20.5942 7.2776 20.1144 7.35275 20.256 7.98036C20.4989 9.06214 20.4989 10.0368 18.6113 9.86329C16.7237 9.68976 15.7786 10.5603 15.7786 10.5603C15.7786 10.5603 18.8223 10.3839 19.6808 11.7491V11.7115C20.1 11.5379 22.9906 13.1981 22.9906 13.1981C23.2342 13.6311 23.382 14.1115 23.4241 14.6067C27.4247 10.8496 21.0249 7.35275 21.0249 7.35275Z" fill="url(#paint1_linear_1251_4395)"/>
<path d="M0.736443 21.0994C0.493542 20.897 0.30084 20.6409 0.173454 20.3513C0.0460682 20.0617 -0.0125372 19.7467 0.0022352 19.4306C0.0022352 18.2737 0.62371 16.9519 1.35213 15.7111C1.9441 14.734 2.59672 13.7951 3.30617 12.8998C2.72805 12.223 2.40142 11.792 2.39852 11.7891C2.35662 11.7348 2.32952 11.6706 2.31989 11.6026C2.31027 11.5347 2.31844 11.4654 2.3436 11.4016C2.3436 11.4016 2.75118 10.3777 3.38132 9.03856C3.38132 9.03856 3.65304 8.89976 2.15282 8.6568C2.15282 8.44855 4.0317 7.52586 4.84395 6.22435L2.73094 6.38632C3.88717 5.85703 7.30964 3.20479 7.30964 3.20479L5.01739 1.29297C4.87286 1.14258 9.30703 1.7702 9.30703 1.7702C8.76067 1.12522 7.89642 0.0348227 7.89642 0.0348227C7.87325 -0.150285 9.63077 0.462884 9.63077 0.462884C10.3837 0.709315 11.1488 0.916871 11.923 1.08473C13.1746 1.37396 18.2389 2.79987 20.2507 4.87075C20.8873 5.46481 21.2963 6.26284 21.407 7.12676C22.0234 7.49822 22.604 7.92619 23.1413 8.40517C24.0981 9.27287 24.9653 10.5686 24.9739 12.0812C24.9739 12.0812 25.0086 12.6424 24.2166 14.1609L23.8524 14.9533C23.705 15.0777 22.2597 12.8246 21.6815 12.625C21.1153 12.4172 20.536 12.2471 19.9472 12.116L19.6582 12.9374L21.6093 18.8261C21.5775 18.8261 18.3083 21.5507 14.7008 21.5681C13.5649 21.581 12.4495 21.2646 11.4894 20.657L11.2234 20.4834C8.87157 21.0207 6.48776 21.4071 4.08662 21.6403C3.73431 21.679 3.38021 21.6993 3.02578 21.7011C2.0054 21.7011 1.25674 21.5015 0.736443 21.085V21.0994ZM3.39866 12.7465C3.52296 12.8911 2.73383 14.9331 2.03431 16.116H2.02564C1.32034 17.2932 0.776909 18.56 0.785579 19.4306C0.77154 19.6291 0.804835 19.828 0.882736 20.0111C0.960637 20.1941 1.0809 20.356 1.23362 20.4834C1.54002 20.735 2.10079 20.9259 3.02578 20.9259C3.35127 20.9234 3.67641 20.9042 3.9999 20.8681C6.4239 20.6348 8.82949 20.2386 11.2003 19.6822C11.2549 19.6692 11.3116 19.6677 11.3668 19.6776C11.422 19.6876 11.4746 19.7088 11.5212 19.7401C11.6513 19.8298 11.7842 19.9165 11.9143 19.9975C12.7467 20.52 13.7125 20.7902 14.695 20.7755C17.0942 20.7755 19.5252 19.3294 20.5658 18.6092C20.693 18.5224 20.7971 18.4472 20.878 18.3865L18.8546 13.082C18.8193 12.9888 18.8193 12.886 18.8546 12.7928L19.3084 11.5722C19.3273 11.5219 19.3564 11.4759 19.3936 11.4371C19.4309 11.3983 19.4756 11.3675 19.5252 11.3466C19.6109 11.3134 19.7021 11.2967 19.794 11.2975C20.297 11.2975 21.1295 11.5867 21.9417 11.8759C22.7395 12.1651 23.809 13.9526 23.8322 14.2273L24.0952 13.5014C24.2219 13.0162 24.2956 12.5187 24.3149 12.0176C24.3525 10.3372 22.3869 8.70595 21.3636 8.0465C21.0283 7.82382 20.8144 7.70523 20.8144 7.70523L21.0023 7.35811L20.8144 7.70811C20.7513 7.67477 20.6986 7.62486 20.6619 7.56367C20.6252 7.50248 20.606 7.43236 20.6063 7.361V7.35233C20.6063 6.38054 19.794 5.38848 18.6436 4.56706C17.5612 3.82442 16.3974 3.2082 15.1749 2.73045C14.6488 2.51642 14.2759 2.38916 14.1776 2.35734C13.851 2.30528 8.76645 0.569899 8.73757 0.55833L10.2927 2.23875L5.20527 1.33347L7.8386 3.1643L4.80059 5.74712C4.89888 5.74712 6.47135 5.13684 6.32682 5.55044C5.37894 6.67165 4.27043 7.64631 3.03734 8.44278C3.03734 8.44278 4.36122 8.57581 4.30341 8.69729L4.36701 8.813C3.78889 10.0133 3.34374 11.0487 3.16453 11.4797C3.34085 11.6908 3.39866 12.7465 3.39866 12.7465Z" fill="black"/>
<path d="M14.6399 7.70484C14.6609 7.94917 14.6077 8.19413 14.4872 8.40767C14.3667 8.62114 14.1846 8.79329 13.9648 8.90157C13.7448 9.00985 13.4974 9.04911 13.2548 9.01432C13.0122 8.97953 12.7858 8.87228 12.6052 8.70659C12.4245 8.54091 12.2981 8.32448 12.2424 8.08571C12.1867 7.84694 12.2043 7.5969 12.293 7.36831C12.3817 7.13971 12.5374 6.94322 12.7395 6.80462C12.9416 6.66598 13.1809 6.59164 13.4259 6.59133C13.579 6.58357 13.732 6.60632 13.8762 6.65826C14.0204 6.71022 14.1529 6.79032 14.2658 6.89393C14.3788 6.99754 14.47 7.12259 14.5342 7.26181C14.5985 7.40103 14.6344 7.55166 14.6399 7.70484Z" fill="url(#paint2_radial_1251_4395)"/>
<path d="M14.1343 7.70522C14.1477 7.84746 14.1178 7.99039 14.0486 8.11538C13.9794 8.2403 13.874 8.34136 13.7464 8.40537C13.6187 8.46931 13.4747 8.49316 13.3333 8.47384C13.1918 8.45446 13.0595 8.39279 12.9537 8.29688C12.848 8.20091 12.7736 8.07523 12.7404 7.93629C12.7073 7.79734 12.7168 7.65159 12.7679 7.51822C12.819 7.38484 12.9092 7.26996 13.0266 7.18877C13.1441 7.10758 13.2833 7.06378 13.4261 7.06316C13.6049 7.05526 13.7795 7.1183 13.9121 7.23848C14.0448 7.35872 14.1246 7.52647 14.1343 7.70522Z" fill="black"/>
<path opacity="0.8" d="M13.6287 7.09736C13.6345 7.17271 13.6175 7.24806 13.5799 7.31358C13.5423 7.3791 13.4858 7.43176 13.4178 7.46469C13.3498 7.49763 13.2735 7.50931 13.1987 7.49824C13.124 7.48718 13.0543 7.45383 12.9988 7.40261C12.9432 7.35133 12.9045 7.28457 12.8875 7.21094C12.8704 7.13731 12.876 7.06031 12.9034 6.98991C12.9309 6.91951 12.9789 6.85898 13.0411 6.81624C13.1034 6.7735 13.1771 6.75053 13.2527 6.7503C13.3002 6.74837 13.3476 6.75581 13.3922 6.77221C13.4368 6.78861 13.4778 6.81365 13.5127 6.84588C13.5476 6.87812 13.5758 6.91689 13.5957 6.96007C13.6156 7.00324 13.6268 7.04986 13.6287 7.09736Z" fill="white"/>
<path d="M13.8137 7.82925C13.8183 7.8815 13.8071 7.93389 13.7815 7.97961C13.7559 8.02533 13.717 8.06232 13.6701 8.08555C13.6231 8.10886 13.5702 8.11745 13.5183 8.11017C13.4663 8.10288 13.4178 8.08012 13.379 8.04478C13.3403 8.00952 13.3131 7.96332 13.3011 7.9123C13.289 7.86129 13.2926 7.8078 13.3115 7.75885C13.3303 7.70997 13.3634 7.66783 13.4066 7.63806C13.4498 7.60829 13.5009 7.59227 13.5533 7.59207C13.586 7.59055 13.6187 7.59543 13.6494 7.6065C13.6802 7.61757 13.7085 7.63462 13.7327 7.65669C13.7569 7.67869 13.7765 7.7053 13.7904 7.73493C13.8043 7.76449 13.8122 7.7966 13.8137 7.82925Z" fill="#0071BC"/>
<path d="M19.5074 11.9396C19.5074 11.9396 17.7731 10.5483 15.7786 10.5686C15.7786 10.5686 16.1832 9.96121 20.1346 11.3611L19.5074 11.9396Z" fill="black"/>
<path d="M22.7365 12.9024C21.5992 11.9322 20.335 11.1216 18.9788 10.4932C18.9788 10.4932 22.4937 11.6906 22.8376 12.6624L22.7365 12.9024Z" fill="#231F20"/>
<path d="M18.3865 7.59806L18.5455 7.64729C18.5455 7.64729 13.4378 7.89025 10.209 5.96105C7.2057 4.17072 17.0106 7.17291 18.3865 7.59806Z" fill="white"/>
<path d="M21.147 7.55174C21.147 7.55174 20.3261 7.79181 20.6152 8.41943C20.6152 8.41943 20.2798 9.09332 18.7854 8.1302C18.7854 8.1302 20.0862 8.70866 20.0371 8.17936C19.9879 7.65005 20.3752 6.68403 21.0025 7.0687L21.147 7.74548" fill="black"/>
<path d="M2.93628 16.6858C2.93628 16.6858 4.45383 15.5781 4.83828 14.5166C4.83828 14.5166 3.70517 17.6981 3.24846 17.9642L2.93628 16.6858Z" fill="#231F20"/>
<path d="M3.1991 15.0489L4.11595 12.0352L3.41602 16.8798L3.1991 15.0489Z" fill="#231F20"/>
</g>
<defs>
<radialGradient id="paint0_radial_1251_4395" cx="0" cy="0" r="1" gradientUnits="userSpaceOnUse" gradientTransform="translate(9.34171 8.02866) scale(13.6956 13.7037)">
<stop stop-color="#373638"/>
<stop offset="1"/>
</radialGradient>
<linearGradient id="paint1_linear_1251_4395" x1="15.7786" y1="10.9682" x2="24.7451" y2="10.9682" gradientUnits="userSpaceOnUse">
<stop stop-color="#F48020"/>
<stop offset="1" stop-color="#F7A920"/>
</linearGradient>
<radialGradient id="paint2_radial_1251_4395" cx="0" cy="0" r="1" gradientUnits="userSpaceOnUse" gradientTransform="translate(13.4259 7.70484) scale(1.1649 1.1656)">
<stop stop-color="#121212"/>
<stop offset="0.51" stop-color="#0F0F0F"/>
<stop offset="0.86" stop-color="#060606"/>
<stop offset="1"/>
</radialGradient>
<clipPath id="clip0_1251_4395">
<rect width="127.188" height="22" fill="white"/>
</clipPath>
</defs>
</svg>
