<svg width="114" height="22" viewBox="0 0 114 22" fill="none" xmlns="http://www.w3.org/2000/svg">
<g clip-path="url(#clip0_1251_4414)">
<path d="M14.4733 2.15597C13.9052 1.84081 12.2769 2.03569 10.3212 2.64108C6.89858 4.98053 4.01002 8.42725 3.8083 13.9623C3.77166 14.0947 3.4342 13.9442 3.36733 13.9033C2.44303 12.1318 2.07688 10.2664 2.84868 7.57534C2.99258 7.33587 2.52204 7.04123 2.43773 7.1251C2.26823 7.29504 1.5622 8.0472 1.09321 8.86071C-1.23168 12.8936 0.288522 18.0609 4.35608 20.3225C8.42253 22.5873 13.5576 21.1263 15.8218 17.0585C18.4414 12.3637 16.009 3.0134 14.4733 2.15597Z" fill="#82B541"/>
<path d="M29.301 4.40832C24.4795 4.40832 20.9796 7.99298 20.9796 12.9319C20.9796 17.9109 24.4703 21.3888 29.4692 21.3888C31.994 21.3888 33.9929 20.5993 35.5827 18.9741C36.0576 18.4614 36.1086 17.9672 36.1086 17.7783C36.1086 16.9732 35.5098 16.3883 34.6851 16.3883C34.269 16.3883 33.9214 16.5455 33.5224 16.9142C32.6221 17.7529 31.4367 18.6099 29.4692 18.6099C26.7329 18.6099 24.5078 16.5556 24.3676 13.9178H35.2576C36.4416 13.9178 37.017 13.3638 37.017 12.2256C37.017 11.8902 37.017 11.6485 36.9495 11.1713C36.3628 6.93692 33.5041 4.40899 29.3014 4.40899L29.301 4.40832ZM29.301 7.05235C31.9157 7.05235 33.5932 8.71866 33.6967 11.4079H24.3709C24.6159 8.91905 26.7201 7.05235 29.301 7.05235ZM47.4157 4.40832C45.2254 4.40832 43.0568 5.66788 42.2093 7.41717V6.33595C42.2093 4.66147 40.9115 4.5765 40.6515 4.5765C39.8826 4.5765 39.0605 5.03865 39.0605 6.33595V19.3927C39.0605 21.1319 40.4421 21.2197 40.7189 21.2197C40.9958 21.2197 42.3779 21.1319 42.3779 19.3927V12.3934C42.3779 9.3481 44.1038 7.22096 46.5746 7.22096C48.9676 7.22096 50.1314 8.79149 50.1314 12.0228V19.3927C50.1314 21.1319 51.5134 21.2197 51.7904 21.2197C52.0672 21.2197 53.4488 21.1319 53.4488 19.3927V10.9811C53.4488 7.80384 51.8637 4.40943 47.4157 4.40943V4.40832ZM68.4586 4.57672C67.6921 4.57672 67.1361 5.02387 66.8051 5.90359L62.2665 17.3166L57.7624 5.90359C57.4098 5.01084 56.858 4.57672 56.0752 4.57672C55.1606 4.57672 54.4161 5.29047 54.4161 6.16799C54.4161 6.38494 54.4409 6.66678 54.6245 7.10642L59.8404 19.4221C60.4619 20.9079 61.4842 21.2197 62.2328 21.2197C62.9807 21.2197 64.0037 20.9079 64.6265 19.423L69.8762 7.03866C70.0556 6.60432 70.0834 6.2854 70.0834 6.13444C70.0834 5.24678 69.3842 4.57694 68.4586 4.57694V4.57672ZM78.1013 4.40832C75.9797 4.40832 74.0035 4.99937 72.5379 6.0711C72.0406 6.41407 71.7989 6.8418 71.7989 7.37987C71.7989 8.12055 72.3644 8.70122 73.0878 8.70122C73.4006 8.70122 73.7508 8.57674 74.0722 8.35163C75.3324 7.51163 76.5165 7.11988 77.7981 7.11988C80.2508 7.11988 81.6588 8.3673 81.6588 10.5425V10.9027C76.153 10.9087 70.5531 11.5737 70.5531 16.3636C70.5531 19.811 73.499 21.3544 76.4185 21.3544C78.7438 21.3544 80.6008 20.4329 81.7922 18.6885V19.5274C81.7922 20.7766 82.6308 21.2195 83.3508 21.2195C83.5022 21.2195 84.8405 21.1721 84.8405 19.5274V10.7438C84.8405 6.77603 82.3205 4.40744 78.1011 4.40744L78.1013 4.40832ZM80.961 13.3453H81.6588V14.1096C81.6588 16.9045 79.8791 18.7103 77.1256 18.7103C76.3781 18.7103 73.9387 18.5364 73.9387 16.2963C73.9387 13.6511 77.9462 13.3453 80.961 13.3453ZM93.481 7.59108C94.9324 7.59108 95.0059 6.46153 95.0059 6.2353C95.0059 5.56371 94.6051 4.84576 93.4808 4.84576H90.4965V1.82698C90.4965 0.478484 89.6216 0 88.8717 0C88.5949 0 87.2133 0.0878398 87.2133 1.82698V16.1625C87.2133 19.4709 88.8452 21.2195 91.9335 21.2195C92.7324 21.2195 93.511 21.0783 94.02 20.841C94.604 20.5497 94.9383 20.0707 94.9383 19.5274C94.9383 18.7609 94.3824 18.2049 93.6159 18.2049C93.4678 18.2049 93.2572 18.2416 93.0248 18.3084C92.7408 18.3795 92.5483 18.4071 92.3378 18.4071C91.0813 18.4071 90.4965 17.587 90.4965 15.8257V7.58954H93.481V7.59108ZM104.449 4.40832C99.4319 4.40832 95.7918 7.96473 95.7918 12.8639C95.7918 15.2493 96.674 17.4234 98.2747 18.9853C99.8631 20.5349 102.056 21.3881 104.45 21.3881C109.404 21.3881 113.141 17.7236 113.141 12.8641C113.141 7.96473 109.485 4.40855 104.45 4.40855L104.449 4.40832ZM104.449 18.5753C101.009 18.5753 99.2094 15.7021 99.2094 12.8635C99.2094 8.96319 101.926 7.18698 104.449 7.18698C106.973 7.18698 109.689 8.96319 109.689 12.8635C109.689 16.7882 106.973 18.5753 104.449 18.5753Z" fill="black"/>
</g>
<defs>
<clipPath id="clip0_1251_4414">
<rect width="113.141" height="21.3888" fill="white"/>
</clipPath>
</defs>
</svg>
