<svg width="200" height="192" viewBox="0 0 200 192" fill="none" xmlns="http://www.w3.org/2000/svg">
<g clip-path="url(#clip0_1571_1044)">
<g clip-path="url(#clip1_1571_1044)">
<path d="M114.889 119.771C114.424 111.787 116.335 104.466 120.995 97.9019C123.733 94.0443 127.045 90.7091 130.639 87.6743C136.367 82.8386 142.274 78.2133 147.961 73.3326C152.687 69.277 156.808 64.6805 159.132 58.756C160.339 55.6771 160.828 52.4654 160.93 49.1808C161.558 47.8731 160.817 46.6542 160.685 45.3954C159.676 35.7823 152.131 29.7198 142.795 28.5547C133.131 27.3487 124.419 30.0275 116.816 35.9319C111.22 40.2769 108.016 46.3191 106.034 53.0273C105.681 54.2246 105.32 55.4258 105.062 56.645C103.743 62.871 99.1957 65.7996 93.4452 66.2142C88.5357 66.5682 83.8138 65.5163 79.9289 62.1149C78.7873 61.1154 77.7859 60.0402 77.6296 58.4319C76.9258 55.3955 77.6749 52.4138 78.1124 49.4554C78.4532 47.1512 79.1189 44.8765 79.8767 42.6515C79.8588 41.7443 80.3071 41.0006 80.7258 40.2465C81.6187 39.9533 82.141 40.2077 82.1609 41.2076C81.9758 42.3202 81.3239 43.281 81.1052 44.3828C80.6644 44.9414 80.7978 45.698 80.3986 46.4228C80.7376 45.9563 80.6737 45.5216 80.7835 45.1341C81.6086 42.6392 82.9028 40.3472 83.884 37.9205C86.0003 34.2351 88.6739 30.9987 91.7046 28.0199C97.3499 22.4714 103.903 18.3458 111.238 15.4236C115.85 13.5861 120.635 12.341 125.53 11.5393C133.909 10.167 142.335 9.44075 150.805 10.436C160.161 11.5354 168.987 14.2074 176.734 19.7907C178.027 21.0803 179.63 22.0033 180.945 23.2713C181.115 23.4382 180.782 23.4812 180.976 23.3424C181.009 23.3184 180.988 23.2638 180.9 23.1934C179.247 21.876 177.857 20.2343 175.95 19.2276C169.754 14.8806 163.075 11.6307 155.602 10.0952C148.967 8.73221 142.277 8.62729 135.555 9.00729C134.841 9.04768 134.13 9.0716 133.419 8.99287C132.3 8.77662 131.194 8.80102 130.11 9.19325C129.466 9.3825 128.82 9.55381 128.137 9.43543C127.563 9.24602 126.988 9.05485 127.19 8.24905C128.505 8.00454 129.821 7.76003 131.136 7.51551C132.862 7.37311 134.578 7.14997 136.291 6.90175C141.986 6.10536 147.696 6.1531 153.373 6.92045C161.535 8.02377 169.339 10.2872 176.305 14.8504C187.931 22.467 193.747 33.3396 194.276 47.1024C194.482 52.4515 194.442 57.7933 192.704 62.9578C192.613 63.2288 192.441 63.4727 192.306 63.7292C190.538 65.3252 189.255 67.3351 187.688 69.1043C185.616 71.4447 183.832 74.0476 181.337 75.9996C180.828 76.3977 180.368 76.8771 179.701 77.0334C178.696 77.0263 177.698 77.2911 176.686 77.04C174.932 76.6053 174.533 75.6988 175.532 74.2192C175.93 73.63 176.365 73.0673 176.673 72.4225C178.325 70.162 180.422 68.285 182.146 66.0781C186.027 61.1087 189.322 55.8656 190.599 49.5706C191.047 47.3665 190.76 45.1897 190.545 43.0094C190.486 42.4127 190.465 41.8362 190.466 41.2468C190.6 43.2874 190.532 45.3174 190.42 47.3606C190.082 53.5192 187.306 58.65 183.776 63.447C180.267 68.2141 175.923 72.1723 171.47 76.072C166.805 80.1569 161.897 83.9153 157.07 87.7864C154.833 89.5806 152.824 91.6375 151.108 93.92C148.835 96.9438 147.168 100.194 146.985 104.164C146.719 109.928 145.888 115.633 143.77 121.071C143.762 121.093 143.818 121.14 143.844 121.175C143.865 121.056 143.919 120.952 144.009 120.852C144.955 120.14 145.322 119.022 145.997 118.129C146.372 117.634 146.901 117.261 147.532 117.421C148.122 117.571 147.996 118.153 147.979 118.619C146.047 125.166 141.245 128.583 134.911 129.877C127.947 131.299 121.977 128.999 117.033 124.001C115.884 122.84 115.147 121.411 114.889 119.771Z" fill="#DD5454"/>
<path d="M77.9456 58.7354C79.6576 62.3167 82.8741 64.0181 86.4149 65.0401C90.7 66.2769 95.015 66.318 99.113 64.1154C101.966 62.5818 103.729 60.2494 104.447 57.103C105.658 51.7913 107.333 46.6364 110.506 42.1417C116.969 32.9855 126.094 28.5823 137.111 27.879C143.693 27.4588 149.817 28.8659 154.957 33.2875C159.412 37.1191 161.27 42.1005 161.297 47.8549C161.299 48.3111 161.349 48.8236 160.926 49.1811C160.89 47.6738 160.8 46.239 159.296 45.2896C146.64 37.2982 124.918 36.2211 113.773 54.6016C111.945 57.6172 110.602 60.8785 110.096 64.4021C108.886 72.8257 101.752 76.8642 95.6191 77.0304C89.7703 77.1889 84.4733 75.8973 80.6687 70.9752C78.8863 68.6693 78.3542 65.9194 77.8665 63.1662C77.5767 61.5305 77.4469 59.8666 77.2451 58.2154C77.7134 58.0745 77.8004 58.4439 77.9456 58.7354Z" fill="#8C2828"/>
<path d="M110.762 169.46C110.698 166.612 110.542 163.769 111.376 160.973C113.46 153.982 120.388 149.166 127.693 149.623C132.041 149.895 136.012 151.028 139.238 154.135C142.945 157.706 144.03 162.204 143.953 167.132C143.936 168.257 143.947 169.382 143.945 170.508C141.377 179.765 125.536 186.536 115.312 177.695C113.149 175.824 111.55 173.571 111.158 170.639C111.102 170.22 110.82 169.878 110.762 169.46Z" fill="#DD5454"/>
<path d="M114.888 119.77C119.123 128.853 130.175 131.393 137.127 128.886C142.208 127.053 145.949 123.849 147.683 118.6C147.889 118.411 148.031 118.614 148.195 118.683C147.767 122.594 147.795 126.523 147.758 130.446C147.706 136.051 145.374 139.466 140.117 141.437C132.763 144.195 122.789 141.77 117.575 135.913C115.432 133.507 114.283 130.732 114.537 127.428C114.732 124.882 114.776 122.323 114.888 119.77Z" fill="#8C2828"/>
<path d="M148.193 118.684C148.023 118.656 147.852 118.628 147.682 118.601C147.613 118.3 147.919 117.799 147.421 117.737C146.86 117.668 146.455 118.051 146.173 118.542C145.635 119.484 145.389 120.653 144.198 121.093C143.767 120.543 144.201 120.061 144.364 119.593C145.739 115.641 146.616 111.598 146.871 107.412C146.99 105.457 147.267 103.509 147.472 101.559C147.839 98.0737 150.527 96.0103 152.372 93.4605C154.151 91.0021 156.467 89.0065 158.816 87.0563C164.13 82.6444 169.678 78.5104 174.715 73.7665C175.327 73.1903 175.921 72.3833 176.989 72.6164C176.878 73.4945 176.173 74.006 175.718 74.6726C175.062 75.633 175.217 76.1372 176.427 76.571C177.582 76.9852 178.746 76.1461 179.811 76.8417C179.31 78.6283 177.571 79.3115 176.448 80.5416C175.615 81.4534 174.51 82.1068 173.674 83.0433C174.915 81.7012 176.371 80.597 177.79 79.4699C182.482 75.7423 186.415 71.3229 189.994 66.5591C190.328 66.1151 190.596 65.4628 191.382 65.794C189.772 70.7767 186.836 74.933 183.127 78.5388C177.474 84.0341 170.972 88.5064 164.815 93.3949C158.068 98.7524 152.026 104.676 149.176 113.114C148.564 114.924 148.196 116.771 148.193 118.684Z" fill="#C93939"/>
<path d="M110.761 169.46C110.961 169.817 111.247 170.152 111.349 170.535C113.495 178.553 121.904 182.394 129.366 181.097C135.549 180.023 140.523 177.038 143.339 171.146C143.459 170.895 143.739 170.72 143.944 170.508C143.915 172.645 143.896 174.782 143.854 176.919C143.812 179.077 143.027 180.959 141.717 182.66C134.984 191.398 119.668 191.683 113.147 183.19C111.767 181.392 110.947 179.411 110.921 177.117C110.892 174.564 110.816 172.012 110.761 169.46Z" fill="#8C2828"/>
<path d="M127.191 8.24963C127.345 8.79003 127.77 8.99192 128.266 9.10651C127.879 10.0363 126.973 9.82318 126.266 9.95273C117.081 11.6364 108.458 14.7309 100.594 19.847C93.7186 24.3194 88.3156 30.1296 84.2567 37.2162C83.7099 38.4922 83.1223 39.7492 82.5491 41.0125C82.4102 41.3187 82.29 41.6967 81.816 41.418C82.0175 40.506 81.4121 40.3397 80.7267 40.247C84.3398 31.4031 90.6972 24.8807 98.36 19.4366C106.628 13.5624 115.918 10.2185 125.786 8.26764C126.254 8.17513 126.72 8.05822 127.191 8.24963Z" fill="#A92C2C"/>
<path d="M191.383 65.7935C190.406 66.098 190.232 67.0865 189.707 67.7711C184.989 73.9287 179.321 79.1056 173.139 83.7525C173.076 83.8003 172.943 83.756 172.641 83.752C174.873 81.1497 177.543 79.1961 179.813 76.8413C184.41 72.95 187.917 68.0995 191.68 63.4726C191.82 63.3006 191.829 62.8144 192.224 63.0565C192.344 63.1299 192.283 63.497 192.305 63.7293C192.121 64.4719 191.881 65.1899 191.383 65.7935Z" fill="#8C2828"/>
<path d="M77.9467 58.7358C77.7132 58.5624 77.4798 58.389 77.2462 58.2157C76.9594 52.8331 77.8445 47.647 79.8741 42.6525C79.7969 44.8485 78.7942 46.8336 78.4531 48.9916C77.9396 52.2407 77.1732 55.4353 77.9467 58.7358Z" fill="#A92C2C"/>
<path d="M136.289 6.90112C134.608 7.41675 132.906 7.76052 131.134 7.51498C132.822 7.05988 134.531 6.77987 136.289 6.90112Z" fill="#A92C2C"/>
<path d="M84.0579 37.0426C86.2104 32.6796 89.1623 28.9108 92.6858 25.5766C102.409 16.3751 114.203 11.5513 127.241 9.367C127.586 9.30908 127.922 9.19439 128.263 9.10643C128.837 9.03173 129.41 8.95679 129.984 8.88186C131.074 8.53387 132.212 8.61776 133.329 8.50621C139.099 8.34848 144.865 8.10833 150.625 8.7956C160.18 9.9357 168.842 13.2572 176.484 19.1317C177.33 19.9376 177.342 19.9959 176.709 20.2715C165.997 12.8404 153.922 10.2861 141.118 10.555C131.724 10.7523 122.461 11.9307 113.545 15.1004C102.102 19.1683 92.6628 25.9033 85.7168 35.935C85.2225 36.6489 84.4075 37.1707 84.3028 38.1357C83.4887 37.9343 83.8538 37.4705 84.0579 37.0426Z" fill="#FBFBF3"/>
<path d="M176.991 72.6158C175.235 73.5696 174.055 75.1913 172.546 76.4315C167.578 80.5151 162.582 84.566 157.639 88.6808C155.171 90.7359 153.374 93.4568 151.149 95.6954C147.932 98.9313 147.706 102.812 147.416 106.791C147.057 111.73 146.155 116.522 144.2 121.093C143.768 121.485 143.87 122.243 142.918 122.662C143.509 120.688 144.047 118.945 144.551 117.192C145.755 113.006 146.336 108.703 146.487 104.378C146.696 98.385 150.003 94.1131 153.904 90.0872C158.108 85.7482 163.402 82.7255 167.819 78.6511C172.225 74.5878 177.083 71.0051 180.909 66.3235C184.539 61.8811 187.861 57.2653 189.293 51.5997C189.994 48.828 190.186 45.9733 190.136 43.122C190.121 42.2482 190.134 41.4164 190.431 40.5768C191.012 43.7488 191.67 46.8702 190.983 50.1516C189.797 55.8179 186.84 60.5961 183.524 65.1528C181.587 67.8143 179.184 70.1394 176.991 72.6158Z" fill="#8C2828"/>
<path d="M116.389 33.2695C125.928 26.8067 136.386 24.6737 147.686 26.5031C136.623 25.7891 126.117 27.696 116.389 33.2695Z" fill="#A92C2C"/>
<path d="M165.835 76.7261C162.406 79.5323 158.947 82.3022 155.557 85.1546C152.144 88.0261 149.201 91.3141 147.018 95.478C147.374 90.8815 155.94 83.0488 165.835 76.7261Z" fill="#A92C2C"/>
<path d="M84.0594 37.0425C84.091 37.4179 83.8959 37.8439 84.3041 38.1355C83.2219 40.5209 82.1397 42.9063 81.0574 45.2917C80.4516 45.262 80.5015 44.9891 80.8071 44.6211C80.9228 43.4848 81.1757 42.3915 81.8149 41.4185C82.7718 40.0659 82.9531 38.3184 84.0594 37.0425Z" fill="#F8E7AE"/>
<path d="M176.71 20.2707C177.297 19.7614 176.409 19.5405 176.485 19.131C178.714 20.3089 180.272 22.2071 181.846 24.104C180.098 22.8634 178.214 21.8204 176.71 20.2707Z" fill="#F9E497"/>
<path d="M80.8063 44.6199C80.8899 44.8438 80.9735 45.0677 81.0568 45.291C81.0518 46.1947 80.685 46.9211 79.8393 47.7903C79.9757 46.4457 80.2206 45.4835 80.8063 44.6199Z" fill="#A92C2C"/>
<path d="M133.332 8.50647C132.234 8.78785 131.126 8.9698 129.987 8.88207C131.035 8.16459 132.181 8.3146 133.332 8.50647Z" fill="#A92C2C"/>
<path d="M127.104 173.876C124.046 175.501 119.021 174.205 117.045 172.661C113.134 169.606 112.568 163.661 114.307 160.061C114.699 159.249 115.18 158.114 116.064 158.456C116.82 158.749 116.334 159.987 116.087 160.711C115.197 163.319 115.568 165.814 116.383 168.357C117.588 172.117 121.538 173.5 124.872 173.571C125.57 173.586 126.268 173.37 127.104 173.876Z" fill="#8C2828"/>
<path d="M141.456 168.907C140.609 166.467 139.888 164.243 139.062 162.06C138.497 160.563 137.865 159.094 137.037 157.702C135.117 154.475 132.288 153.19 128.619 153.516C127.855 153.584 127.089 153.63 126.281 153.69C128.99 152.098 133.799 152.604 136.732 154.761C140.459 157.502 142.69 163.947 141.456 168.907Z" fill="#FBF9E2"/>
</g>
</g>
<g clip-path="url(#clip2_1571_1044)">
<g clip-path="url(#clip3_1571_1044)">
<path d="M24.6098 149.932C24.3515 145.502 25.4119 141.439 27.9966 137.796C29.5155 135.655 31.3523 133.804 33.3461 132.12C36.523 129.436 39.7997 126.869 42.9545 124.161C45.5758 121.91 47.8617 119.359 49.1505 116.071C49.8202 114.362 50.0916 112.58 50.148 110.757C50.4964 110.031 50.0853 109.355 50.012 108.656C49.4524 103.321 45.2672 99.9566 40.0885 99.31C34.728 98.6407 29.896 100.127 25.6784 103.404C22.5747 105.816 20.797 109.169 19.6981 112.892C19.5019 113.556 19.3019 114.223 19.1586 114.899C18.4272 118.355 15.9048 119.98 12.715 120.21C9.99177 120.407 7.37262 119.823 5.21769 117.935C4.58449 117.38 4.02903 116.784 3.9423 115.891C3.55192 114.206 3.96741 112.551 4.2101 110.909C4.39914 109.631 4.76843 108.368 5.18874 107.133C5.17881 106.63 5.4275 106.217 5.65975 105.799C6.15503 105.636 6.44472 105.777 6.45574 106.332C6.35311 106.95 5.99147 107.483 5.87018 108.094C5.62569 108.404 5.69965 108.824 5.47822 109.226C5.66629 108.967 5.63082 108.726 5.69174 108.511C6.14941 107.127 6.86728 105.855 7.41153 104.508C8.58541 102.462 10.0684 100.666 11.7495 99.0132C14.8809 95.9339 18.5158 93.6443 22.5844 92.0226C25.1428 91.0028 27.7969 90.3118 30.5122 89.8669C35.1598 89.1053 39.8339 88.7023 44.5317 89.2546C49.7212 89.8648 54.6171 91.3477 58.914 94.4462C59.6318 95.1619 60.5207 95.6741 61.25 96.3779C61.3446 96.4705 61.1596 96.4944 61.2672 96.4173C61.2858 96.404 61.2739 96.3737 61.225 96.3346C60.3085 95.6035 59.537 94.6924 58.4795 94.1337C55.0424 91.7212 51.3378 89.9176 47.1925 89.0655C43.5125 88.309 39.8016 88.2508 36.0728 88.4617C35.6765 88.4841 35.2822 88.4974 34.8878 88.4537C34.2671 88.3337 33.6539 88.3472 33.0527 88.5649C32.6955 88.6699 32.3369 88.765 31.9584 88.6993C31.6398 88.5942 31.3207 88.4881 31.433 88.0409C32.1625 87.9052 32.892 87.7695 33.6215 87.6338C34.5788 87.5548 35.5308 87.4309 36.4811 87.2932C39.6399 86.8512 42.8073 86.8777 45.9561 87.3036C50.4834 87.9159 54.8126 89.172 58.6763 91.7045C65.1252 95.9315 68.3513 101.966 68.6448 109.603C68.7589 112.572 68.7365 115.537 67.7727 118.403C67.7221 118.553 67.6265 118.689 67.5519 118.831C66.5713 119.717 65.8594 120.832 64.9905 121.814C63.8411 123.113 62.8517 124.557 61.4673 125.641C61.185 125.862 60.9299 126.128 60.5602 126.214C60.0026 126.21 59.4492 126.357 58.8875 126.218C57.9148 125.977 57.6933 125.474 58.2478 124.653C58.4686 124.326 58.7094 124.013 58.8803 123.655C59.797 122.401 60.9602 121.359 61.9163 120.135C64.0691 117.377 65.8965 114.467 66.6052 110.973C66.8533 109.75 66.6944 108.542 66.5748 107.332C66.5421 107.001 66.5308 106.681 66.5314 106.354C66.6056 107.486 66.568 108.613 66.5057 109.747C66.3181 113.165 64.7785 116.012 62.8202 118.674C60.8741 121.32 58.4646 123.517 55.9943 125.681C53.4068 127.948 50.6845 130.034 48.007 132.182C46.766 133.178 45.6515 134.319 44.6998 135.586C43.4391 137.264 42.5142 139.068 42.4128 141.271C42.2656 144.47 41.8042 147.636 40.6298 150.654C40.625 150.666 40.6563 150.692 40.6708 150.712C40.6824 150.646 40.712 150.588 40.7621 150.532C41.287 150.137 41.4902 149.517 41.8649 149.022C42.0726 148.747 42.3665 148.54 42.7165 148.629C43.0438 148.712 42.9739 149.035 42.964 149.293C41.8924 152.927 39.2291 154.823 35.7153 155.541C31.8526 156.33 28.5412 155.054 25.799 152.28C25.1616 151.636 24.7529 150.843 24.6098 149.932Z" fill="#DD5454"/>
<path d="M4.11777 116.059C5.06737 118.047 6.85157 118.991 8.81561 119.558C11.1925 120.245 13.586 120.268 15.8591 119.045C17.4417 118.194 18.4196 116.9 18.8176 115.154C19.4893 112.206 20.4188 109.345 22.1787 106.85C25.7637 101.769 30.825 99.3253 36.936 98.935C40.5868 98.7018 43.9837 99.4827 46.8351 101.937C49.3061 104.063 50.3366 106.828 50.3519 110.021C50.3531 110.274 50.3807 110.559 50.1462 110.757C50.126 109.921 50.0761 109.124 49.242 108.597C42.2215 104.162 30.1729 103.565 23.9909 113.765C22.9766 115.439 22.2318 117.249 21.951 119.204C21.2798 123.879 17.3227 126.121 13.921 126.213C10.6768 126.301 7.73859 125.584 5.62824 122.852C4.63956 121.573 4.34442 120.046 4.07389 118.518C3.91316 117.611 3.84114 116.687 3.72922 115.771C3.98895 115.693 4.03724 115.898 4.11777 116.059Z" fill="#8C2828"/>
<path d="M22.3207 177.509C22.285 175.928 22.1985 174.351 22.661 172.799C23.8172 168.919 27.6602 166.246 31.712 166.5C34.124 166.651 36.3262 167.28 38.1158 169.004C40.1721 170.986 40.7741 173.482 40.7313 176.217C40.7216 176.841 40.7278 177.466 40.7267 178.09C39.3022 183.228 30.5157 186.986 24.8446 182.079C23.6444 181.041 22.7579 179.791 22.5402 178.163C22.5092 177.931 22.3526 177.741 22.3207 177.509Z" fill="#DD5454"/>
<path d="M24.6077 149.932C26.9572 154.973 33.0874 156.383 36.9435 154.991C39.7621 153.974 41.8368 152.196 42.7988 149.283C42.9132 149.178 42.9918 149.291 43.0826 149.329C42.8454 151.5 42.8607 153.68 42.8404 155.857C42.8114 158.968 41.5179 160.863 38.6019 161.957C34.5227 163.488 28.9907 162.142 26.0981 158.891C24.9097 157.556 24.2721 156.016 24.4129 154.183C24.5215 152.769 24.5459 151.349 24.6077 149.932Z" fill="#8C2828"/>
<path d="M43.0841 149.329C42.9895 149.313 42.8949 149.298 42.8003 149.282C42.762 149.115 42.9321 148.837 42.6557 148.803C42.3443 148.765 42.1196 148.978 41.9637 149.25C41.6648 149.772 41.5284 150.421 40.8679 150.666C40.6286 150.36 40.8693 150.093 40.9597 149.833C41.7225 147.64 42.2091 145.396 42.3506 143.073C42.4167 141.988 42.5702 140.907 42.6841 139.825C42.8876 137.89 44.3787 136.745 45.4021 135.33C46.3888 133.966 47.6735 132.858 48.9764 131.776C51.9239 129.328 55.0015 127.033 57.7953 124.401C58.1346 124.081 58.4644 123.633 59.0566 123.762C58.9952 124.25 58.604 124.534 58.3514 124.903C57.9875 125.436 58.0735 125.716 58.7447 125.957C59.3856 126.187 60.0311 125.721 60.6221 126.107C60.3443 127.099 59.3793 127.478 58.7563 128.161C58.2946 128.667 57.6818 129.029 57.218 129.549C57.9062 128.804 58.7141 128.191 59.5009 127.566C62.1036 125.497 64.2853 123.044 66.2705 120.401C66.4555 120.154 66.6045 119.792 67.0403 119.976C66.147 122.741 64.5185 125.048 62.4611 127.049C59.3256 130.099 55.719 132.581 52.304 135.294C48.5613 138.267 45.2099 141.555 43.629 146.237C43.2899 147.242 43.0854 148.267 43.0841 149.329Z" fill="#C93939"/>
<path d="M22.3201 177.509C22.4311 177.707 22.5893 177.893 22.6462 178.105C23.8365 182.555 28.5009 184.687 32.6398 183.967C36.0696 183.371 38.8286 181.715 40.3906 178.445C40.4571 178.305 40.6123 178.208 40.7262 178.091C40.7101 179.276 40.6996 180.462 40.6764 181.648C40.6529 182.846 40.2174 183.891 39.4907 184.834C35.7564 189.684 27.2608 189.842 23.6435 185.129C22.878 184.131 22.4233 183.031 22.4087 181.758C22.3925 180.342 22.3507 178.925 22.3201 177.509Z" fill="#8C2828"/>
<path d="M31.4325 88.0401C31.5179 88.34 31.754 88.452 32.0289 88.5156C31.8142 89.0316 31.3117 88.9134 30.9196 88.9853C25.8244 89.9197 21.0418 91.637 16.6794 94.4763C12.8658 96.9584 9.86888 100.183 7.61748 104.116C7.31416 104.824 6.98824 105.522 6.67026 106.223C6.59321 106.393 6.52653 106.602 6.26365 106.448C6.37541 105.942 6.03961 105.849 5.6594 105.798C7.66357 100.89 11.1899 97.2699 15.4404 94.2486C20.0266 90.9886 25.1796 89.1327 30.6533 88.0501C30.9131 87.9987 31.1713 87.9339 31.4325 88.0401Z" fill="#A92C2C"/>
<path d="M67.0396 119.977C66.4972 120.146 66.4007 120.694 66.1097 121.074C63.4926 124.492 60.3489 127.365 56.9197 129.944C56.8845 129.97 56.8108 129.946 56.6435 129.943C57.8815 128.499 59.3624 127.415 60.6214 126.108C63.1712 123.949 65.1169 121.257 67.204 118.689C67.2815 118.593 67.2866 118.324 67.5058 118.458C67.5723 118.499 67.5384 118.702 67.5505 118.831C67.4487 119.243 67.3156 119.642 67.0396 119.977Z" fill="#8C2828"/>
<path d="M4.11833 116.06C3.98882 115.964 3.85932 115.867 3.72978 115.771C3.57068 112.784 4.06161 109.906 5.18745 107.134C5.14462 108.353 4.58844 109.455 4.39924 110.652C4.11438 112.455 3.68926 114.228 4.11833 116.06Z" fill="#A92C2C"/>
<path d="M36.479 87.294C35.5466 87.5801 34.6028 87.7709 33.6196 87.6346C34.556 87.3821 35.5042 87.2267 36.479 87.294Z" fill="#A92C2C"/>
<path d="M7.50755 104.02C8.7015 101.599 10.3389 99.5074 12.2933 97.657C17.6868 92.5504 24.2284 89.8733 31.4605 88.6611C31.6522 88.629 31.8385 88.5653 32.0276 88.5165C32.3459 88.475 32.664 88.4335 32.9821 88.3919C33.5867 88.1988 34.2183 88.2453 34.8376 88.1834C38.0379 88.0959 41.2368 87.9626 44.4316 88.344C49.7314 88.9767 54.5362 90.8201 58.7754 94.0803C59.2445 94.5275 59.2509 94.5599 58.8997 94.7128C52.9584 90.5888 46.26 89.1712 39.1579 89.3204C33.9472 89.4299 28.809 90.0839 23.8636 91.843C17.5166 94.1006 12.2806 97.8383 8.42774 103.406C8.15356 103.802 7.70148 104.091 7.64337 104.627C7.19184 104.515 7.39435 104.258 7.50755 104.02Z" fill="#FBFBF3"/>
<path d="M59.055 123.763C58.0806 124.292 57.4262 125.192 56.5892 125.88C53.8332 128.147 51.0621 130.395 48.3207 132.678C46.9515 133.819 45.9546 135.329 44.7204 136.571C42.9363 138.367 42.8107 140.521 42.6501 142.729C42.4509 145.47 41.9504 148.13 40.8662 150.666C40.6264 150.884 40.6831 151.304 40.1552 151.537C40.4827 150.441 40.7813 149.474 41.0608 148.502C41.7288 146.178 42.0506 143.79 42.1343 141.39C42.2503 138.064 44.0848 135.693 46.2486 133.459C48.5807 131.051 51.5171 129.373 53.9673 127.112C56.4109 124.857 59.1059 122.869 61.228 120.271C63.2417 117.805 65.0842 115.244 65.8787 112.099C66.2674 110.561 66.3739 108.977 66.3462 107.394C66.3377 106.909 66.3448 106.448 66.5097 105.982C66.8323 107.742 67.1971 109.475 66.8162 111.296C66.1583 114.44 64.518 117.092 62.6785 119.621C61.604 121.098 60.2714 122.388 59.055 123.763Z" fill="#8C2828"/>
<path d="M25.4427 101.927C30.7337 98.3399 36.5349 97.1561 42.8029 98.1714C36.6663 97.7752 30.8385 98.8334 25.4427 101.927Z" fill="#A92C2C"/>
<path d="M52.8686 126.045C50.9667 127.602 49.0477 129.139 47.1674 130.722C45.2746 132.316 43.6418 134.141 42.4312 136.452C42.6287 133.901 47.3797 129.554 52.8686 126.045Z" fill="#A92C2C"/>
<path d="M7.50549 104.021C7.52303 104.229 7.41484 104.466 7.64125 104.627C7.04096 105.951 6.44066 107.275 5.84037 108.599C5.50433 108.582 5.53198 108.431 5.70151 108.227C5.76566 107.596 5.90597 106.989 6.26051 106.449C6.7913 105.699 6.89185 104.729 7.50549 104.021Z" fill="#F8E7AE"/>
<path d="M58.8984 94.7127C59.224 94.43 58.7315 94.3074 58.774 94.0801C60.0103 94.7338 60.8746 95.7873 61.7472 96.84C60.778 96.1515 59.733 95.5727 58.8984 94.7127Z" fill="#F9E497"/>
<path d="M5.70433 108.227C5.75069 108.351 5.79704 108.475 5.8433 108.599C5.8405 109.1 5.63701 109.504 5.16796 109.986C5.24358 109.24 5.37942 108.706 5.70433 108.227Z" fill="#A92C2C"/>
<path d="M34.839 88.1831C34.2303 88.3392 33.6154 88.4402 32.9836 88.3915C33.5649 87.9933 34.2006 88.0766 34.839 88.1831Z" fill="#A92C2C"/>
<path d="M31.3858 179.96C29.6893 180.862 26.9024 180.143 25.8061 179.286C23.637 177.59 23.3226 174.291 24.2872 172.293C24.5049 171.842 24.7716 171.213 25.2623 171.403C25.6814 171.565 25.412 172.252 25.2749 172.654C24.7813 174.101 24.9868 175.486 25.4389 176.897C26.1073 178.984 28.2983 179.751 30.1475 179.791C30.535 179.799 30.922 179.68 31.3858 179.96Z" fill="#8C2828"/>
<path d="M39.3475 177.203C38.8778 175.848 38.4779 174.614 38.0198 173.402C37.7059 172.572 37.3556 171.757 36.8961 170.984C35.8314 169.193 34.2619 168.48 32.2272 168.661C31.8031 168.699 31.3781 168.724 30.9301 168.757C32.433 167.874 35.1003 168.155 36.7272 169.352C38.7943 170.873 40.0318 174.45 39.3475 177.203Z" fill="#FBF9E2"/>
</g>
</g>
<defs>
<clipPath id="clip0_1571_1044">
<rect width="128" height="191" fill="white" transform="translate(70.5234)"/>
</clipPath>
<clipPath id="clip1_1571_1044">
<rect width="128" height="191" fill="white" transform="translate(70.5234)"/>
</clipPath>
<clipPath id="clip2_1571_1044">
<rect width="71" height="106" fill="white" transform="translate(0 83.4629)"/>
</clipPath>
<clipPath id="clip3_1571_1044">
<rect width="71" height="106" fill="white" transform="translate(0 83.4629)"/>
</clipPath>
</defs>
</svg>
