<svg width="20" height="22" viewBox="0 0 20 22" fill="none" xmlns="http://www.w3.org/2000/svg">
<path d="M9.75 0C15.1348 0 19.5 4.36522 19.5 9.75V14.75C19.5 18.4779 16.4779 21.5 12.75 21.5H9.75C9.33579 21.5 9 21.1642 9 20.75C9 20.3358 9.33579 20 9.75 20H12.75C14.7178 20 16.4311 18.9165 17.3301 17.3145C16.992 17.4336 16.6288 17.5 16.25 17.5C14.4551 17.5 13 16.0449 13 14.25V12.25C13 10.4551 14.4551 9 16.25 9C16.8917 9 17.4893 9.18686 17.9932 9.50781C17.865 5.06352 14.2253 1.5 9.75 1.5C5.27468 1.5 1.63402 5.06351 1.50586 9.50781C2.00985 9.18658 2.60804 9 3.25 9C5.04493 9 6.5 10.4551 6.5 12.25V14.25C6.5 16.0449 5.04493 17.5 3.25 17.5C1.45507 17.5 0 16.0449 0 14.25V9.75C0 4.36522 4.36522 0 9.75 0Z" fill="#DD5454"/>
</svg>
