<svg width="20" height="20" viewBox="0 0 20 20" fill="none" xmlns="http://www.w3.org/2000/svg">
<path d="M17.7827 0H1.41733C1.04143 0 0.680929 0.149326 0.415128 0.415128C0.149326 0.680929 0 1.04143 0 1.41733V17.7827C0 18.1586 0.149326 18.5191 0.415128 18.7849C0.680929 19.0507 1.04143 19.2 1.41733 19.2H17.7827C18.1586 19.2 18.5191 19.0507 18.7849 18.7849C19.0507 18.5191 19.2 18.1586 19.2 17.7827V1.41733C19.2 1.04143 19.0507 0.680929 18.7849 0.415128C18.5191 0.149326 18.1586 0 17.7827 0ZM5.72267 16.356H2.836V7.18667H5.72267V16.356ZM4.27733 5.916C3.94989 5.91416 3.63033 5.81536 3.35899 5.63207C3.08764 5.44878 2.87667 5.18922 2.7527 4.88615C2.62873 4.58308 2.59732 4.25007 2.66242 3.92916C2.72753 3.60825 2.88624 3.31382 3.11852 3.08303C3.35081 2.85223 3.64625 2.69541 3.96757 2.63237C4.28889 2.56932 4.62169 2.60287 4.92396 2.72879C5.22623 2.8547 5.48443 3.06733 5.66597 3.33985C5.84751 3.61237 5.94426 3.93255 5.944 4.26C5.94709 4.47923 5.90601 4.69683 5.82321 4.89984C5.74041 5.10286 5.61759 5.28712 5.46206 5.44165C5.30653 5.59619 5.12148 5.71783 4.91794 5.79932C4.7144 5.88082 4.49654 5.9205 4.27733 5.916ZM16.3627 16.364H13.4773V11.3547C13.4773 9.87733 12.8493 9.42133 12.0387 9.42133C11.1827 9.42133 10.3427 10.0667 10.3427 11.392V16.364H7.456V7.19333H10.232V8.464H10.2693C10.548 7.9 11.524 6.936 13.0133 6.936C14.624 6.936 16.364 7.892 16.364 10.692L16.3627 16.364Z" fill="#0A66C2"/>
</svg>
