<svg width="131" height="60" viewBox="0 0 131 60" fill="none" xmlns="http://www.w3.org/2000/svg">
<path d="M118.322 33.0392L90.2665 28.6428L93.9857 45.3608L118.322 33.0392Z" fill="#D12053"/>
<path d="M118.322 33.0392L97.1813 3.66626L90.2719 28.6481L118.322 33.0392Z" fill="#E2136E"/>
<path d="M89.6161 28.3095L67.4647 0L96.4726 3.46529L89.6161 28.3095Z" fill="#D12053"/>
<path d="M79.5271 16.4799L67.2267 4.88843H70.4645L79.5271 16.4799Z" fill="#9E1638"/>
<path d="M124.306 18.76L119.1 32.8804L110.662 21.2095L124.306 18.76Z" fill="#D12053"/>
<path d="M97.2606 44.5142L117.687 36.3087L118.544 33.7004L97.2606 44.5142Z" fill="#E2136E"/>
<path d="M80.9237 60L89.6742 29.3044L94.1129 49.2761L80.9237 60Z" fill="#9E1638"/>
<path d="M125.121 18.8713L122.973 24.7015L130.718 24.5745L125.121 18.8713ZM0 21.2097C0.375626 21.2415 0.756543 21.3103 1.15862 21.3103C1.5607 21.3103 1.88871 21.2415 2.31724 21.2097V33.6266C3.53935 31.5474 5.07889 30.1772 7.34323 30.1772C11.4381 30.1772 13.1945 34.2297 13.1945 37.9542C13.1945 42.4141 10.8138 46.6836 6.63959 46.6836C5.80386 46.7019 4.97903 46.4912 4.25444 46.0744C3.52985 45.6575 2.93312 45.0504 2.52886 44.3187C1.83052 44.9324 1.21153 45.6678 0.550213 46.3344H0.021162L0 21.2097ZM2.26434 39.4726C2.26434 43.0913 3.79859 45.6149 6.32216 45.6149C9.59699 45.6149 10.6498 41.2132 10.6498 38.0918C10.6498 34.4678 9.45414 31.6162 6.61843 31.5844C3.30657 31.558 2.26434 35.4783 2.26434 39.4779V39.4726Z" fill="#E2136E"/>
<path d="M23.8761 29.2408L21.4107 32.4151C23.728 35.801 26.1299 39.1182 28.4577 42.5464L30.8067 46.2498V46.435C30.23 46.3979 29.7063 46.3239 29.2195 46.3239C28.7328 46.3239 28.1191 46.3979 27.6006 46.435C26.9605 45.2499 26.3256 44.1548 25.6008 43.0808L19.2522 33.6901C19.1094 33.542 18.7655 33.4256 18.7655 33.579V46.435C18.2999 46.3979 17.8925 46.3239 17.4905 46.3239C17.0884 46.3239 16.6228 46.3979 16.2155 46.435V21.2098C16.6228 21.2415 17.0619 21.3209 17.4905 21.3209C17.919 21.3209 18.2999 21.2415 18.7655 21.2098V32.595C18.7655 32.8172 19.1993 32.669 19.485 32.3728C20.036 31.8015 20.5519 31.1972 21.0298 30.5634L28.1667 21.1992C28.5423 21.231 28.918 21.3103 29.3253 21.3103C29.7327 21.3103 30.0449 21.231 30.4575 21.1992L23.8761 29.2408ZM43.0754 43.594C43.0754 44.906 42.9907 45.5726 44.6996 45.1388V45.8742C44.4204 46.014 44.128 46.1257 43.8266 46.2075C42.3188 46.509 41.0703 46.2392 40.8375 44.2659L40.5783 44.5568C40.0742 45.2173 39.424 45.7521 38.6787 46.1192C37.9334 46.4864 37.1132 46.6759 36.2824 46.673C34.2296 46.673 32.4309 45.0541 32.4309 42.5729C32.4309 38.7478 35.0761 38.2452 37.7902 37.7426C40.0862 37.3088 40.8692 37.1078 40.8692 35.4942C40.8692 33.0076 39.6524 31.5686 37.478 31.5686C36.7354 31.5541 36.0063 31.768 35.3893 32.1816C34.7724 32.5951 34.2974 33.1882 34.0286 33.8806H33.7112V32.0183C35.0167 30.8825 36.6743 30.2321 38.4039 30.1772C41.4459 30.1772 43.1018 32.0183 43.1018 35.8116L43.0754 43.594ZM40.7581 38.0548L39.7371 38.2876C37.7637 38.7214 34.8063 39.0547 34.8063 42.1179C34.8063 44.2341 35.8644 45.2922 37.642 45.2922C38.5616 45.179 39.4025 44.7168 39.991 44.0013C40.2026 43.758 40.7846 43.1866 40.7846 42.9432L40.7581 38.0548ZM48.2442 43.1496C48.932 44.4669 50.2123 45.6467 51.5772 45.6467C52.3561 45.607 53.0889 45.2655 53.6202 44.6946C54.1515 44.1238 54.4397 43.3685 54.4235 42.5888C54.4235 38.0601 47.5723 41.0016 47.5723 35.1397C47.5723 31.9231 49.6885 30.1825 52.2967 30.1825C53.4501 30.1571 54.5875 30.4576 55.5769 31.0502C55.2912 31.8263 55.0613 32.6219 54.8891 33.4309H54.6246C54.2437 32.3252 53.2332 31.2142 52.1592 31.2142C50.7096 31.2142 49.5139 32.1929 49.5139 34.0075C49.5139 38.2982 56.3652 36.0127 56.3652 41.3825C56.3652 44.9748 53.5823 46.673 51.0217 46.673C49.7394 46.672 48.4839 46.305 47.403 45.6149C47.6627 44.81 47.866 43.988 48.0114 43.1548L48.2442 43.1496ZM60.2696 21.2098C60.6558 21.2415 61.0314 21.3103 61.4335 21.3103C61.8355 21.3103 62.1636 21.2415 62.5974 21.2098V33.4256C63.6132 31.3782 65.2056 30.1772 67.2689 30.1772C70.6337 30.1772 71.9404 32.4839 71.9404 36.7163V46.435C71.5013 46.3979 71.1627 46.3344 70.7765 46.3344C70.3903 46.3344 69.9935 46.4032 69.6126 46.435V37.4834C69.6126 33.7801 68.8666 31.9125 66.396 31.9125C63.7825 31.9125 62.5974 33.7959 62.5974 37.2824V46.435C62.1636 46.3979 61.8197 46.3344 61.4335 46.3344C61.0473 46.3344 60.661 46.4032 60.2696 46.435V21.2098Z" fill="white"/>
</svg>
