<svg width="175" height="38" viewBox="0 0 175 38" fill="none" xmlns="http://www.w3.org/2000/svg">
<g clip-path="url(#clip0_1578_18460)">
<path d="M11.2508 10.0214L9.79633 15.5054L18.1216 9.99014L12.6767 30.8006L18.2065 30.8053L26.2501 0.0673828" fill="#3395FF"/>
<path d="M2.29025 22.0557L0 30.8045H11.334L15.9717 13.0071L2.29025 22.0557ZM41.6603 14.3533C41.3833 15.4081 40.8495 16.1829 40.0535 16.6776C39.2593 17.1714 38.1446 17.4193 36.7058 17.4193H32.1346L33.7396 11.2891H38.3109C39.7478 11.2891 40.735 11.5351 41.2706 12.0365C41.8063 12.5379 41.9355 13.3041 41.6603 14.3637M46.3932 14.2312C46.975 12.0176 46.7349 10.3147 45.671 9.12275C44.609 7.94023 42.7454 7.34424 40.0858 7.34424H29.884L23.7428 30.8149H28.6992L31.1741 21.3547H34.4248C35.1544 21.3547 35.7288 21.4777 36.148 21.7142C36.5682 21.9602 36.8148 22.3859 36.8905 23.0008L37.7752 30.8149H43.0853L42.2246 23.5306C42.0491 21.9034 41.3223 20.9479 40.0452 20.6641C41.6733 20.1817 43.0373 19.3776 44.1362 18.2613C45.2275 17.1531 46.0072 15.7643 46.3932 14.2407M58.441 22.4143C58.0255 24.0036 57.3882 25.205 56.5266 26.047C55.6641 26.8889 54.6335 27.3052 53.4311 27.3052C52.2066 27.3052 51.3763 26.8984 50.9377 26.0753C50.4981 25.2523 50.4833 24.0603 50.8915 22.4994C51.2997 20.9385 51.9508 19.7181 52.8465 18.8383C53.7423 17.9585 54.7896 17.5186 55.9919 17.5186C57.1925 17.5186 58.0144 17.9443 58.4299 18.7891C58.8547 19.6377 58.864 20.8514 58.4484 22.4313L58.441 22.4143ZM60.6131 14.1082L59.9925 16.4827C59.7247 15.6313 59.2047 14.9502 58.4364 14.4394C57.6662 13.938 56.7132 13.6825 55.5764 13.6825C54.1819 13.6825 52.8428 14.0515 51.5592 14.7894C50.2755 15.5273 49.1489 16.5679 48.1885 17.9112C47.228 19.2546 46.5262 20.7777 46.0737 22.4899C45.6304 24.2117 45.5381 25.7159 45.8059 27.0214C46.0829 28.3363 46.6647 29.3391 47.5605 30.0391C48.4655 30.7487 49.6199 31.0987 51.0328 31.0987C52.1556 31.1045 53.2657 30.8557 54.2835 30.3702C55.2898 29.9053 56.1849 29.2208 56.9062 28.3647L56.2597 30.8395H61.0526L65.429 14.1168H60.6269L60.6131 14.1082ZM82.6521 14.1082H68.7139L67.7396 17.8355H75.8497L65.128 27.3241L64.2119 30.8243H78.5998L79.5741 27.097H70.8841L81.7701 17.4666M94.9206 22.3859C94.4893 24.0319 93.8494 25.2693 93.0044 26.0753C92.1594 26.8889 91.1361 27.2957 89.9347 27.2957C87.4228 27.2957 86.5972 25.6591 87.4542 22.3859C87.879 20.7587 88.5218 19.5355 89.3806 18.7116C90.2394 17.8847 91.2802 17.4723 92.5038 17.4723C93.7044 17.4723 94.5152 17.8819 94.9326 18.7068C95.35 19.5299 95.3463 20.7568 94.9206 22.384M97.7262 14.7373C96.6226 14.0335 95.2143 13.6816 93.4966 13.6816C91.7577 13.6816 90.148 14.0316 88.6667 14.7317C87.1916 15.4273 85.8952 16.4658 84.8804 17.7646C83.8369 19.0796 83.0861 20.6216 82.6253 22.3811C82.1728 24.1341 82.1174 25.6733 82.4683 26.9911C82.8192 28.306 83.558 29.3183 84.6662 30.0183C85.7836 30.7241 87.2058 31.075 88.9512 31.075C90.6689 31.075 92.2665 30.7212 93.7348 30.0174C95.2032 29.3098 96.4591 28.3051 97.5027 26.9807C98.5462 25.6619 99.2942 24.1237 99.756 22.3641C100.218 20.6045 100.273 19.0682 99.9222 17.7476C99.5713 16.4326 98.8417 15.4204 97.7428 14.7156M114.837 18.5753L116.065 14.025C115.649 13.8074 115.104 13.6939 114.421 13.6939C113.322 13.6939 112.269 13.972 111.253 14.5358C110.38 15.0145 109.637 15.69 109.009 16.5357L109.647 14.0855L108.255 14.0912H104.838L100.433 30.8073H105.293L107.579 22.069C107.911 20.7985 108.51 19.7985 109.373 19.089C110.232 18.3767 111.303 18.02 112.596 18.02C113.39 18.02 114.129 18.2064 114.831 18.5782M128.36 22.4663C127.944 24.0272 127.317 25.2192 126.458 26.0422C125.599 26.869 124.565 27.2815 123.364 27.2815C122.163 27.2815 121.342 26.8653 120.908 26.0328C120.464 25.1955 120.455 23.9894 120.871 22.4039C121.286 20.8193 121.923 19.6036 122.801 18.7617C123.678 17.9131 124.712 17.4893 125.913 17.4893C127.095 17.4893 127.889 17.9245 128.314 18.8043C128.739 19.6841 128.748 20.9044 128.34 22.4653M131.738 14.7648C130.838 14.0269 129.688 13.6579 128.294 13.6579C127.072 13.6579 125.907 13.9417 124.803 14.515C123.699 15.0874 122.803 15.8678 122.115 16.8555L122.132 16.742L122.947 14.0836H118.201L116.991 18.7097L116.954 18.8705L111.967 37.927H116.834L119.346 28.3344C119.595 29.1877 120.103 29.8575 120.879 30.3419C121.655 30.8243 122.612 31.0637 123.751 31.0637C125.164 31.0637 126.512 30.7136 127.791 30.0136C129.075 29.3117 130.183 28.3013 131.125 26.9958C132.067 25.6903 132.766 24.1767 133.212 22.4644C133.665 20.7493 133.757 19.2196 133.498 17.881C133.235 16.5405 132.652 15.5027 131.753 14.7686M147.882 22.3982C147.466 23.978 146.829 25.1889 145.97 26.0214C145.111 26.8596 144.077 27.2768 142.876 27.2768C141.648 27.2768 140.817 26.87 140.383 26.047C139.94 25.2239 139.93 24.0319 140.337 22.471C140.743 20.9101 141.391 19.6897 142.287 18.8099C143.183 17.9301 144.231 17.4912 145.433 17.4912C146.634 17.4912 147.447 17.9169 147.871 18.7589C148.296 19.6036 148.299 20.8174 147.885 22.401L147.882 22.3982ZM150.052 14.0874L149.43 16.4619C149.163 15.6058 148.645 14.9247 147.879 14.4185C147.103 13.9134 146.152 13.6617 145.016 13.6617C143.622 13.6617 142.275 14.0307 140.99 14.7686C139.706 15.5065 138.579 16.5414 137.619 17.881C136.659 19.2205 135.957 20.7474 135.504 22.4597C135.056 24.1786 134.969 25.6856 135.236 26.9968C135.507 28.3023 136.09 29.3107 136.991 30.0145C137.89 30.7146 139.05 31.0684 140.463 31.0684C141.599 31.0684 142.684 30.8262 143.714 30.34C144.718 29.8729 145.611 29.1875 146.33 28.3316L145.684 30.8083H150.477L154.852 14.0922H150.059L150.052 14.0874ZM174.974 14.0931L174.977 14.0884H172.031C171.937 14.0884 171.854 14.0931 171.768 14.095H170.239L169.454 15.2113L169.26 15.4762L169.177 15.6086L162.967 24.4709L161.683 14.0931H156.597L159.173 29.8632L153.484 37.9327H158.554L159.93 35.9338C159.969 35.8751 160.004 35.8259 160.05 35.7635L161.657 33.4268L161.703 33.3606L168.9 22.9071L174.968 14.1092L174.977 14.1035H174.974V14.0931Z" fill="white"/>
</g>
<defs>
<clipPath id="clip0_1578_18460">
<rect width="174.977" height="38" fill="white"/>
</clipPath>
</defs>
</svg>
