<svg width="142" height="36" viewBox="0 0 142 36" fill="none" xmlns="http://www.w3.org/2000/svg">
<path fill-rule="evenodd" clip-rule="evenodd" d="M8.4304 34.2946L9.03715 30.3871L7.6856 30.3551H1.23132L5.71685 1.51968C5.73078 1.43236 5.77591 1.3513 5.84195 1.29365C5.90815 1.23598 5.99276 1.20435 6.08103 1.20435H16.9638C20.5769 1.20435 23.0701 1.96655 24.3717 3.47091C24.9821 4.17677 25.3707 4.91446 25.5588 5.72603C25.7561 6.57782 25.7594 7.59531 25.567 8.83646L25.553 8.92677V9.72226L26.1634 10.0728C26.6771 10.3492 27.0856 10.6655 27.399 11.0278C27.9208 11.6314 28.2585 12.3984 28.4011 13.3075C28.5488 14.2426 28.5 15.3557 28.2584 16.6156C27.98 18.0649 27.5299 19.3271 26.9218 20.3597C26.3629 21.3113 25.6506 22.1008 24.8046 22.7123C23.9971 23.2935 23.0378 23.7348 21.9528 24.0172C20.9016 24.2946 19.703 24.4347 18.3885 24.4347H17.5416C16.9362 24.4347 16.3479 24.6558 15.8861 25.0521C15.4231 25.4567 15.117 26.0097 15.023 26.6142L14.959 26.9662L13.8869 33.8537L13.8384 34.1064C13.8255 34.1865 13.8034 34.2264 13.7709 34.2533C13.7418 34.2781 13.7004 34.2946 13.6597 34.2946H8.4304Z" fill="#465491"/>
<path fill-rule="evenodd" clip-rule="evenodd" d="M26.7413 9.01831C26.7092 9.22891 26.6718 9.44404 26.6302 9.66502C25.195 17.1361 20.2849 19.7171 14.014 19.7171H10.8211C10.0541 19.7171 9.40766 20.2815 9.28854 21.0487L7.1907 34.5399C7.11305 35.0437 7.49582 35.4974 7.99705 35.4974H13.6601C14.3305 35.4974 14.9003 35.0035 15.0058 34.333L15.0614 34.0415L16.1277 27.1809L16.1963 26.8046C16.3006 26.1318 16.8715 25.6375 17.542 25.6375H18.389C23.8757 25.6375 28.1709 23.3792 29.4264 16.8432C29.9505 14.1129 29.6792 11.8332 28.2915 10.2298C27.8716 9.74645 27.3506 9.34519 26.7413 9.01831Z" fill="#3D9ECF"/>
<path fill-rule="evenodd" clip-rule="evenodd" d="M25.2429 8.41188C25.0234 8.34704 24.7973 8.2884 24.5653 8.23529C24.3319 8.18352 24.0931 8.13778 23.8471 8.09757C22.9861 7.9565 22.0427 7.88965 21.0323 7.88965H12.5026C12.2924 7.88965 12.0928 7.93773 11.9144 8.02486C11.5209 8.21652 11.2287 8.59416 11.1579 9.05641L9.34307 20.7095L9.29114 21.0493C9.41043 20.2821 10.0568 19.7176 10.8237 19.7176H14.0167C20.2875 19.7176 25.1976 17.1355 26.6328 9.6656C26.6758 9.44461 26.7118 9.22949 26.7439 9.01888C26.3809 8.82353 25.9877 8.65649 25.5643 8.51408C25.4596 8.4789 25.3517 8.44488 25.2429 8.41188Z" fill="#22284F"/>
<path fill-rule="evenodd" clip-rule="evenodd" d="M11.1543 9.05658C11.2251 8.59433 11.5173 8.21669 11.9109 8.02619C12.0905 7.9389 12.2888 7.89082 12.499 7.89082H21.0289C22.0392 7.89082 22.9827 7.958 23.8435 8.09907C24.0896 8.13895 24.3285 8.18502 24.5617 8.23679C24.7939 8.28957 25.02 8.34855 25.2393 8.41305C25.3482 8.44605 25.456 8.48023 25.5617 8.51425C25.9851 8.65666 26.3787 8.82504 26.7417 9.01905C27.1688 6.25812 26.7382 4.37846 25.2661 2.67622C23.6427 0.801994 20.7133 0 16.9646 0H6.08159C5.31606 0 4.66284 0.564435 4.54455 1.33282L0.0115759 30.4648C-0.0776866 31.041 0.360663 31.5611 0.933901 31.5611H7.65264L11.1543 9.05658Z" fill="#465491"/>
<path fill-rule="evenodd" clip-rule="evenodd" d="M52.1465 7.7644H44.2117C43.6687 7.7644 43.2068 8.16449 43.122 8.70817L39.9128 29.3373C39.8491 29.7446 40.1601 30.1114 40.5674 30.1114H44.3554C44.8984 30.1114 45.3602 29.7116 45.445 29.167L46.3104 23.6027C46.394 23.058 46.8567 22.6581 47.3988 22.6581H49.9106C55.1372 22.6581 58.1538 20.0935 58.9419 15.0121C59.2967 12.7887 58.9568 11.0419 57.9298 9.81847C56.8022 8.47512 54.8019 7.7644 52.1465 7.7644ZM53.0613 15.2991C52.6276 18.1857 50.4521 18.1857 48.3488 18.1857H47.1512L47.9913 12.7945C48.0414 12.4687 48.3196 12.2287 48.6445 12.2287H49.1935C50.6263 12.2287 51.9779 12.2287 52.6762 13.0569C53.0928 13.5508 53.2203 14.2848 53.0613 15.2991Z" fill="#465491"/>
<path fill-rule="evenodd" clip-rule="evenodd" d="M76.0694 15.0506H72.2696C71.9461 15.0506 71.6662 15.2905 71.6164 15.6164L71.4482 16.6939L71.1827 16.3033C70.3601 15.0928 68.5256 14.6882 66.695 14.6882C62.4959 14.6882 58.9096 17.9128 58.2113 22.4357C57.8483 24.6919 58.3644 26.8493 59.6269 28.3538C60.7848 29.7371 62.4416 30.3138 64.4125 30.3138C67.796 30.3138 69.6717 28.1081 69.6717 28.1081L69.5025 29.1785C69.4388 29.5878 69.7499 29.9549 70.1547 29.9549H73.577C74.1214 29.9549 74.581 29.5548 74.6668 29.0103L76.7203 15.8247C76.7853 15.4187 76.4752 15.0506 76.0694 15.0506ZM70.7727 22.5487C70.4062 24.7495 68.6835 26.2269 66.486 26.2269C65.3826 26.2269 64.501 25.868 63.9345 25.1883C63.3729 24.5133 63.1597 23.5521 63.3382 22.4815C63.6807 20.2996 65.4324 18.7736 67.5964 18.7736C68.6754 18.7736 69.5524 19.1375 70.1303 19.8227C70.709 20.5157 70.9388 21.4828 70.7727 22.5487Z" fill="#465491"/>
<path fill-rule="evenodd" clip-rule="evenodd" d="M96.0121 15.3789H92.1935C91.8292 15.3789 91.4871 15.5625 91.2807 15.8695L86.0143 23.7344L83.7821 16.1762C83.6416 15.7034 83.2114 15.3789 82.7239 15.3789H78.9721C78.5156 15.3789 78.1992 15.8306 78.3441 16.2659L82.55 28.7796L78.5959 34.439C78.285 34.8849 78.5982 35.4978 79.1355 35.4978H82.949C83.3111 35.4978 83.6497 35.3188 83.8551 35.0181L96.5548 16.4317C96.8591 15.9873 96.5466 15.3789 96.0121 15.3789Z" fill="#465491"/>
<path fill-rule="evenodd" clip-rule="evenodd" d="M108.743 7.7644H100.807C100.265 7.7644 99.8033 8.16449 99.7185 8.70817L96.5094 29.3373C96.4457 29.7446 96.7566 30.1114 97.1616 30.1114H101.234C101.612 30.1114 101.936 29.8316 101.995 29.4504L102.906 23.6027C102.989 23.058 103.452 22.6581 103.994 22.6581H106.505C111.732 22.6581 114.748 20.0935 115.537 15.0121C115.893 12.7887 115.551 11.0419 114.524 9.81847C113.397 8.47512 111.398 7.7644 108.743 7.7644ZM109.658 15.2991C109.225 18.1857 107.05 18.1857 104.945 18.1857H103.749L104.59 12.7945C104.64 12.4687 104.917 12.2287 105.242 12.2287H105.791C107.223 12.2287 108.576 12.2287 109.274 13.0569C109.691 13.5508 109.817 14.2848 109.658 15.2991Z" fill="#3D9ECF"/>
<path fill-rule="evenodd" clip-rule="evenodd" d="M132.656 15.0506H128.859C128.533 15.0506 128.255 15.2905 128.207 15.6164L128.038 16.6939L127.772 16.3033C126.949 15.0928 125.116 14.6882 123.285 14.6882C119.086 14.6882 115.501 17.9128 114.803 22.4357C114.441 24.6919 114.955 26.8493 116.217 28.3538C117.377 29.7371 119.032 30.3138 121.003 30.3138C124.386 30.3138 126.262 28.1081 126.262 28.1081L126.093 29.1785C126.029 29.5878 126.34 29.9549 126.747 29.9549H130.169C130.71 29.9549 131.172 29.5548 131.257 29.0103L133.312 15.8247C133.374 15.4187 133.063 15.0506 132.656 15.0506ZM127.36 22.5487C126.995 24.7495 125.27 26.2269 123.072 26.2269C121.971 26.2269 121.088 25.868 120.521 25.1883C119.96 24.5133 119.749 23.5521 119.925 22.4815C120.269 20.2996 122.019 18.7736 124.183 18.7736C125.262 18.7736 126.139 19.1375 126.717 19.8227C127.298 20.5157 127.528 21.4828 127.36 22.5487Z" fill="#3D9ECF"/>
<path fill-rule="evenodd" clip-rule="evenodd" d="M136.822 8.33153L133.565 29.3384C133.501 29.7456 133.812 30.1124 134.217 30.1124H137.491C138.036 30.1124 138.497 29.7126 138.58 29.168L141.792 8.53979C141.856 8.13249 141.545 7.7644 141.14 7.7644H137.474C137.15 7.76541 136.872 8.00566 136.822 8.33153Z" fill="#3D9ECF"/>
</svg>
