<svg width="106" height="46" viewBox="0 0 106 46" fill="none" xmlns="http://www.w3.org/2000/svg">
<path fill-rule="evenodd" clip-rule="evenodd" d="M57.277 6.19984L49.9005 7.84904V1.61872L57.277 0V6.19984ZM72.6176 9.65082C69.7376 9.65082 67.8861 11.0558 66.8576 12.033L66.4755 10.1396H60.0102V45.75L67.3572 44.1315L67.3866 35.4883C68.4446 36.2824 70.002 37.4124 72.5882 37.4124C77.8487 37.4124 82.639 33.0145 82.639 23.3332C82.6096 14.4763 77.7605 9.65082 72.6176 9.65082ZM70.854 30.6935C69.1201 30.6935 68.0915 30.0521 67.3862 29.258L67.3568 17.9275C68.121 17.0417 69.1789 16.4309 70.854 16.4309C73.5283 16.4309 75.3798 19.546 75.3798 23.5469C75.3798 27.6395 73.5577 30.6935 70.854 30.6935ZM105.797 23.6385C105.797 15.8202 102.153 9.65082 95.1878 9.65082C88.1934 9.65082 83.9616 15.8202 83.9616 23.5774C83.9616 32.7703 88.9575 37.4124 96.1281 37.4124C99.6254 37.4124 102.27 36.5878 104.269 35.4273V29.3191C102.27 30.3575 99.978 30.9988 97.0686 30.9988C94.218 30.9988 91.6907 29.9605 91.3672 26.3567H105.738C105.738 26.1884 105.749 25.8059 105.761 25.3654C105.777 24.767 105.797 24.0604 105.797 23.6385ZM91.279 20.7371C91.279 17.2861 93.3069 15.8507 95.1584 15.8507C96.951 15.8507 98.8613 17.2861 98.8613 20.7371H91.279ZM49.9005 10.1701H57.277V36.8933H49.9005V10.1701ZM41.5251 10.1701L41.9954 12.4302C43.7292 9.13175 47.1677 9.80358 48.1081 10.1701V17.1945C47.1971 16.8585 44.2583 16.4309 42.5245 18.7826V36.8933H35.1774V10.1701H41.5251ZM27.3011 3.54279L20.1305 5.13085L20.1011 29.594C20.1011 34.114 23.3632 37.443 27.7126 37.443C30.1225 37.443 31.8858 36.9849 32.8555 36.4352V30.2354C31.9152 30.6323 27.2717 32.0373 27.2717 27.5172V16.6753H32.8555V10.1701H27.2717L27.3011 3.54279ZM9.93321 16.2783C8.37559 16.2783 7.43507 16.7364 7.43507 17.9275C7.43507 19.2279 9.05368 19.7999 11.0615 20.5096C14.3349 21.6667 18.6432 23.1895 18.6615 28.8305C18.6615 34.2972 14.4589 37.443 8.34619 37.443C5.81883 37.443 3.05625 36.9238 0.323248 35.7022V28.4334C2.7918 29.8384 5.90704 30.8767 8.34619 30.8767C9.99183 30.8767 11.1674 30.4186 11.1674 29.0138C11.1674 27.5733 9.41291 26.9148 7.29481 26.1198C4.06909 24.9092 0 23.3821 0 18.294C0 12.8883 3.96737 9.65082 9.93321 9.65082C12.3724 9.65082 14.7821 10.048 17.2214 11.0558V18.2328C14.9879 16.9806 12.1667 16.2783 9.93321 16.2783Z" fill="#6772E5"/>
</svg>
