<svg width="105" height="25" viewBox="0 0 105 25" fill="none" xmlns="http://www.w3.org/2000/svg">
<path d="M33.8312 3.14377C33.8312 3.90262 33.6054 4.50789 33.1537 4.95055C32.6478 5.48354 31.9883 5.75456 31.1662 5.75456C30.3803 5.75456 29.7118 5.48354 29.1697 4.94151C28.6277 4.39948 28.3567 3.72194 28.3567 2.92696C28.3567 2.13198 28.6277 1.45444 29.1697 0.912413C29.7118 0.370381 30.3803 0.090332 31.1662 0.090332C31.5637 0.090332 31.9431 0.162602 32.2955 0.29811C32.6478 0.442652 32.9369 0.641397 33.1627 0.894345L32.6658 1.39121C32.5032 1.19246 32.2864 1.02985 32.0154 0.921447C31.7476 0.804939 31.4582 0.746442 31.1662 0.749803C30.579 0.749803 30.0731 0.957582 29.6666 1.36411C29.2601 1.77966 29.0613 2.29459 29.0613 2.91793C29.0613 3.54126 29.2601 4.05619 29.6666 4.47175C30.0731 4.87827 30.57 5.08605 31.1662 5.08605C31.7083 5.08605 32.1509 4.93248 32.5123 4.63436C32.8736 4.33624 33.0814 3.91165 33.1356 3.38769H31.1662V2.73725H33.7951C33.8131 2.88179 33.8312 3.0173 33.8312 3.14377ZM37.9958 0.216805V0.885311H35.5296V2.60174H37.7519V3.25218H35.5296V4.96861H37.9958V5.63712H34.834V0.216805H37.9958ZM40.9318 0.885311V5.63712H40.2362V0.885311H38.7185V0.216805H42.4405V0.885311H40.9318ZM45.8372 5.63712H45.1416V0.216805H45.8372V5.63712ZM48.9268 0.885311V5.63712H48.2312V0.885311H46.7135V0.216805H50.4354V0.885311H48.9268ZM58.2859 2.92696C58.2859 3.73098 58.0148 4.39948 57.4818 4.94151C56.9398 5.48354 56.2803 5.75456 55.4944 5.75456C54.7085 5.75456 54.049 5.48354 53.507 4.94151C52.974 4.39948 52.7029 3.73098 52.7029 2.92696C52.7029 2.12295 52.974 1.45444 53.507 0.912413C54.0399 0.370381 54.6994 0.090332 55.4944 0.090332C56.2803 0.090332 56.9398 0.361348 57.4818 0.912413C58.0239 1.46348 58.2859 2.13198 58.2859 2.92696ZM53.4256 2.92696C53.4256 3.5503 53.6244 4.07426 54.0129 4.48079C54.4103 4.88731 54.9072 5.09509 55.4944 5.09509C56.0816 5.09509 56.5785 4.88731 56.9669 4.48079C57.3644 4.07426 57.5632 3.55933 57.5632 2.92696C57.5632 2.29459 57.3644 1.77966 56.9669 1.37314C56.5694 0.966616 56.0816 0.758837 55.4944 0.758837C54.9072 0.758837 54.4103 0.966616 54.0129 1.37314C53.6244 1.77966 53.4256 2.30363 53.4256 2.92696ZM59.9571 5.63712H59.2615V0.216805H60.1107L62.7486 4.43562H62.7757L62.7486 3.38769V0.216805H63.4442V5.63712H62.7215L59.9662 1.21956H59.9391L59.9662 2.26749V5.63712H59.9571Z" fill="white" stroke="white" stroke-width="0.180677" stroke-miterlimit="10"/>
<path d="M52.5511 13.5418C50.4281 13.5418 48.6936 15.1589 48.6936 17.3812C48.6936 19.5945 50.4281 21.2206 52.5511 21.2206C54.674 21.2206 56.4085 19.5945 56.4085 17.3812C56.4085 15.1589 54.674 13.5418 52.5511 13.5418ZM52.5511 19.7119C51.3857 19.7119 50.383 18.7543 50.383 17.3812C50.383 15.999 51.3857 15.0505 52.5511 15.0505C53.7165 15.0505 54.7192 15.999 54.7192 17.3812C54.7192 18.7543 53.7074 19.7119 52.5511 19.7119ZM44.1315 13.5418C42.0086 13.5418 40.2741 15.1589 40.2741 17.3812C40.2741 19.5945 42.0086 21.2206 44.1315 21.2206C46.2545 21.2206 47.989 19.5945 47.989 17.3812C47.989 15.1589 46.2545 13.5418 44.1315 13.5418ZM44.1315 19.7119C42.9662 19.7119 41.9634 18.7543 41.9634 17.3812C41.9634 15.999 42.9662 15.0505 44.1315 15.0505C45.2969 15.0505 46.2997 15.999 46.2997 17.3812C46.2997 18.7543 45.2969 19.7119 44.1315 19.7119ZM34.122 14.7252V16.3513H38.0246C37.9072 17.2638 37.6001 17.9413 37.1393 18.402C36.5702 18.9712 35.6849 19.5945 34.1311 19.5945C31.728 19.5945 29.849 17.6613 29.849 15.2582C29.849 12.8552 31.728 10.922 34.1311 10.922C35.4229 10.922 36.3714 11.4279 37.0671 12.0874L38.2144 10.9401C37.2387 10.0096 35.9469 9.2959 34.122 9.2959C30.8337 9.2959 28.0693 11.9699 28.0693 15.2673C28.0693 18.5556 30.8337 21.2387 34.122 21.2387C35.9017 21.2387 37.2387 20.6605 38.2866 19.5674C39.3617 18.4924 39.6959 16.9747 39.6959 15.7551C39.6959 15.3757 39.6688 15.0234 39.6056 14.7343H34.122V14.7252ZM75.0544 15.99C74.7382 15.1318 73.7626 13.5418 71.7661 13.5418C69.7877 13.5418 68.1435 15.0956 68.1435 17.3812C68.1435 19.5313 69.7696 21.2206 71.9558 21.2206C73.7174 21.2206 74.7382 20.1456 75.1538 19.5222L73.8439 18.6459C73.4103 19.2873 72.814 19.7119 71.9558 19.7119C71.0976 19.7119 70.4833 19.3235 70.0948 18.5466L75.2351 16.4236L75.0544 15.99ZM69.8148 17.2728C69.7696 15.7912 70.9621 15.0324 71.8203 15.0324C72.4888 15.0324 73.0579 15.3667 73.2477 15.8454L69.8148 17.2728ZM65.6411 20.9947H67.3305V9.70242H65.6411V20.9947ZM62.8768 14.4H62.8135C62.4341 13.9483 61.7114 13.5418 60.79 13.5418C58.8658 13.5418 57.1042 15.2311 57.1042 17.3993C57.1042 19.5493 58.8658 21.2296 60.79 21.2296C61.7024 21.2296 62.4341 20.8231 62.8135 20.3533H62.8677V20.9044C62.8677 22.3769 62.0818 23.1629 60.8171 23.1629C59.7872 23.1629 59.1458 22.4221 58.8838 21.7988L57.4113 22.4131C57.8359 23.4339 58.9561 24.6806 60.8171 24.6806C62.7955 24.6806 64.4667 23.5152 64.4667 20.6786V13.7767H62.8677V14.4H62.8768ZM60.9345 19.7119C59.7691 19.7119 58.7935 18.7363 58.7935 17.3993C58.7935 16.0442 59.7691 15.0595 60.9345 15.0595C62.0818 15.0595 62.9852 16.0532 62.9852 17.3993C62.9942 18.7363 62.0908 19.7119 60.9345 19.7119ZM82.9681 9.70242H78.9299V20.9947H80.6193V16.7127H82.9771C84.8471 16.7127 86.681 15.3576 86.681 13.2076C86.672 11.0575 84.8291 9.70242 82.9681 9.70242ZM83.0042 15.1408H80.6102V11.2653H83.0042C84.269 11.2653 84.9826 12.3132 84.9826 13.1985C84.9826 14.0838 84.269 15.1408 83.0042 15.1408ZM93.4293 13.5237C92.2097 13.5237 90.945 14.0658 90.421 15.2492L91.9206 15.8725C92.2368 15.2492 92.8331 15.0414 93.4564 15.0414C94.3236 15.0414 95.218 15.5654 95.227 16.4959V16.6133C94.9199 16.4417 94.2694 16.1797 93.4654 16.1797C91.8484 16.1797 90.2132 17.065 90.2132 18.7182C90.2132 20.2269 91.5322 21.2025 93.0137 21.2025C94.143 21.2025 94.7753 20.6966 95.1638 20.1004H95.218V20.9676H96.8441V16.6404C96.8531 14.6439 95.3535 13.5237 93.4293 13.5237ZM93.2215 19.7119C92.6704 19.7119 91.9026 19.4319 91.9026 18.7543C91.9026 17.8871 92.8602 17.5528 93.6913 17.5528C94.432 17.5528 94.7844 17.7155 95.227 17.9323C95.1644 18.4212 94.9267 18.8709 94.5579 19.1981C94.1892 19.5253 93.7145 19.7079 93.2215 19.7119ZM102.779 13.7677L100.846 18.664H100.792L98.7864 13.7677H96.9706L99.9788 20.6153L98.2624 24.4186H100.024L104.658 13.7677H102.779ZM87.6025 20.9947H89.2918V9.70242H87.6025V20.9947Z" fill="white"/>
<path d="M9.71237 11.437L0.0913086 21.6453V21.6543C0.195413 22.041 0.38747 22.3984 0.652492 22.6987C0.917514 22.9989 1.24833 23.2338 1.61913 23.3851C1.98992 23.5364 2.39066 23.6 2.79007 23.5708C3.18947 23.5417 3.57675 23.4207 3.92166 23.2172L3.94877 23.1991L14.7713 16.9567L9.71237 11.437Z" fill="#EA4335"/>
<path d="M19.4397 9.70235L19.4307 9.69331L14.7601 6.98315L9.49341 11.6717L14.7782 16.9565L19.4307 14.2735C19.8422 14.0507 20.186 13.7211 20.4259 13.3193C20.6658 12.9176 20.7929 12.4585 20.7938 11.9906C20.7947 11.5227 20.6695 11.0631 20.4311 10.6604C20.1928 10.2577 19.8503 9.92673 19.4397 9.70235Z" fill="#FBBC04"/>
<path d="M0.0903389 2.27661C0.0361358 2.49342 0 2.71024 0 2.94512V20.9857C0 21.2206 0.0271019 21.4374 0.0903389 21.6542L10.0366 11.708L0.0903389 2.27661Z" fill="#4285F4"/>
<path d="M9.78464 11.9609L14.7623 6.98327L3.94877 0.713771C3.60309 0.507073 3.21426 0.383186 2.81272 0.351806C2.41118 0.320426 2.00782 0.382406 1.63423 0.532894C1.26064 0.683381 0.926941 0.918291 0.659266 1.21924C0.391591 1.52018 0.197198 1.879 0.0913086 2.2676L9.78464 11.9609Z" fill="#34A853"/>
</svg>
