<svg width="117" height="24" viewBox="0 0 117 24" fill="none" xmlns="http://www.w3.org/2000/svg">
<path d="M14.6289 5.47559C13.9949 5.47559 13.4071 5.78184 13.0637 6.28184H5.98355C5.39575 5.46309 4.22013 5.22559 3.34833 5.78184C2.47653 6.33809 2.23216 7.45059 2.81996 8.27559C3.40777 9.10059 4.58338 9.33184 5.45519 8.77559C5.65333 8.64434 5.84486 8.46934 5.98355 8.27559H13.0637C13.6515 9.09434 14.8271 9.31934 15.6989 8.77559C16.5641 8.23184 16.8018 7.10684 16.2272 6.28184C15.8574 5.78809 15.2696 5.47559 14.6289 5.47559ZM4.40506 7.92559C4.01539 7.91309 3.72479 7.63184 3.72479 7.28184C3.738 6.91309 4.0352 6.63809 4.40506 6.63809C4.77492 6.65059 5.08533 6.93184 5.08533 7.28184C5.08533 7.63184 4.79473 7.92559 4.40506 7.92559ZM14.6289 7.92559C14.2393 7.92559 13.9487 7.63184 13.9487 7.28184C13.9487 6.91309 14.2591 6.63809 14.6289 6.63809C14.9988 6.63809 15.3092 6.93184 15.3092 7.28184C15.3158 7.63184 15.0186 7.92559 14.6289 7.92559Z" fill="url(#paint0_linear_1620_2414)"/>
<path d="M19.3244 19.6563C19.1989 19.6563 19.0734 19.6688 18.9545 19.6876L12.0263 13.1313H14.6285C18.0365 13.0876 20.7642 10.4313 20.7179 7.1938C20.6717 4.0438 17.977 1.48755 14.6285 1.4313H11.0026C10.3488 0.6563 9.14013 0.52505 8.32116 1.13755C7.50219 1.75005 7.3635 2.90005 8.01074 3.67505C8.65799 4.45005 9.87323 4.5813 10.6922 3.9688C10.8903 3.83755 11.0488 3.6438 11.1743 3.4438H14.6285C16.8741 3.47505 18.6573 5.2313 18.6111 7.3563C18.5781 9.42505 16.8146 11.0938 14.6285 11.1251H11.0951C10.5073 10.3063 9.33166 10.0813 8.45986 10.6251C7.58805 11.1688 7.35689 12.2938 7.93149 13.1188C8.28814 13.6188 8.87594 13.9251 9.50998 13.9251C9.61566 13.9251 9.72793 13.9126 9.83361 13.8938L17.4421 21.0938C17.409 21.2126 17.409 21.3313 17.409 21.4438C17.409 22.4251 18.261 23.2501 19.3178 23.2501C20.3745 23.2501 21.2265 22.4438 21.2265 21.4438C21.2331 20.4501 20.3811 19.6563 19.3244 19.6563ZM9.50338 3.2063C9.11371 3.1938 8.82311 2.91255 8.82311 2.56255C8.82311 2.1938 9.13352 1.9188 9.50338 1.9188C9.87323 1.9313 10.1704 2.21255 10.1836 2.56255C10.2167 2.91255 9.90626 3.18755 9.50338 3.2063C9.5364 3.2063 9.51659 3.2063 9.50338 3.2063ZM9.50338 12.7688C9.11371 12.7563 8.82311 12.4751 8.82311 12.1251C8.83632 11.7563 9.13352 11.4813 9.50338 11.4813C9.87323 11.4938 10.1836 11.7751 10.1836 12.1251C10.1969 12.4751 9.90626 12.7688 9.50338 12.7688C9.51218 12.7688 9.51218 12.7688 9.50338 12.7688ZM19.3244 22.0938C18.9347 22.0938 18.6441 21.8001 18.6441 21.4501C18.6441 21.1001 18.9545 20.8063 19.3244 20.8063C19.6942 20.8063 20.0046 21.1001 20.0046 21.4501C20.0113 21.8001 19.7008 22.0938 19.3244 22.0938Z" fill="url(#paint1_linear_1620_2414)"/>
<path d="M31.4961 19.2983L28.246 14.1721H27.0248V19.2983H24.2476V6.1377H29.5464C31.1619 6.1377 32.393 6.51082 33.2397 7.25645C34.0864 8.00207 34.5104 8.98395 34.5104 10.2014C34.5104 11.1958 34.2178 12.0283 33.634 12.6996C33.0495 13.3708 32.2061 13.8183 31.1024 14.0414L34.5692 19.2983H31.4961ZM27.0248 12.3639H29.31C30.899 12.3639 31.6936 11.6996 31.6936 10.3696C31.6936 9.73582 31.4994 9.24207 31.1124 8.8877C30.7247 8.53332 30.1243 8.35645 29.31 8.35645H27.0248V12.3639Z" fill="#1B2048"/>
<path d="M43.0195 9.45609C43.676 9.86609 44.1423 10.4192 44.4184 11.1148V8.97109H47.1758V19.298H44.4184V17.1355C44.1423 17.8317 43.676 18.3873 43.0195 18.8036C42.363 19.2198 41.5751 19.428 40.6557 19.428C39.7364 19.428 38.9088 19.2167 38.1737 18.7942C37.438 18.3717 36.864 17.7598 36.4499 16.958C36.0365 16.1567 35.8291 15.2148 35.8291 14.1342C35.8291 13.0536 36.0358 12.1117 36.4499 11.3098C36.864 10.508 37.438 9.89609 38.1737 9.47359C38.9088 9.05109 39.7364 8.83984 40.6557 8.83984C41.5751 8.83984 42.3623 9.04484 43.0195 9.45484V9.45609ZM39.4345 11.9355C38.9095 12.4698 38.6466 13.203 38.6466 14.1348C38.6466 15.0667 38.9095 15.7973 39.4345 16.3248C39.9596 16.853 40.6557 17.1173 41.5222 17.1173C42.3888 17.1173 43.0552 16.8473 43.6007 16.3067C44.1456 15.7661 44.4184 15.0423 44.4184 14.1348C44.4184 13.2273 44.1456 12.4848 43.6007 11.9448C43.0558 11.4042 42.363 11.1342 41.5222 11.1342C40.6815 11.1342 39.9596 11.4017 39.4345 11.9355Z" fill="#1B2048"/>
<path d="M51.942 17.0992H57.2997V19.2986H48.9086V17.2111L53.9313 11.1529H49.0268V8.97168H57.1029V11.0411L51.942 17.0992Z" fill="#1B2048"/>
<path d="M59.1916 4.97289C59.5067 4.70602 59.9208 4.57227 60.4326 4.57227C60.9445 4.57227 61.3586 4.70602 61.6736 4.97289C61.9887 5.24039 62.1465 5.58539 62.1465 6.00727C62.1465 6.42914 61.9887 6.75602 61.6736 7.02289C61.3586 7.29039 60.9445 7.42352 60.4326 7.42352C59.9208 7.42352 59.5067 7.29039 59.1916 7.02289C58.8766 6.75602 58.7188 6.41727 58.7188 6.00727C58.7188 5.59727 58.8766 5.24039 59.1916 4.97289ZM61.8117 8.97102V19.2979H59.0345V8.97102H61.8117Z" fill="#1B2048"/>
<path d="M73.8465 9.99629C74.5948 10.7794 74.9693 11.8788 74.9693 13.2957V19.2982H72.2119V13.5944C72.2119 12.7744 71.9887 12.1375 71.5422 11.6838C71.0957 11.23 70.4848 11.0032 69.7101 11.0032C68.9354 11.0032 68.2921 11.2457 67.8192 11.73C67.3463 12.2144 67.1099 12.9107 67.1099 13.8175V19.2982H64.3326V8.97066H67.1099V11.04C67.3985 10.3444 67.8747 9.80066 68.5378 9.40879C69.2009 9.01754 69.9657 8.82129 70.8329 8.82129C72.0937 8.82129 73.0982 9.21254 73.8465 9.99566V9.99629Z" fill="#1B2048"/>
<path d="M86.4327 17.5559C86.078 18.1215 85.5529 18.5753 84.8568 18.9165C84.1607 19.2584 83.3133 19.429 82.3154 19.429C81.3174 19.429 80.4503 19.2709 79.6755 18.9534C78.9008 18.6365 78.28 18.1797 77.8137 17.5834C77.3474 16.9872 77.0813 16.2909 77.0159 15.4959H79.9708C80.0361 16.0303 80.2627 16.4746 80.6504 16.8284C81.0374 17.1828 81.5532 17.3596 82.1965 17.3596C82.7744 17.3596 83.2176 17.214 83.526 16.9215C83.8344 16.629 83.989 16.2534 83.989 15.794C83.989 15.384 83.8642 15.0453 83.6145 14.7784C83.3649 14.5115 83.0498 14.2971 82.6687 14.1353C82.2876 13.974 81.7626 13.7878 81.0929 13.5759C80.2264 13.3028 79.517 13.0321 78.9655 12.7653C78.4141 12.4984 77.9445 12.1096 77.5568 11.6003C77.1691 11.0909 76.9756 10.4259 76.9756 9.6059C76.9756 8.47527 77.4055 7.5834 78.2661 6.9309C79.126 6.2784 80.2653 5.95215 81.684 5.95215C83.1027 5.95215 84.3265 6.28777 85.2003 6.95902C86.0734 7.63027 86.5694 8.52465 86.6876 9.6434H83.6938C83.6152 9.17152 83.4045 8.78277 83.0637 8.4784C82.7222 8.17402 82.2559 8.02152 81.6648 8.02152C81.153 8.02152 80.7389 8.14902 80.4238 8.4034C80.1088 8.6584 79.9509 9.02777 79.9509 9.51277C79.9509 9.8984 80.0725 10.2184 80.3155 10.4728C80.5586 10.7278 80.867 10.9359 81.2415 11.0971C81.616 11.259 82.1245 11.439 82.7685 11.6378C83.6614 11.9359 84.3866 12.2159 84.9453 12.4765C85.5034 12.7378 85.9796 13.129 86.3732 13.6509C86.7669 14.1728 86.9643 14.8565 86.9643 15.7015C86.9643 16.3728 86.7873 16.9909 86.4327 17.5565V17.5559Z" fill="#1B2048"/>
<path d="M96.924 9.47457C97.7707 9.89707 98.4371 10.5089 98.9232 11.3108C99.4086 12.1121 99.6517 13.0539 99.6517 14.1352C99.6517 15.2164 99.4086 16.1546 98.9232 16.9502C98.4371 17.7458 97.7707 18.3577 96.924 18.7864C96.0766 19.2152 95.1216 19.4296 94.0576 19.4296C92.9936 19.4296 92.0386 19.2152 91.1912 18.7864C90.3439 18.3577 89.6775 17.7458 89.192 16.9502C88.7059 16.1552 88.4629 15.2164 88.4629 14.1352C88.4629 13.0539 88.7059 12.1127 89.192 11.3108C89.6775 10.5096 90.3445 9.89707 91.1912 9.47457C92.0379 9.05207 92.9936 8.84082 94.0576 8.84082C95.1216 8.84082 96.0766 9.05207 96.924 9.47457ZM92.0881 11.8883C91.5492 12.4039 91.2804 13.1527 91.2804 14.1346C91.2804 15.1164 91.5492 15.8652 92.0881 16.3808C92.6264 16.8964 93.2829 17.1546 94.0583 17.1546C94.8337 17.1546 95.4895 16.8971 96.0278 16.3808C96.566 15.8652 96.8355 15.1164 96.8355 14.1346C96.8355 13.1527 96.566 12.4039 96.0278 11.8883C95.4888 11.3727 94.833 11.1146 94.0583 11.1146C93.2836 11.1146 92.6271 11.3727 92.0881 11.8883Z" fill="#1B2048"/>
<path d="M105.305 7.51777C104.977 7.79152 104.813 8.26965 104.813 8.9534V8.97215H107.018V11.1903H104.813V19.299H102.035V11.1903H100.636V8.97215H102.035V8.72965C102.035 7.49965 102.407 6.55215 103.148 5.88715C103.89 5.22277 104.99 4.88965 106.448 4.88965C106.697 4.88965 106.888 4.8959 107.019 4.9084V7.18277C106.205 7.1334 105.633 7.24527 105.305 7.5184V7.51777Z" fill="#1B2048"/>
<path d="M114.502 17.043V19.2986H113.045C111.824 19.2986 110.888 19.0192 110.238 18.4598C109.588 17.9005 109.263 16.9686 109.263 15.6636V11.1898H107.746V8.97172H109.263V6.41797H112.04V8.97172H114.483V11.1898H112.04V15.7011C112.04 16.1986 112.145 16.5461 112.355 16.7448C112.565 16.9436 112.92 17.043 113.419 17.043H114.502Z" fill="#1B2048"/>
<defs>
<linearGradient id="paint0_linear_1620_2414" x1="2.49898" y1="7.27746" x2="16.541" y2="7.27746" gradientUnits="userSpaceOnUse">
<stop stop-color="#29AAE1"/>
<stop offset="1" stop-color="#5000FF"/>
</linearGradient>
<linearGradient id="paint1_linear_1620_2414" x1="9.17051" y1="7.77005" x2="27.2694" y2="18.8591" gradientUnits="userSpaceOnUse">
<stop stop-color="#29AAE1"/>
<stop offset="1" stop-color="#5000FF"/>
</linearGradient>
</defs>
</svg>
