<svg width="188" height="40" viewBox="0 0 188 40" fill="none" xmlns="http://www.w3.org/2000/svg">
<g clip-path="url(#clip0_1578_18410)">
<path d="M69.8314 24.6464V14.7486H67.5146V11.0485H69.8314V5.88623H74.0116V11.0485H78.9158V14.7486H74.0116V23.969C74.0116 25.643 74.8413 26.3189 76.2573 26.3189C77.1587 26.3226 78.0478 26.1026 78.8492 25.6774V29.2029C77.8124 29.8072 76.6772 30.1637 75.0845 30.1637C72.0076 30.1637 69.8314 28.7747 69.8314 24.6464Z" fill="#3548C7"/>
<path d="M80.4453 20.5157V20.4471C80.4453 15.076 84.1419 10.6567 89.3589 10.6567C95.1637 10.6567 98.1001 15.3565 98.1001 20.7679C98.1001 21.1588 98.0654 21.5512 98.0306 21.9779H84.6255C85.0758 25.0394 87.1826 26.7522 89.8772 26.7522C91.9159 26.7522 93.3668 25.9689 94.8176 24.5143L97.2704 26.7522C95.543 28.8887 93.1597 30.2763 89.8077 30.2763C84.5227 30.2688 80.4453 26.3181 80.4453 20.5157ZM93.9546 19.1267C93.6839 16.3501 92.0911 14.1808 89.3241 14.1808C86.7685 14.1808 84.9716 16.2099 84.5922 19.1282L93.9546 19.1267Z" fill="#3548C7"/>
<path d="M100.489 3.85522H104.67V29.847H100.489V3.85522Z" fill="#3548C7"/>
<path d="M107.047 20.5157V20.4471C107.047 15.076 110.743 10.6567 115.96 10.6567C121.764 10.6567 124.7 15.3565 124.7 20.7679C124.7 21.1588 124.665 21.5512 124.632 21.9779H111.227C111.676 25.0394 113.784 26.7522 116.479 26.7522C118.516 26.7522 119.968 25.9689 121.419 24.5143L123.872 26.7522C122.145 28.8887 119.76 30.2763 116.409 30.2763C111.123 30.2688 107.047 26.3181 107.047 20.5157ZM120.555 19.1267C120.278 16.3501 118.69 14.1793 115.921 14.1793C113.364 14.1793 111.567 16.2084 111.188 19.1267H120.555Z" fill="#3548C7"/>
<path d="M125.357 27.3873L127.222 24.4675C129.226 25.9983 131.334 26.7816 133.199 26.7816C134.996 26.7816 136.033 25.9983 136.033 24.7525V24.6808C136.033 23.2217 134.099 22.7234 131.956 22.0475C129.261 21.2642 126.255 20.1243 126.255 16.5272V16.457C126.255 12.8972 129.123 10.7249 132.751 10.7249C135.031 10.7249 137.519 11.544 139.453 12.8614L137.795 15.9229C136.033 14.8188 134.167 14.143 132.648 14.143C131.023 14.143 130.091 14.9263 130.091 15.9945V16.0647C130.091 17.4537 132.06 18.0236 134.201 18.7353C136.863 19.5887 139.867 20.8345 139.867 24.2168V24.2884C139.867 28.2392 136.896 30.1982 133.097 30.1982C130.505 30.1997 127.638 29.2374 125.357 27.3873Z" fill="#3548C7"/>
<path d="M142.32 11.0483H146.501V29.8473H142.32V11.0483ZM146.664 6.19641C146.664 6.66452 146.529 7.12204 146.276 7.51116C146.024 7.90028 145.665 8.20353 145.245 8.3826C144.826 8.56167 144.364 8.60852 143.918 8.51723C143.473 8.42594 143.063 8.20062 142.742 7.86972C142.421 7.53882 142.202 7.11719 142.113 6.65813C142.024 6.19906 142.069 5.72315 142.243 5.29054C142.416 4.85792 142.71 4.488 143.088 4.22754C143.465 3.96707 143.909 3.82774 144.363 3.82715C144.973 3.82754 145.557 4.07713 145.988 4.52109C146.419 4.96504 146.661 5.56707 146.661 6.19492L146.664 6.19641Z" fill="#3548C7"/>
<path d="M149.851 33.3662L151.406 30.1271C153.375 31.3729 155.414 32.1204 157.902 32.1204C161.632 32.1204 163.67 30.1271 163.67 26.3539V24.8948C162.15 26.9239 160.25 28.3472 157.244 28.3472C152.961 28.3472 148.953 25.0649 148.953 19.555V19.4833C148.953 13.9302 152.995 10.6538 157.244 10.6538C160.32 10.6538 162.219 12.1145 163.636 13.8586V11.0477H167.82V25.9973C167.82 29.1663 167.027 31.5177 165.503 33.0813C163.844 34.7911 161.288 35.6087 158.006 35.6087C154.999 35.6087 152.201 34.8254 149.851 33.3662ZM163.705 19.5192V19.4475C163.705 16.386 161.252 14.2853 158.348 14.2853C155.443 14.2853 153.165 16.3502 153.165 19.4475V19.5192C153.165 22.5807 155.482 24.6799 158.348 24.6799C161.252 24.6799 163.705 22.5807 163.705 19.5192Z" fill="#3548C7"/>
<path d="M170.993 11.0483H175.173V13.9323C176.348 12.1881 178.04 10.6499 180.874 10.6499C184.985 10.6499 187.368 13.4981 187.368 17.8413V29.8472H183.188V19.1631C183.188 16.2448 181.772 14.5708 179.278 14.5708C176.86 14.5708 175.168 16.315 175.168 19.2348V29.8472H170.987L170.993 11.0483Z" fill="#3548C7"/>
<path d="M57.8391 16.0031C57.27 13.1177 56.0871 10.3982 54.3756 8.04042L54.3466 8.00163C53.2427 6.48785 51.9373 5.1418 50.469 4.00312C47.1104 1.40291 43.0213 0.000363248 38.8203 0.00759619C37.5181 0.00669577 36.219 0.140651 34.9427 0.407446C34.4157 0.517853 33.8963 0.649643 33.3847 0.80282C32.5924 1.04029 31.8157 1.32984 31.0593 1.66966C29.6823 2.29121 28.3797 3.07473 27.1774 4.00461C25.7094 5.14243 24.404 6.48746 23.2998 8.00014C23.1695 8.18116 23.0411 8.36418 22.9146 8.54919C22.1779 9.63298 21.5473 10.7895 21.0323 12.0016L20.9657 12.1598C20.4547 13.3968 20.0666 14.684 19.8074 16.0016C19.8068 16.0081 19.8068 16.0146 19.8074 16.021C19.6814 16.0091 19.5525 16.0016 19.4222 16.0016C18.3923 16.0016 17.4045 16.4232 16.6762 17.1736C15.948 17.9241 15.5388 18.9419 15.5388 20.0031C15.5388 21.0644 15.948 22.0822 16.6762 22.8326C17.4045 23.583 18.3923 24.0046 19.4222 24.0046C19.5525 24.0046 19.6814 23.9972 19.8088 23.9852C20.727 23.8902 21.5824 23.4615 22.2217 22.7759C22.8611 22.0902 23.2428 21.1925 23.2984 20.2433C23.2984 20.1643 23.2984 20.0852 23.2984 20.0046C23.2984 19.9241 23.2984 19.845 23.2984 19.7659C23.2984 19.6689 23.2984 19.5704 23.3056 19.4675C23.4075 16.186 24.4901 13.0169 26.4056 10.3933C26.6547 10.0531 26.9158 9.72338 27.189 9.40409C27.6163 8.90682 28.0728 8.43696 28.5558 7.99715C28.7412 7.82856 28.9323 7.66295 29.1263 7.50331C29.7399 6.99667 30.39 6.53881 31.0709 6.13367C31.5719 5.83416 32.0892 5.56466 32.6202 5.32651C33.9807 4.71439 35.4199 4.30787 36.8931 4.11949C37.5349 4.03798 38.1809 3.99712 38.8276 3.99715H38.8362C42.9552 3.99715 46.9055 5.68318 49.8181 8.68432C52.7306 11.6855 54.3669 15.7559 54.3669 20.0001C54.3669 24.2444 52.7306 28.3148 49.8181 31.316C46.9055 34.3171 42.9552 36.0031 38.8362 36.0031H36.7715C36.1953 36.6714 35.5833 37.306 34.9384 37.9039C34.4403 38.3634 33.9239 38.8001 33.3891 39.2139C33.8968 39.367 34.4133 39.4983 34.9384 39.6077C36.2147 39.8745 37.5137 40.0085 38.816 40.0076C43.012 40.0142 47.0959 38.6127 50.4502 36.0151L50.4647 36.0046C51.9306 34.8685 53.2339 33.5255 54.3365 32.0151L54.3712 31.9673C56.879 28.5132 58.2315 24.3139 58.2257 20.0001C58.2262 18.6579 58.0967 17.3189 57.8391 16.0031Z" fill="#3548C7"/>
<path d="M38.8194 16.0024H38.8079C38.6826 16.0022 38.5574 16.0086 38.4328 16.0218C37.5167 16.1132 36.6619 16.5371 36.0211 17.2179C35.3803 17.8987 34.9952 18.792 34.9346 19.7384V20.2695C34.9339 20.2611 34.9339 20.2526 34.9346 20.2441C34.8893 23.6269 33.8011 26.9073 31.8273 29.6108C31.5812 29.948 31.3234 30.2732 31.0527 30.5895C30.6233 31.0906 30.1644 31.564 29.6786 32.0069C29.4918 32.1755 29.3021 32.3411 29.1081 32.5008C28.0469 33.3779 26.8786 34.1078 25.633 34.6716C24.2708 35.2854 22.8297 35.6934 21.3543 35.8831C19.4066 36.133 17.4307 36.0039 15.5292 35.5026C13.1612 34.8727 10.9713 33.6749 9.13802 32.0069C8.65217 31.564 8.19327 31.0906 7.76392 30.5895C5.25802 27.6678 3.87492 23.9031 3.87492 20.0039C3.87492 16.1048 5.25802 12.34 7.76392 9.41832C8.19327 8.91724 8.65217 8.44388 9.13802 8.00094C11.9715 5.4202 15.6237 3.99736 19.4054 4.00094H21.4557C22.0322 3.33675 22.6442 2.70616 23.2888 2.1121C23.7888 1.64958 24.3081 1.21044 24.8468 0.794679C24.3361 0.641502 23.8168 0.509712 23.2888 0.399305C22.0104 0.134637 20.7094 0.00317742 19.4054 0.00691337C15.2049 0.000635646 11.117 1.40543 7.76102 4.00841C6.29264 5.14746 4.98686 6.49345 3.88198 8.00691V8.01437C1.36167 11.4702 0.000209747 15.6767 0.00293377 19.9995C0.00333336 21.3433 0.133812 22.6838 0.392431 24.0009C0.963948 26.8964 2.15454 29.6242 3.87764 31.986L3.88922 32.0024C4.99177 33.5129 6.29515 34.8559 7.76102 35.992L7.7755 36.0024C11.1288 38.5992 15.2107 40.002 19.4054 39.9995C20.7081 40.0004 22.0077 39.8665 23.2844 39.5996C23.8086 39.4902 24.325 39.3589 24.8337 39.2057C25.6291 38.9684 26.4088 38.6784 27.1678 38.3374C28.5422 37.716 29.8427 36.934 31.044 36.0069C31.5803 35.5926 32.0951 35.1494 32.586 34.6791C33.4411 33.8634 34.2237 32.9706 34.9245 32.0114C35.0548 31.8324 35.1827 31.6508 35.3082 31.4668C36.045 30.383 36.6755 29.2265 37.1905 28.0144C37.2137 27.9621 37.2354 27.9084 37.2571 27.8562C37.7681 26.6192 38.1562 25.332 38.4155 24.0144C38.4147 24.0079 38.4147 24.0014 38.4155 23.995C38.54 24.0069 38.666 24.0144 38.7919 24.0144H38.8006C39.8306 24.0144 40.8183 23.5928 41.5466 22.8424C42.2749 22.0919 42.684 21.0741 42.684 20.0129C42.684 18.9516 42.2749 17.9338 41.5466 17.1834C40.8183 16.433 39.8306 16.0114 38.8006 16.0114L38.8194 16.0024Z" fill="#3548C7"/>
<path d="M50.46 20C50.464 23.0437 49.3439 25.975 47.3271 28.1989C45.3103 30.4228 42.5478 31.7727 39.6004 31.9746C40.3095 30.7093 40.9037 29.3793 41.3756 28.0015C41.435 27.8329 41.49 27.6628 41.545 27.4912C41.9458 27.3363 42.3332 27.1471 42.7034 26.9257C43.8822 26.223 44.8609 25.2131 45.5413 23.9975C46.2216 22.7819 46.5798 21.4033 46.5798 20C46.5798 18.5967 46.2216 17.2181 45.5413 16.0025C44.8609 14.7868 43.8822 13.777 42.7034 13.0742C41.5238 12.3687 40.1839 11.9976 38.82 11.9985H38.8084C36.9616 11.9963 35.1749 12.6747 33.771 13.9112C33.0975 14.5039 32.5266 15.2102 32.0827 16C31.461 17.1065 31.1073 18.3512 31.0518 19.6285C31.0518 19.6568 31.0518 19.6852 31.0518 19.7135C31.0518 19.809 31.0518 19.906 31.0518 20.0015C31.0518 20.097 31.0518 20.1924 31.0518 20.2894C30.9903 23.1428 29.9411 25.8795 28.0936 28.0059C27.8062 28.3384 27.5007 28.6537 27.1785 28.9504C26.9266 29.1811 26.6655 29.4014 26.3952 29.6113C25.4522 30.341 24.4068 30.9185 23.2951 31.3241C23.1677 31.3704 23.0403 31.4151 22.91 31.4569C21.7761 31.8237 20.5944 32.0094 19.406 32.0074C19.1439 32.0074 18.8833 31.9985 18.6255 31.9806C16.0338 31.8054 13.5741 30.7388 11.6406 28.9519C11.3185 28.6552 11.0129 28.3399 10.7255 28.0074C8.81141 25.809 7.75275 22.9595 7.75275 20.0059C7.75275 17.0524 8.81141 14.2029 10.7255 12.0045C11.0129 11.672 11.3185 11.3567 11.6406 11.06C13.5739 9.27249 16.0336 8.20543 18.6255 8.02981C17.9167 9.29578 17.3225 10.6263 16.8503 12.0045C16.7924 12.1716 16.736 12.3416 16.6824 12.5102C16.2816 12.665 15.8941 12.8541 15.524 13.0757C14.3432 13.7779 13.3626 14.788 12.6808 16.0045C11.999 17.2211 11.6401 18.6011 11.6401 20.0059C11.6401 21.4108 11.999 22.7908 12.6808 24.0073C13.3626 25.2239 14.3432 26.234 15.524 26.9362C15.8941 27.1578 16.2816 27.3469 16.6824 27.5017C17.8349 27.9469 19.0737 28.1035 20.2964 27.9583C21.5192 27.8132 22.691 27.3706 23.7151 26.667C24.7392 25.9634 25.5863 25.019 26.1865 23.9117C26.7866 22.8043 27.1227 21.5659 27.1669 20.2984C27.1669 20.3566 27.1669 20.4147 27.1669 20.4744V19.5464C27.2446 17.3395 27.9163 15.1983 29.1072 13.3622C29.4162 12.8847 29.7579 12.4305 30.1294 12.003C30.4194 11.6677 30.7278 11.3498 31.0532 11.0511C31.3023 10.8213 31.5605 10.6035 31.8279 10.3976C32.7734 9.666 33.8217 9.08741 34.9366 8.68181C35.064 8.63556 35.1944 8.5908 35.3247 8.54903C36.4522 8.1855 37.6269 8.00086 38.8084 8.00147H38.8171C39.0806 8.00147 39.3413 8.01191 39.599 8.02833C42.546 8.23203 45.3077 9.58267 47.3242 11.8065C49.3407 14.0303 50.4612 16.961 50.4586 20.0045L50.46 20Z" fill="#3548C7"/>
</g>
<defs>
<clipPath id="clip0_1578_18410">
<rect width="187.368" height="40" fill="white"/>
</clipPath>
</defs>
</svg>
