<svg width="158" height="48" viewBox="0 0 158 48" fill="none" xmlns="http://www.w3.org/2000/svg">
<g clip-path="url(#clip0_1578_18402)">
<path d="M110.978 9.33382H102.639C102.449 9.33382 102.26 9.52433 102.26 9.71481V14.5722C102.26 14.7627 102.449 14.9532 102.639 14.9532H110.978C111.167 14.9532 111.357 14.7627 111.357 14.5722V9.71481C111.452 9.52433 111.262 9.33382 110.978 9.33382ZM110.883 16.5723H94.7734C94.5839 16.5723 94.2996 16.7628 94.2048 16.9533L92.1201 24.8585L92.0253 25.2394L89.5615 16.7628C89.4667 16.5723 89.2772 16.3818 88.9929 16.3818H82.7386C82.5491 16.3818 82.2648 16.5723 82.17 16.7628L79.8009 24.668L79.7062 25.0489L79.6114 24.8585L78.6638 20.9535L77.6214 17.0485C77.5266 16.858 77.3371 16.6676 77.0528 16.6676H64.4494V9.81003C64.4494 9.61955 64.1651 9.33382 63.8808 9.42907L55.9208 11.9054C55.6365 12.0006 55.5417 12.0959 55.5417 12.2864V16.5723H53.457C53.2674 16.5723 53.0779 16.7628 53.0779 16.9533V23.0489C53.0779 23.2393 53.2674 23.4298 53.457 23.4298H55.5417V30.8588C55.5417 36.0972 58.3846 38.5735 63.5966 38.5735C65.7761 38.5735 67.8609 38.0973 69.2823 37.3353V31.0493C69.2823 30.7635 68.998 30.6683 68.8085 30.6683C67.9556 31.0493 67.2923 31.1445 66.5342 31.1445C65.1128 31.1445 64.3547 30.573 64.3547 28.9539V23.5251H68.9033C69.0928 23.5251 69.2823 23.3346 69.2823 23.1441V18.001L75.2523 37.9068C75.3471 38.0973 75.5366 38.2878 75.8209 38.2878H82.4543C82.6438 38.2878 82.9281 38.0973 83.0229 37.9068L85.8658 29.0492L87.2872 33.6208L88.6139 37.8115C88.7086 38.002 88.8982 38.1925 89.1824 38.1925H95.8158C96.0053 38.1925 96.2896 38.002 96.3844 37.8115L102.449 17.8105V37.8115C102.449 38.002 102.639 38.1925 102.828 38.1925H110.883C111.073 38.1925 111.262 38.002 111.262 37.8115V17.0485C111.262 16.7628 111.073 16.5723 110.883 16.5723ZM121.496 9.33382H113.442C113.252 9.33382 113.063 9.52433 113.063 9.71481V37.8115C113.063 38.002 113.252 38.1925 113.442 38.1925H121.496C121.686 38.1925 121.876 38.002 121.876 37.8115V9.71481C121.876 9.52433 121.686 9.33382 121.496 9.33382ZM132.205 9.33382H123.866C123.676 9.33382 123.486 9.52433 123.486 9.71481V14.5722C123.486 14.7627 123.676 14.9532 123.866 14.9532H132.205C132.394 14.9532 132.584 14.7627 132.584 14.5722V9.71481C132.678 9.52433 132.489 9.33382 132.205 9.33382ZM132.11 16.5723H124.055C123.866 16.5723 123.676 16.7628 123.676 16.9533V37.8115C123.676 38.002 123.866 38.1925 124.055 38.1925H132.11C132.299 38.1925 132.489 38.002 132.489 37.8115V17.0485C132.489 16.7628 132.299 16.5723 132.11 16.5723ZM145.471 16.0961C138.364 16.0961 133.342 21.3345 133.342 27.43V27.5253C133.342 33.6208 138.364 38.764 145.377 38.764C152.484 38.764 157.506 33.5256 157.506 27.43V27.3348C157.506 21.2392 152.484 16.0961 145.471 16.0961ZM148.883 27.43C148.883 29.5254 147.461 31.1445 145.471 31.1445C143.481 31.1445 141.965 29.4301 141.965 27.3348V27.2395C141.965 25.1442 143.387 23.5251 145.377 23.5251C147.367 23.5251 148.883 25.2394 148.883 27.43ZM23.7015 0C10.6243 0 0.0108871 10.6672 0.0108871 23.8108C0.0108871 36.9543 10.6243 47.6216 23.7015 47.6216C36.7788 47.6216 47.3922 36.9543 47.3922 23.8108C47.3922 10.6672 36.7788 0 23.7015 0ZM23.7015 41.3355C14.0357 41.3355 6.26522 33.5256 6.26522 23.8108C6.26522 14.096 14.0357 6.28605 23.7015 6.28605C33.3673 6.28605 41.1378 14.096 41.1378 23.8108C41.1378 33.5256 33.3673 41.3355 23.7015 41.3355Z" fill="#F12E45"/>
<path d="M29.5753 22.8579C32.2967 22.8579 34.5029 20.6405 34.5029 17.9053C34.5029 15.17 32.2967 12.9526 29.5753 12.9526C26.8538 12.9526 24.6476 15.17 24.6476 17.9053C24.6476 20.6405 26.8538 22.8579 29.5753 22.8579Z" fill="#F12E45"/>
<path d="M29.5753 34.6685C32.2967 34.6685 34.5029 32.4511 34.5029 29.7158C34.5029 26.9806 32.2967 24.7632 29.5753 24.7632C26.8538 24.7632 24.6476 26.9806 24.6476 29.7158C24.6476 32.4511 26.8538 34.6685 29.5753 34.6685Z" fill="#F12E45"/>
<path d="M17.8252 34.6685C20.5467 34.6685 22.7529 32.4511 22.7529 29.7158C22.7529 26.9806 20.5467 24.7632 17.8252 24.7632C15.1038 24.7632 12.8976 26.9806 12.8976 29.7158C12.8976 32.4511 15.1038 34.6685 17.8252 34.6685Z" fill="#F12E45"/>
<path d="M17.8252 22.8579C20.5467 22.8579 22.7529 20.6405 22.7529 17.9053C22.7529 15.17 20.5467 12.9526 17.8252 12.9526C15.1038 12.9526 12.8976 15.17 12.8976 17.9053C12.8976 20.6405 15.1038 22.8579 17.8252 22.8579Z" fill="#F12E45"/>
</g>
<defs>
<clipPath id="clip0_1578_18402">
<rect width="157.518" height="47.6216" fill="white"/>
</clipPath>
</defs>
</svg>
