<svg width="20" height="20" viewBox="0 0 20 20" fill="none" xmlns="http://www.w3.org/2000/svg">
<path d="M0.39999 19.6004L1.74959 14.67C0.91679 13.2268 0.47919 11.5908 0.47999 9.91319C0.48239 4.66839 4.75039 0.400391 9.99439 0.400391C12.5392 0.401191 14.928 1.39239 16.7248 3.19079C18.5208 4.98919 19.5096 7.37959 19.5088 9.92199C19.5064 15.1676 15.2384 19.4356 9.99439 19.4356C8.40239 19.4348 6.83359 19.0356 5.44399 18.2772L0.39999 19.6004ZM5.67759 16.5548C7.01839 17.3508 8.29839 17.8276 9.99119 17.8284C14.3496 17.8284 17.9 14.2812 17.9024 9.92039C17.904 5.55079 14.3704 2.00839 9.99759 2.00679C5.63599 2.00679 2.08799 5.55399 2.08639 9.91399C2.08559 11.694 2.60719 13.0268 3.48319 14.4212L2.68399 17.3396L5.67759 16.5548ZM14.7872 12.1836C14.728 12.0844 14.5696 12.0252 14.3312 11.906C14.0936 11.7868 12.9248 11.2116 12.7064 11.1324C12.4888 11.0532 12.3304 11.0132 12.1712 11.2516C12.0128 11.4892 11.5568 12.0252 11.4184 12.1836C11.28 12.342 11.1408 12.362 10.9032 12.2428C10.6656 12.1236 9.89919 11.8732 8.99119 11.0628C8.28479 10.4324 7.80719 9.65399 7.66879 9.41559C7.53039 9.17799 7.65439 9.04919 7.77279 8.93079C7.87999 8.82439 8.01039 8.65319 8.12959 8.51399C8.25039 8.37639 8.28959 8.27719 8.36959 8.11799C8.44879 7.95959 8.40959 7.82039 8.34959 7.70119C8.28959 7.58279 7.81439 6.41239 7.61679 5.93639C7.42319 5.47319 7.22719 5.53559 7.08159 5.52839L6.62559 5.52039C6.46719 5.52039 6.20959 5.57959 5.99199 5.81799C5.77439 6.05639 5.15999 6.63079 5.15999 7.80119C5.15999 8.97159 6.01199 10.102 6.13039 10.2604C6.24959 10.4188 7.80639 12.8204 10.1912 13.85C10.7584 14.0948 11.2016 14.2412 11.5464 14.3508C12.116 14.5316 12.6344 14.506 13.044 14.4452C13.5008 14.3772 14.4504 13.87 14.6488 13.3148C14.8472 12.7588 14.8472 12.2828 14.7872 12.1836Z" fill="#25D366"/>
</svg>
