<svg width="20" height="20" viewBox="0 0 20 20" fill="none" xmlns="http://www.w3.org/2000/svg">
<g clip-path="url(#clip0_1251_4380)">
<path d="M9.54334 15.3128C6.36747 15.3128 4.91646 13.695 4.91646 12.5083C4.91603 12.2253 5.03221 11.9545 5.23766 11.7598C5.44312 11.565 5.71971 11.4635 6.00236 11.4791C7.3621 11.4791 7.00642 13.5187 9.54334 13.5187C10.8401 13.5187 11.6018 12.7381 11.6018 12.0047C11.6018 11.5641 11.35 11.0605 10.4939 10.859L7.66111 10.1445C5.38544 9.56539 4.98885 8.30008 4.98885 7.12605C4.98885 4.68985 7.21731 3.80854 9.33875 3.80854C11.2934 3.80854 13.6163 4.88814 13.6163 6.3486C13.6163 6.97811 13.0906 7.3149 12.48 7.3149C11.3186 7.3149 11.5137 5.68447 9.17823 5.68447C8.01679 5.68447 7.40616 6.229 7.40616 6.9907C7.40616 7.75241 8.30951 8.0105 9.10269 8.18362L11.1927 8.65575C13.4841 9.17195 14.0947 10.5159 14.0947 11.8033C14.0947 13.7831 12.5618 15.3128 9.5402 15.3128M18.3124 11.1234C18.4031 10.6038 18.4484 10.0772 18.4477 9.54965C18.4588 6.89978 17.2945 4.38135 15.2686 2.67324C13.2427 0.965127 10.5637 0.243147 7.95384 0.701915C7.15165 0.240055 6.24184 -0.00205559 5.3162 1.3147e-05C3.41621 0.0116197 1.66488 1.02991 0.714899 2.67539C-0.235087 4.32086 -0.241232 6.3467 0.698753 7.99791C0.174248 10.8799 1.09302 13.8362 3.15872 15.9132C5.22442 17.9902 8.17564 18.9251 11.0605 18.4163C11.8617 18.8777 12.7704 19.1198 13.6949 19.1182C15.594 19.1059 17.3442 18.0881 18.294 16.4436C19.2438 14.7991 19.2508 12.7744 18.3124 11.1234Z" fill="#64D4FF"/>
</g>
<defs>
<clipPath id="clip0_1251_4380">
<rect width="19.2" height="19.2" fill="white"/>
</clipPath>
</defs>
</svg>
