<svg width="48" height="48" viewBox="0 0 48 48" fill="none" xmlns="http://www.w3.org/2000/svg">
<g clip-path="url(#clip0_1251_4137)">
<path d="M13.2253 13.0682L10.1229 9.96582L10.136 32.3908L10.1731 33.4389C10.1885 33.9321 10.28 34.4886 10.4326 35.0653L35.0146 43.7334L41.1594 41.0109L41.1616 41.0034L13.2253 13.0682Z" fill="#00D2B8"/>
<path d="M10.4324 35.0655L10.4339 35.067C10.4324 35.0569 10.4272 35.0457 10.4272 35.0352C10.4272 35.0457 10.4287 35.0554 10.4324 35.0655ZM41.1592 41.0112L35.0144 43.7337L10.4339 35.067C10.9034 36.8685 11.9429 38.8935 13.0616 40.0009L21.0836 47.9772L38.9204 48.0004L41.1614 41.0037L41.1592 41.0112Z" fill="#55DDCA"/>
<path d="M0.568783 24.3969C-0.225467 25.2448 0.169033 26.9938 1.44778 28.2823L6.96366 33.8439L10.4324 35.0653C10.2798 34.4886 10.1883 33.9321 10.1729 33.4389L10.1358 32.3908L10.1227 9.96582L0.568783 24.3969Z" fill="#0081C6"/>
<path d="M35.2164 10.2534C34.6396 10.1061 34.0865 10.0149 33.5851 9.99919L32.4774 9.96094L10.1229 9.96394L41.1646 41.0031L41.1673 41.0031L43.8935 34.8523L35.2164 10.2534Z" fill="#0079B3"/>
<path d="M35.188 10.248C35.2 10.2507 35.2094 10.254 35.2173 10.2552L35.2162 10.254C35.2094 10.2507 35.2 10.2507 35.188 10.248ZM40.147 12.8877C39.0205 11.7518 37.0222 10.7194 35.2173 10.2552L43.8933 34.8529L41.167 41.0037L41.1644 41.0037L47.8267 38.8759L47.8409 20.6104L40.147 12.8877Z" fill="#00A4E4"/>
<path d="M34.001 6.80571L28.4409 1.28645C27.155 0.0125791 25.4053 -0.383796 24.5596 0.408204L10.1229 9.96396L32.4774 9.96096L33.5851 9.99921C34.0865 10.015 34.6396 10.1061 35.2164 10.2535L34.001 6.80571Z" fill="#00D2B8"/>
</g>
<defs>
<clipPath id="clip0_1251_4137">
<rect width="48" height="48" fill="white"/>
</clipPath>
</defs>
</svg>
