<svg width="44" height="44" viewBox="0 0 44 44" fill="none" xmlns="http://www.w3.org/2000/svg">
<g clip-path="url(#clip0_1251_4119)">
<path d="M3.68429 39.3942L0 0.0766615L44 0.155671L40.1042 39.3942L22.1661 43.9297L3.68429 39.3942Z" fill="#C8A709"/>
<path d="M22.166 40.1263L22.166 3.81494L40.2855 3.86762L37.0544 36.3552L22.166 40.1263Z" fill="#E1C942"/>
<path d="M20.2259 8.13721L15.4356 8.13721L15.4356 32.3051L11.7097 31.6854L11.7097 28.4321L7.27426 27.8124L7.27426 35.0937L20.2259 38.0373L20.2259 8.13721ZM23.8193 8.13721L37.0807 8.13721L36.1936 12.7694L28.8818 12.7694L28.8818 20.3708L36.1936 20.3708L35.3065 35.7134L23.8193 38.0373L23.8193 33.2347L31.5807 30.9108L32.0289 24.559L23.8193 25.597L23.8193 8.13721Z" fill="white"/>
</g>
<defs>
<clipPath id="clip0_1251_4119">
<rect width="44" height="44" fill="white"/>
</clipPath>
</defs>
</svg>
