<svg width="44" height="60" viewBox="0 0 44 60" fill="none" xmlns="http://www.w3.org/2000/svg">
<path d="M0 48.4273L0.363293 47.9185L17.5446 15.3176L17.581 14.9723L10.0073 0.745723C9.37232 -0.445831 7.58584 -0.144763 7.37774 1.18926L0 48.4273Z" fill="#FFC24A"/>
<path d="M0.214844 48.0392L0.489545 47.5035L17.4891 15.2441L9.93604 0.959654C9.30811 -0.219569 7.71381 0.0809307 7.50608 1.4013L0.214844 48.0392Z" fill="#FFA712"/>
<path d="M0.214844 48.0392L0.489545 47.5035L17.4891 15.2441L9.93604 0.959654C9.30811 -0.219569 7.71381 0.0809307 7.50608 1.4013L0.214844 48.0392Z" fill="#F6F7F9"/>
<path d="M23.1017 25.7355L28.7412 19.9602L23.1002 9.19147C22.5646 8.17198 21.0696 8.16913 20.5397 9.19147L17.5258 14.9411V15.4306L23.1017 25.7355Z" fill="#F4BD62"/>
<path d="M23.0022 25.4927L28.4846 19.8779L23.0022 9.43812C22.4816 8.44576 21.2168 8.34332 20.7018 9.33549L17.6722 15.1707L17.5815 15.4693L23.0022 25.4927Z" fill="#FFA50E"/>
<path d="M23.0022 25.4927L28.4846 19.8779L23.0022 9.43812C22.4816 8.44576 21.2168 8.34332 20.7018 9.33549L17.6722 15.1707L17.5815 15.4693L23.0022 25.4927Z" fill="#F6F7F9"/>
<path d="M17.5423 14.9141L0 48.4358L0.164673 48.2702L0.762822 48.0272L22.7482 26.1235L23.0265 25.3654L17.5423 14.9141Z" fill="#F6820C"/>
<path d="M23.8064 59.4771L43.7037 48.3803L38.0233 13.3855C37.8454 12.2907 36.5024 11.8576 35.7188 12.6428L0 48.431L19.7831 59.4765C20.3979 59.8197 21.0906 59.9999 21.7948 60.0001C22.499 60.0003 23.1914 59.8201 23.8064 59.4771Z" fill="#FDE068"/>
<path d="M43.5252 48.2831L37.8864 13.5552C37.7101 12.4685 36.5928 12.0191 35.8151 12.7982L0.222168 48.3584L19.7879 59.293C21.0286 59.9858 22.5396 59.9862 23.7808 59.2941L43.5252 48.2831Z" fill="#FCCA3F"/>
<path d="M23.8064 59.148C22.5574 59.8453 21.0331 59.8451 19.7829 59.1468L0.159166 48.2602L0 48.4285L19.7831 59.4741C21.0333 60.1722 22.5559 60.1722 23.8066 59.4748L43.7039 48.3781L43.6552 48.0781L23.8064 59.148Z" fill="#EEAB37"/>
</svg>
