<svg width="64" height="64" viewBox="0 0 64 64" fill="none" xmlns="http://www.w3.org/2000/svg">
<path d="M49.4768 40.9086C49.0512 40.267 48.552 39.7742 47.968 39.4158C49.04 39.1214 50 38.707 50.84 38.1726C51.6848 37.6446 52.3952 37.0206 52.9744 36.299C53.5536 35.579 53.9952 34.7726 54.296 33.8878C54.6032 33.0078 54.7552 32.0542 54.7552 31.0334C54.7552 29.7854 54.5456 28.6494 54.1136 27.6286C53.688 26.6126 53.024 25.739 52.128 25.0062C51.232 24.2798 50.0848 23.7182 48.6896 23.3262C47.2992 22.9294 45.6368 22.7358 43.7072 22.7358H35.0576V50.1246L35.8864 50.5214C37.1808 51.027 38.5024 51.379 39.8304 51.5822V40.2718H42.48C43.0256 40.2718 43.4336 40.3454 43.7056 40.499C43.9728 40.6462 44.2272 40.891 44.4608 41.2318L48.4112 46.9358L50.6752 50.2046C52.0256 49.6254 53.3136 48.8942 54.512 48.0142L52.2816 44.8702L49.4784 40.9086H49.4768ZM43.5792 36.8062H39.8272V26.4654H43.704C45.8496 26.4654 47.456 26.891 48.5168 27.731C49.5776 28.5758 50.1056 29.7966 50.1056 31.403C50.1056 32.203 49.9696 32.9358 49.6976 33.5934C49.4256 34.2574 49.016 34.8254 48.4768 35.2958C47.9328 35.7726 47.2512 36.147 46.4336 36.4078C45.616 36.675 44.6688 36.8046 43.5792 36.8046V36.8062Z" fill="url(#paint0_linear_1308_249)"/>
<path d="M45.232 12.5505C39.5968 11.9313 34.5232 13.4305 30.2384 17.1361C24.92 21.7329 22.7872 27.6641 23.4112 34.6785C22.0896 34.9105 20.7888 35.1489 19.6144 35.3601C20.8512 38.6625 22.0544 41.8801 23.2688 45.1265C24.3296 44.4961 25.4768 43.8161 26.6624 43.1121C28.4896 45.8417 30.8624 47.8913 33.672 49.4577L35.056 50.1281L35.8848 50.5249C37.1792 51.0305 38.5008 51.3825 39.8288 51.5857V47.6241C38.6432 47.3921 37.4624 47.0113 36.3216 46.4785C35.8848 46.2737 35.464 46.0593 35.056 45.8209C28.0304 41.7633 25.1184 32.9553 28.5632 25.4865C32.2352 17.5249 41.6608 14.0513 49.6016 17.7345C57.5184 21.4001 60.9696 30.7873 57.3136 38.7329C56.1504 41.2577 54.3904 43.3361 52.28 44.8737C51.088 45.7425 49.7824 46.4337 48.4096 46.9393L50.6736 50.2081C52.024 49.6289 53.312 48.8977 54.5104 48.0177C58.3808 45.2033 61.2816 40.9297 62.2576 35.5953C64.3056 24.3361 56.4752 13.7857 45.232 12.5537V12.5505Z" fill="url(#paint1_linear_1308_249)"/>
<path d="M4.20642 40.9474C2.26882 41.7154 1.31842 43.4834 1.26242 45.581C1.20642 47.6562 2.01442 49.3522 3.85602 50.437C5.46082 51.3826 7.13762 51.4066 8.86082 50.7602C12.6896 49.3218 16.5232 47.8978 20.3536 46.4658C20.5296 46.4002 20.6976 46.309 20.8288 46.2482C19.5616 42.853 18.3152 39.5138 17.1056 36.269C12.8128 37.8098 8.46242 39.2626 4.20642 40.9474Z" fill="url(#paint2_linear_1308_249)"/>
<defs>
<linearGradient id="paint0_linear_1308_249" x1="13.8576" y1="12.8862" x2="64.528" y2="54.9454" gradientUnits="userSpaceOnUse">
<stop stop-color="#DA5252"/>
<stop offset="0.53" stop-color="#A23939"/>
<stop offset="1" stop-color="#6D2222"/>
</linearGradient>
<linearGradient id="paint1_linear_1308_249" x1="15.3632" y1="11.0721" x2="66.0336" y2="53.1313" gradientUnits="userSpaceOnUse">
<stop stop-color="#DA5252"/>
<stop offset="0.53" stop-color="#A23939"/>
<stop offset="1" stop-color="#6D2222"/>
</linearGradient>
<linearGradient id="paint2_linear_1308_249" x1="-2.51838" y1="32.6146" x2="48.152" y2="74.6738" gradientUnits="userSpaceOnUse">
<stop stop-color="#DA5252"/>
<stop offset="0.53" stop-color="#A23939"/>
<stop offset="1" stop-color="#6D2222"/>
</linearGradient>
</defs>
</svg>
