<svg width="44" height="45" viewBox="0 0 44 45" fill="none" xmlns="http://www.w3.org/2000/svg">
<g clip-path="url(#clip0_1251_4146)">
<path d="M40.5768 34.9014C38.216 34.8426 36.3864 35.0786 34.8518 35.7273C34.4091 35.9041 33.7008 35.9043 33.6418 36.4647C33.8779 36.7007 33.9074 37.0841 34.114 37.4084C34.4685 37.9982 35.0878 38.7946 35.6485 39.2077C36.2681 39.6795 36.8881 40.1512 37.5371 40.5642C38.6881 41.2721 39.9867 41.6849 41.108 42.3928C41.7575 42.8054 42.4063 43.3366 43.0556 43.7789C43.3802 44.0145 43.5867 44.3983 44 44.5457L44 44.4573C43.7933 44.1917 43.7342 43.8084 43.5278 43.5135C43.233 43.2185 42.9375 42.953 42.6424 42.6581C41.7867 41.5081 40.7244 40.5052 39.5735 39.6795C38.6292 39.0305 36.5633 38.1458 36.1798 37.0545C36.1798 37.0545 36.1501 37.0252 36.1207 36.9957C36.7699 36.9367 37.5371 36.7007 38.157 36.5237C39.1603 36.2581 40.0751 36.3172 41.108 36.0518C41.5801 35.9338 42.0523 35.7863 42.5243 35.6388L42.5243 35.3735C41.9934 34.8426 41.6098 34.1349 41.049 33.6334C39.544 32.3354 37.8912 31.0674 36.1798 30.0057C35.2649 29.4158 34.0843 29.0324 33.1105 28.5311C32.7567 28.354 32.1663 28.2656 31.9598 27.9707C31.4284 27.3219 31.1333 26.4667 30.7498 25.6998C29.8942 24.0775 29.0677 22.2786 28.3298 20.5682C27.7989 19.4178 27.4743 18.2675 26.825 17.2059C23.7854 12.1921 20.4802 9.15435 15.4046 6.17541C14.3126 5.55616 13.0142 5.2907 11.6272 4.96641C10.8897 4.93674 10.1517 4.87792 9.41401 4.84825C8.9418 4.64178 8.46958 4.08152 8.05639 3.81606C6.37462 2.7542 2.0363 0.454007 0.796897 3.49177C3.00237e-05 5.40868 1.97744 7.29609 2.65591 8.26964C3.15798 8.94788 3.80694 9.71461 4.16111 10.4815C4.3677 10.9826 4.42656 11.5139 4.63315 12.0446C5.10554 13.342 5.5479 14.7874 6.16786 15.9968C6.49251 16.616 6.8465 17.2648 7.25969 17.8252C7.4958 18.1495 7.90882 18.2971 7.99753 18.8279C7.58451 19.4178 7.55483 20.3027 7.31855 21.0399C6.25623 24.3727 6.66959 28.5016 8.17444 30.9495C8.64649 31.6865 9.76801 33.3091 11.273 32.6896C12.6011 32.1588 12.306 30.4777 12.6893 29.0031C12.7782 28.6488 12.7192 28.4131 12.8961 28.1772L12.8961 28.2363C13.3093 29.0619 13.7223 29.8584 14.106 30.6842C15.0209 32.1291 16.6143 33.6334 17.9423 34.6363C18.6507 35.1669 19.2113 36.0813 20.0967 36.4057L20.0967 36.3171L20.0375 36.3171C19.8605 36.0516 19.5948 35.9338 19.3589 35.7272C18.8278 35.1966 18.2374 34.5476 17.8244 33.9577C16.5851 32.3059 15.493 30.4775 14.5192 28.5899C14.0471 27.6759 13.6338 26.673 13.2503 25.7588C13.073 25.4045 13.073 24.8739 12.7781 24.6971C12.3353 25.3459 11.6862 25.9063 11.3616 26.7025C10.8012 27.9707 10.742 29.5338 10.5354 31.1558C10.4173 31.1856 10.4762 31.1558 10.4171 31.2151C9.47304 30.9788 9.14839 30.0057 8.79406 29.1799C7.90865 27.086 7.76108 23.7238 8.52861 21.3054C8.7352 20.686 9.62061 18.7396 9.26645 18.1497C9.08936 17.5892 8.49892 17.2648 8.17444 16.8225C7.79094 16.2621 7.37758 15.5545 7.11212 14.9349C6.4038 13.2833 6.04964 11.4547 5.28245 9.8031C4.92829 9.0362 4.30884 8.24014 3.80694 7.53223C3.24635 6.73601 2.62657 6.17541 2.18387 5.2317C2.03647 4.90742 1.8297 4.37649 2.06581 4.02253C2.12484 3.78656 2.24272 3.69824 2.479 3.63925C2.86268 3.31462 3.95468 3.72757 4.33802 3.90455C5.43002 4.34665 6.34477 4.75993 7.25969 5.37918C7.67271 5.67415 8.11542 6.23457 8.64649 6.38205L9.26628 6.38205C10.2107 6.58836 11.2729 6.44104 12.1583 6.70634C13.7225 7.20761 15.1388 7.94501 16.4079 8.7414C20.2738 11.1892 23.4606 14.6695 25.6151 18.8279C25.9693 19.506 26.1167 20.1257 26.4413 20.8333C27.0613 22.2786 27.8285 23.7532 28.4479 25.1689C29.0677 26.5549 29.6578 27.9707 30.5432 29.121C30.9859 29.7401 32.7564 30.0647 33.5532 30.3892C34.1435 30.6545 35.0584 30.8906 35.5895 31.2149C36.5928 31.834 37.5961 32.5422 38.5405 33.2203C39.0127 33.5743 40.4881 34.3117 40.5768 34.9014Z" fill="#00546B"/>
<path d="M10.476 9.27197C9.97439 9.27197 9.6204 9.33131 9.26624 9.41962L9.26624 9.47862L9.32526 9.47862C9.56154 9.95056 9.97439 10.275 10.2694 10.6878C10.5056 11.1596 10.7121 11.6317 10.9483 12.1036C10.9777 12.0739 11.0072 12.0446 11.0072 12.0446C11.4206 11.7495 11.627 11.2777 11.627 10.5698C11.4499 10.3635 11.4204 10.157 11.2728 9.95056C11.0959 9.65542 10.7121 9.50811 10.476 9.27197Z" fill="#00546B"/>
</g>
<defs>
<clipPath id="clip0_1251_4146">
<rect width="44" height="45" fill="white"/>
</clipPath>
</defs>
</svg>
