<svg width="32" height="48" viewBox="0 0 32 48" fill="none" xmlns="http://www.w3.org/2000/svg">
<g clip-path="url(#clip0_1251_4156)">
<path d="M16.0035 24C16.0035 19.5818 19.5852 16 24.0035 16C28.4217 16 32.0035 19.5818 32.0035 24C32.0035 28.4183 28.4217 32 24.0035 32C19.5852 32 16.0035 28.4183 16.0035 24Z" fill="#1ABCFE"/>
<path d="M0.00372314 40C0.00372314 35.5818 3.58541 32 8.00372 32H16.0037V40C16.0037 44.4183 12.422 48 8.00372 48C3.58541 48 0.00372314 44.4183 0.00372314 40Z" fill="#0ACF83"/>
<path d="M16.0035 0V15.9999H24.0035C28.4218 15.9999 32.0035 12.4182 32.0035 7.99989C32.0035 3.58157 28.4218 0 24.0035 0H16.0035Z" fill="#FF7262"/>
<path d="M0.00372314 8C0.00372314 12.4183 3.58541 16 8.00372 16H16.0037V0H8.00372C3.58541 0 0.00372314 3.5818 0.00372314 8Z" fill="#F24E1E"/>
<path d="M0.00372314 24C0.00372314 28.4183 3.58541 32 8.00372 32H16.0037V16H8.00372C3.58541 16 0.00372314 19.5818 0.00372314 24Z" fill="#A259FF"/>
</g>
<defs>
<clipPath id="clip0_1251_4156">
<rect width="32.0064" height="48" fill="white"/>
</clipPath>
</defs>
</svg>
