<svg width="63" height="33" viewBox="0 0 63 33" fill="none" xmlns="http://www.w3.org/2000/svg">
<path d="M31.1458 32.4257C48.3472 32.4257 62.2917 25.167 62.2917 16.2129C62.2917 7.25875 48.3472 4.15578e-07 31.1458 9.28219e-07C13.9445 1.44086e-06 2.16328e-07 7.25875 4.83181e-07 16.2129C7.50035e-07 25.167 13.9445 32.4257 31.1458 32.4257Z" fill="#8993BE"/>
<path fill-rule="evenodd" clip-rule="evenodd" d="M8.74634 25.8125L12.1597 8.53287L20.0525 8.53287C23.4657 8.74627 25.1724 10.4527 25.1724 13.4396C25.1724 18.5594 21.1193 21.546 17.4925 21.3326L13.653 21.3326L12.7997 25.8125L8.74634 25.8125ZM14.5061 18.1329L15.5729 11.7329L18.3461 11.7329C19.8394 11.7329 20.9059 12.3728 20.9059 13.6527C20.6927 17.2795 18.986 17.9195 17.0662 18.1329L14.5061 18.1329ZM24.3794 21.3326L27.7925 4.05322L31.8459 4.05322L30.9925 8.53287L34.8322 8.53287C38.2456 8.74627 39.5255 10.4527 39.0989 12.5862L37.6056 21.3326L33.3392 21.3326L34.8324 13.4396C35.0456 12.3728 35.0456 11.7329 33.5525 11.7329L30.3526 11.7329L28.4327 21.3326L24.3794 21.3326ZM37.3324 25.8125L40.7455 8.53287L48.6386 8.53287C52.052 8.74627 53.7587 10.4527 53.7587 13.4396C53.7587 18.5594 49.7053 21.546 46.0788 21.3326L42.2388 21.3326L41.3855 25.8125L37.3324 25.8125ZM43.0919 18.1328L44.1587 11.7329L46.9321 11.7329C48.4254 11.7329 49.4919 12.3728 49.4919 13.6527C49.2788 17.2795 47.5721 17.9195 45.6522 18.1328L43.0922 18.1328L43.0919 18.1328Z" fill="#232531"/>
</svg>
