<svg width="44" height="44" viewBox="0 0 44 44" fill="none" xmlns="http://www.w3.org/2000/svg">
<path fill-rule="evenodd" clip-rule="evenodd" d="M1.03156e-06 40.0415L9.8257e-08 8.72518C7.22007e-08 7.85088 0.347317 7.01225 0.965587 6.39398C1.58386 5.77555 2.42249 5.42822 3.29696 5.42822L34.6131 5.42822L1.03156e-06 40.0415Z" fill="#1EA361"/>
<path fill-rule="evenodd" clip-rule="evenodd" d="M1.05114e-06 40.6987L1.03156e-06 40.0415L34.6131 5.42822L35.2705 5.42822C36.1448 5.42822 36.9834 5.77555 37.6018 6.39382C38.2201 7.01225 38.5674 7.85088 38.5674 8.72518L38.5674 9.37377L3.95414 43.987L3.30782 43.987C2.43335 43.987 1.59473 43.6397 0.976456 43.0213C0.358186 42.403 0.0107019 41.5644 0.0107019 40.6901" fill="#FEDB43"/>
<path fill-rule="evenodd" clip-rule="evenodd" d="M3.9668 43.9958L19.2951 28.6675L34.6235 43.9958L3.9668 43.9958Z" fill="#5384C4"/>
<path fill-rule="evenodd" clip-rule="evenodd" d="M34.6244 43.9999L19.296 28.6586L23.2524 24.7021L38.5916 40.0414L38.5916 40.6986C38.5916 42.519 37.1138 43.9955 35.2924 43.9955L34.6352 43.9955L34.6244 43.9999Z" fill="white"/>
<path fill-rule="evenodd" clip-rule="evenodd" d="M38.5905 40.0439L23.2406 24.7156L38.5689 9.38721L38.5905 40.0439Z" fill="#C2C2C1"/>
<path d="M6.89102 9.69496C8.85301 8.79779 11.3089 9.16311 12.9012 10.6333L11.3879 12.1327C9.79444 10.5501 6.79907 11.3002 6.05206 13.3942C5.07495 15.4535 6.69855 18.1505 8.9957 18.1905C10.509 18.3657 11.9987 17.3581 12.3142 15.861C11.2658 15.8631 10.2172 15.8533 9.17941 15.8686L9.15996 13.9261L14.4384 13.9974C14.5703 15.2793 14.4795 16.6414 13.7898 17.7667C12.7089 19.7806 10.1544 20.6594 7.99362 20.1514C5.32142 19.598 3.32149 16.8566 3.68697 14.1411C3.87392 12.2256 5.16786 10.4895 6.91047 9.69609" fill="#EFEFEF"/>
<path d="M31.8453 9.8787e-07L33.0992 9.50501e-07C36.234 0.179499 39.2791 1.7058 41.1741 4.21585C42.4151 5.80279 43.1069 7.78311 43.2626 9.77218L43.2626 10.5148C43.1901 14.3911 40.7093 17.5736 38.5603 20.5896C36.1497 23.9968 33.9208 27.71 33.3023 31.9096C33.1369 32.621 33.3348 33.6177 32.4851 33.9387C32.2852 33.7831 32.0528 33.6543 31.9122 33.4361C31.6604 31.0882 31.0734 28.7695 30.0723 26.6259C28.9373 24.1395 27.3538 21.8694 25.7462 19.6609C24.768 18.3357 23.8438 16.9651 23.0805 15.5035C21.8915 13.3135 21.4342 10.7256 21.9239 8.26745C22.326 6.32702 23.3292 4.52928 24.7474 3.13919C26.6413 1.28746 29.2011 0.165392 31.8453 9.8787e-07ZM31.6009 6.82968C30.12 7.16046 28.8747 8.47273 28.7492 10.0078C28.5936 11.4368 29.4302 12.8864 30.7102 13.5178C32.0982 14.2528 33.9208 14.0258 35.0806 12.9772C36.1638 12.0196 36.5573 10.3656 35.9919 9.02727C35.3217 7.3518 33.337 6.39837 31.5998 6.84379" fill="#DC4B3E"/>
<path d="M31.6 6.82495C33.3361 6.39266 35.3229 7.33312 35.9921 9.0086C36.5575 10.3468 36.1629 12.0007 35.0808 12.9585C33.921 14.0201 32.0973 14.2557 30.7105 13.499C29.4295 12.8677 28.5938 11.4181 28.7494 9.98911C28.8749 8.45405 30.1191 7.14276 31.6011 6.81101" fill="#802C27"/>
</svg>
