<svg width="40" height="40" viewBox="0 0 40 40" fill="none" xmlns="http://www.w3.org/2000/svg">
<path d="M20 3.3335C10.8 3.3335 3.33331 10.8002 3.33331 20.0002C3.33331 29.2002 10.8 36.6668 20 36.6668C29.2 36.6668 36.6666 29.2002 36.6666 20.0002C36.6666 10.8002 29.2 3.3335 20 3.3335ZM25.8833 24.1168C26.3666 24.6001 26.3666 25.4002 25.8833 25.8835C25.6333 26.1335 25.3166 26.2502 25 26.2502C24.6833 26.2502 24.3666 26.1335 24.1166 25.8835L20 21.7668L15.8833 25.8835C15.6333 26.1335 15.3166 26.2502 15 26.2502C14.6833 26.2502 14.3666 26.1335 14.1166 25.8835C13.6333 25.4002 13.6333 24.6001 14.1166 24.1168L18.2333 20.0002L14.1166 15.8835C13.6333 15.4002 13.6333 14.6001 14.1166 14.1168C14.6 13.6334 15.4 13.6334 15.8833 14.1168L20 18.2335L24.1166 14.1168C24.6 13.6334 25.4 13.6334 25.8833 14.1168C26.3666 14.6001 26.3666 15.4002 25.8833 15.8835L21.7666 20.0002L25.8833 24.1168Z" fill="#F04438"/>
</svg>
