<svg width="20" height="20" viewBox="0 0 20 20" fill="none" xmlns="http://www.w3.org/2000/svg">
<g clip-path="url(#clip0_1544_7722)">
<path d="M18.8176 4.94794C18.709 4.53947 18.4951 4.16667 18.1972 3.86686C17.8993 3.56705 17.5279 3.35074 17.1201 3.23957C15.619 2.83594 9.61904 2.83594 9.61904 2.83594C9.61904 2.83594 3.61904 2.83594 2.11795 3.23957C1.71019 3.35074 1.33877 3.56705 1.04087 3.86686C0.742976 4.16667 0.529047 4.53947 0.420498 4.94794C0.019043 6.45557 0.019043 9.59957 0.019043 9.59957C0.019043 9.59957 0.019043 12.7436 0.420498 14.2512C0.529047 14.6597 0.742976 15.0325 1.04087 15.3323C1.33877 15.6321 1.71019 15.8484 2.11795 15.9596C3.61904 16.3632 9.61904 16.3632 9.61904 16.3632C9.61904 16.3632 15.619 16.3632 17.1201 15.9596C17.5279 15.8484 17.8993 15.6321 18.1972 15.3323C18.4951 15.0325 18.709 14.6597 18.8176 14.2512C19.219 12.7436 19.219 9.59957 19.219 9.59957C19.219 9.59957 19.219 6.45557 18.8176 4.94794Z" fill="#FF0302"/>
<path d="M7.65542 12.4549V6.74512L12.6736 9.60003L7.65542 12.4549Z" fill="#FEFEFE"/>
</g>
<defs>
<clipPath id="clip0_1544_7722">
<rect width="19.2" height="19.2" fill="white"/>
</clipPath>
</defs>
</svg>
